<?xml version="1.0" standalone="no"?>
<!DOCTYPE svg PUBLIC "-//W3C//DTD SVG 1.1//EN" "http://www.w3.org/Graphics/SVG/1.1/DTD/svg11.dtd" >
<svg xmlns="http://www.w3.org/2000/svg" xmlns:xlink="http://www.w3.org/1999/xlink" version="1.1">
<metadata>
Created by FontForge 20170924 at Sat Apr 18 16:44:09 2020
 By www-data
Shobuj Nolua (c) All Rights Reserved by Lipighor Font Foundry
</metadata>
<defs>
<font id="ShobujNolua" horiz-adv-x="0" >
  <font-face 
    font-family="Shobuj Nolua"
    font-weight="400"
    font-stretch="normal"
    units-per-em="1000"
    panose-1="2 0 5 6 0 0 0 2 0 3"
    ascent="800"
    descent="-200"
    x-height="367"
    cap-height="485"
    bbox="-469 -338.125 859.081 717.444"
    underline-thickness="50"
    underline-position="-100"
    unicode-range="U+001D-25CC"
  />
<missing-glyph horiz-adv-x="599" 
d="M408 411v-27l81 27h67v-386h-69l-16 93v209l-63 -21v-70h-81v91l-60 -20v-207h60v71h81v-146h-226v330l162 56h64zM476 486l-232 -16l-98 -30v-415h-90v475l222 65h278v-125h-80v46z" />
    <glyph glyph-name=".notdef" horiz-adv-x="599" 
d="M408 411v-27l81 27h67v-386h-69l-16 93v209l-63 -21v-70h-81v91l-60 -20v-207h60v71h81v-146h-226v330l162 56h64zM476 486l-232 -16l-98 -30v-415h-90v475l222 65h278v-125h-80v46z" />
    <glyph glyph-name=".null" horiz-adv-x="1" 
 />
    <glyph glyph-name=".null" horiz-adv-x="1" 
 />
    <glyph glyph-name="nonmarkingreturn.1" horiz-adv-x="1" 
 />
    <glyph glyph-name="space" unicode=" " horiz-adv-x="217" 
 />
    <glyph glyph-name="exclam" unicode="!" horiz-adv-x="186" 
d="M161 88q-14 0 -29 5q-38 11 -38 28v293q0 3 7 3q15 0 31 -4q37 -12 37 -29v-293q0 -3 -8 -3zM165 -5h-5q-9 0 -34 7q-38 15 -40 39q1 8 4 16l1 3q1 4 3 9t18 5q13 0 37 -11q15 -9 20 -15l4 -8q6 -11 6 -23q0 -19 -14 -22z" />
    <glyph glyph-name="quotedbl" unicode="&#x22;" horiz-adv-x="341" 
d="M109 325h-10q-9 5 -16 11t-7 27v25q0 29 -9 38q-19 18 -19 29q0 34 59 34q2 0 22 -0.5t32 -26.5q5 -11 5 -19q0 -11 -11.5 -18t-13.5 -86q-6 -14 -32 -14zM239 325h-10q-9 5 -16 11t-7 27v25q0 29 -9 38q-19 18 -19 29q0 34 59 34q2 0 22 -0.5t32 -26.5q5 -11 5 -19
q0 -11 -11.5 -18t-13.5 -86q-6 -14 -32 -14z" />
    <glyph glyph-name="numbersign" unicode="#" horiz-adv-x="466" 
d="M287 0q-15 0 -30 6q-34 12 -34 27q0 6 19 90h-66l-26 -118q-2 -5 -10 -5q-15 0 -30 6q-35 12 -35 27l20 90q-25 0 -40 7q-34 13 -34 27q0 7 14 7h68l21 96q-20 0 -36 7q-33 13 -33 27q0 7 14 7h64l23 112q2 5 11 5q12 0 30 -6q34 -11 34 -28q0 -5 -17 -83h66
q11 54 24 112q2 5 10 5q12 0 30 -6q34 -11 34 -27l-17 -84q22 0 38 -6q33 -14 33 -28q0 -7 -14 -7h-66l-20 -96q18 0 34 -6q33 -14 33 -28q0 -7 -14 -7h-62l-26 -118q-1 -5 -10 -5zM250 164l21 96h-66l-21 -96h66z" />
    <glyph glyph-name="dollar" unicode="$" horiz-adv-x="377" 
d="M359 124q0 -54 -39 -87.5t-96 -40.5v-82h-69v78q-28 0 -66 6t-70 21v81q45 -20 81.5 -28t54.5 -8v133q-66 21 -98 54t-32 85q0 27 11.5 48.5t29.5 37t41.5 25t47.5 11.5v65h69v-63q28 -1 59.5 -9t68.5 -22l-27 -68q-62 24 -101 27v-130q72 -23 103.5 -52.5t31.5 -81.5z
M276 120q0 20 -13 33t-39 22v-106q52 7 52 51zM109 337q0 -22 13 -35t33 -21v104q-17 -3 -31.5 -16t-14.5 -32z" />
    <glyph glyph-name="percent" unicode="%" horiz-adv-x="507" 
d="M198 -1q-13 0 -30 7q-33 13 -33 25q0 3 156 382q3 5 12 5q13 0 31 -7q32 -14 32 -26v-2l-156 -378q-3 -6 -12 -6zM122 229q-26 0 -58 16q-42 21 -42 73q0 55 62 93q7 3 23 3q13 0 31 -5q67 -20 67 -79l1 -13q0 -26 -13 -49q-24 -39 -71 -39zM93 265q17 6 29 21
q19 22 19 54q0 20 -4 35q-50 -34 -50 -80q0 -9 3 -18.5t3 -11.5zM390 7q-25 0 -57 16t-41 55q-2 9 -2 18q0 23 13 44q19 31 50 49q6 4 21 4q14 0 32 -5q68 -19 68 -79l1 -13q0 -26 -13 -50q-24 -39 -72 -39zM362 44q17 6 29 21q18 23 18 55q0 23 -4 34q-31 -22 -45 -56
q-4 -12 -4 -24q0 -15 5 -28z" />
    <glyph glyph-name="quotesingle" unicode="'" horiz-adv-x="211" 
d="M109 326h-10q-9 5 -16 11t-7 27v25q0 29 -9 38q-19 18 -19 29q0 34 59 34q2 0 22 -0.5t32 -26.5q5 -11 5 -19q0 -11 -11.5 -18t-13.5 -86q-6 -14 -32 -14z" />
    <glyph glyph-name="parenleft" unicode="(" horiz-adv-x="227" 
d="M293 -184q-16 0 -36 11l-2 1q-89 44 -147 125q-85 115 -85 252q0 220 190 343q6 3 13 3q15 0 36 -12q9 -5 16.5 -11t7.5 -10q0 -3 -4 -5q-76 -49 -127 -124q-57 -95 -57 -214q0 -134 82 -240q42 -58 104 -91q4 -1 11 -5q12 -9 12 -15q0 -8 -14 -8z" />
    <glyph glyph-name="parenright" unicode=")" horiz-adv-x="246" 
d="M-54 551q16 0 37 -11l2 -1q89 -44 147 -125q85 -115 85 -252q0 -220 -190 -343q-6 -3 -13 -3q-15 0 -36 12q-10 4 -17 10.5t-7 10.5q0 2 4 5q76 49 127 124q57 94 57 213q0 134 -82 241q-42 58 -104 91q-4 1 -11 5q-12 9 -12 14q0 9 13 9z" />
    <glyph glyph-name="asterisk" unicode="*" horiz-adv-x="455" 
d="M424 230q4 -3 2.5 -7t-6.5 -8t-10 -7t-8 -4q-9 -5 -24 -9.5t-25 0.5q-32 21 -70 25q-9 1 -8 5.5t6 9.5t9 7q25 16 54 15q43 -4 80 -27zM28 219q-4 3 -2.5 7t6.5 8t10 7t8 4q9 5 24 9.5t25 -0.5q32 -21 70 -25q9 -1 8 -5.5t-6 -9.5t-9 -7q-25 -16 -54 -15q-43 4 -80 27z
M221 423q3 4 7 2.5t8 -6.5t7 -10t4 -8q5 -9 9.5 -24t-0.5 -25q-21 -32 -25 -70q-1 -9 -5.5 -8t-9.5 6t-7 9q-16 25 -15 54q4 43 27 80zM231 27q-3 -4 -7 -2.5t-8 6.5t-7 10t-4 8q-5 9 -9.5 24t0.5 25q21 32 25 70q1 9 5.5 8t9.5 -6t7 -9q16 -25 15 -54q-4 -43 -27 -80z
M362 369q5 1 6.5 -3t1 -10.5t-2 -12t-2.5 -8.5q-3 -10 -10.5 -23.5t-17.5 -17.5q-38 -8 -68 -32q-7 -6 -9.5 -2t-2.5 11t2 11q6 29 27 49q33 28 76 38zM90 80q-5 0 -6.5 3.5t-1 10t2 12t2.5 8.5q3 10 10.5 24t17.5 17q38 8 67 33q7 5 9.5 1t2.5 -11t-1 -11q-6 -29 -27 -49
q-33 -28 -76 -38zM376 95q1 -5 -3 -7t-10.5 -1.5t-12 1.5t-8.5 3q-10 2 -24 9t-18 17q-10 37 -35 66q-6 7 -2.5 9.5t11 3t11.5 -1.5q29 -5 50 -25q29 -32 41 -74zM76 354q-1 5 3 7t10 1.5t12 -1.5t9 -2q10 -3 24 -9.5t18 -17.5q10 -37 35 -65q6 -7 2 -9.5t-11 -3t-11 0.5
q-29 5 -50 25q-29 32 -41 74z" />
    <glyph glyph-name="plus" unicode="+" horiz-adv-x="443" 
d="M248 12q-14 0 -29 5q-38 11 -38 28v123h-153q-3 0 -3 8q0 14 5 30q11 37 28 37h123v153q0 3 7 3q15 0 31 -4q37 -12 37 -29v-123h152q4 0 4 -8q0 -11 -5 -29q-10 -38 -28 -38h-123v-153q0 -3 -8 -3z" />
    <glyph glyph-name="comma" unicode="," horiz-adv-x="173" 
d="M140 10q15 -41 -11.5 -73t-59.5 -51q-10 -5 -26 -0.5t-25 9.5q-2 1 -7 4t-9.5 7t-6 8t2.5 7q1 0 1 1q20 12 38.5 27.5t27.5 37.5q2 5 3 11q-3 1 -4 1q-12 3 -24.5 9.5t-19.5 17.5q-7 14 -1 22.5t18.5 11.5t23.5 1q24 -3 46 -16t33 -35z" />
    <glyph glyph-name="hyphenminus" unicode="-" horiz-adv-x="341" 
d="M256 168h-214q-3 0 -3 8q0 14 5 30q11 37 27 37h214q4 0 4 -8q0 -11 -5 -29q-10 -38 -28 -38z" />
    <glyph glyph-name="period" unicode="." horiz-adv-x="158" 
d="M99 -1q-7 0 -19 2q-32 7 -52 31q-8 8 -8 18q0 8 6.5 17.5t9.5 11.5t14 2q22 0 50 -16.5t28 -41.5q0 -24 -29 -24z" />
    <glyph glyph-name="slash" unicode="/" horiz-adv-x="279" 
d="M42 -81q-12 0 -28.5 6.5t-25 13.5t-8.5 13l26 64q14 36 78 192q55 132 109 265q3 5 12 5q13 0 31 -6q32 -13 32 -27v-2l-98 -238l-115 -280q-3 -6 -13 -6z" />
    <glyph glyph-name="colon" unicode=":" horiz-adv-x="212" 
d="M122 258q-29 0 -57 14.5t-28 30.5q0 39 26 49q8 2 10.5 3.5t9.5 1.5q17 0 39 -11q42 -20 42 -52q0 -20 -16 -29q-12 -7 -26 -7zM122 50q-29 0 -57 14.5t-28 30.5q0 39 26 49q8 2 10 3.5t7 1.5q20 0 42 -11q42 -20 42 -52q0 -20 -16 -29q-12 -7 -26 -7z" />
    <glyph glyph-name="semicolon" unicode=";" horiz-adv-x="224" 
d="M127 258q-30 0 -58 14.5t-28 32.5q3 41 34 49q1 0 3.5 1.5t8.5 1.5q17 0 39 -11q43 -19 43 -54q0 -17 -17 -27q-12 -7 -25 -7zM94 -43q-16 0 -37 12q-9 5 -16 11t-7 10q0 3 3 5q56 36 69 101q-25 0 -52 17q-20 11 -22 32q1 41 43 41q31 0 59 -15q50 -31 50 -78
q0 -81 -77 -133q-6 -3 -13 -3z" />
    <glyph glyph-name="less" unicode="&#x3c;" horiz-adv-x="384" 
d="M282 21q-6 0 -11 2q-123 81 -234 178l-1 4l1 4q-2 2 -2 4q0 3 4 5q122 81 233 178q4 3 11 3q14 0 35 -11q25 -13 25 -22q0 -3 -2 -5q-95 -84 -199 -155q95 -80 198 -148q4 -2 4 -5q0 -8 -23 -20t-39 -12z" />
    <glyph glyph-name="equal" unicode="=" horiz-adv-x="456" 
d="M387 245h-351q-3 0 -3 7q0 14 5 30q10 37 28 37h350q4 0 4 -8q0 -10 -5 -29q-12 -37 -28 -37zM387 100h-351q-3 0 -3 7q0 14 5 30q10 37 28 37h350q4 0 4 -8q0 -10 -5 -29q-12 -37 -28 -37z" />
    <glyph glyph-name="greater" unicode="&#x3e;" horiz-adv-x="385" 
d="M97 21q-16 0 -39 12t-23 20q0 3 4 5q103 68 198 148q-104 71 -199 155q-2 2 -2 5q0 9 25 22q21 11 35 11q7 0 11 -3q111 -97 233 -178q4 -2 4 -5q0 -2 -2 -4l1 -4l-1 -4q-111 -97 -234 -178q-5 -2 -11 -2z" />
    <glyph glyph-name="question" unicode="?" horiz-adv-x="382" 
d="M258 406h-9q-37 -3 -64 -29.5t-7 -64.5q2 -4 -1.5 -6t-11 -1.5t-13.5 1.5t-7 1q-12 3 -24 9.5t-19 17.5q-19 38 4 68t61 39q82 16 151 -31q30 -23 34.5 -56t-17.5 -63q-28 -35 -66 -57q-23 -15 -44 -33q-59 -57 -31 -133q2 -4 -2 -6t-10.5 -1.5t-13 1.5t-7.5 2
q-12 3 -25 9t-18 17q-29 77 26 137q24 22 52 39q39 22 66 57q10 15 14.5 33t-1.5 36q-2 5 -4 8q-4 6 -13 6zM209 20q16 -18 15 -41q-1 -12 -10.5 -14t-21.5 0.5t-18 5.5q-16 4 -32 14t-21 25q-3 10 1.5 18.5t13.5 12.5q2 3 6 3.5t9 0.5t7 -1q15 -2 28.5 -8t22.5 -16z" />
    <glyph glyph-name="at" unicode="@" horiz-adv-x="747" 
d="M287 113l-1 3q5 4 9 4q1 0 1 -2l-1 -4zM332 -39q-42 0 -85 13q-134 32 -191 122q-24 45 -24 89q0 49 28 97q56 86 151 128q95 48 201 48q121 0 221 -80q63 -49 63 -135q0 -123 -95 -194q-34 -23 -72 -23q-15 0 -31 4q-58 13 -84 65q-37 -22 -81 -22q-39 1 -79.5 21
t-45.5 62q2 75 62 121q71 57 117 57q25 0 49 -12q0 5 2 8t10 3q15 0 30 -5q34 -14 34 -28l-18 -112q-11 -56 -11 -73q0 -32 8 -48q3 1 8 2t10 3q46 21 76 69q36 60 36 128q0 97 -85 136q-43 15 -86 15q-34 0 -69 -9q-87 -20 -160 -71q-73 -46 -103 -125q-11 -30 -11 -58
q0 -49 32 -93q56 -64 146 -64q62 0 114 34q5 3 12 3q16 0 38 -12l10 -6q13 -7 13 -14q0 -3 -3 -6q-66 -38 -137 -38zM291 107q3 4 4 7q23 0 47 14q56 33 74 114l14 53q-6 0 -27 -12l-2 -1q-119 -63 -119 -144q0 -11 4 -22q-6 -2 -6 -4l7 1z" />
    <glyph glyph-name="bracketleft" unicode="[" horiz-adv-x="183" 
d="M220 -70h-120q-12 0 -25 5q-35 13 -35 29v492q0 3 7 3q3 1 127 1q13 0 28 -6q31 -12 31 -26q0 -6 -13 -6h-105v-454h59q13 0 28 -6q31 -12 31 -26q0 -6 -13 -6z" />
    <glyph glyph-name="backslash" unicode="\" horiz-adv-x="254" 
d="M206 -81q-10 0 -13 6l-115 280l-98 238v2q0 14 33 27q17 6 30 6q9 0 12 -5q54 -133 109 -265q64 -156 78 -192l26 -64q0 -6 -8.5 -13t-25 -13.5t-28.5 -6.5z" />
    <glyph glyph-name="bracketright" unicode="]" horiz-adv-x="205" 
d="M-7 -70q-13 0 -13 6q0 14 31 26q15 6 28 6h59v454h-105q-13 0 -13 6q0 14 31 26q15 6 28 6q124 0 127 -1q7 0 7 -3v-492q0 -16 -34 -29q-14 -5 -26 -5h-120z" />
    <glyph glyph-name="underscore" unicode="_" horiz-adv-x="321" 
d="M256 -2h-214q-3 0 -3 8q0 14 5 30q11 37 27 37h214q4 0 4 -8q0 -11 -5 -29q-10 -38 -28 -38z" />
    <glyph glyph-name="grave" unicode="`" horiz-adv-x="103" 
d="M85 461v-43q-34 13 -67 40l-6 6v92h72v-58h-33v-16q17 -14 34 -21z" />
    <glyph glyph-name="braceleft" unicode="{" horiz-adv-x="261" 
d="M238 -96h-6q-85 15 -125 113q-7 25 -9 51q-3 83 -51 103l-8 3q-13 8 -13 19q0 12 13 20q17 4 31 20q26 29 28 86q2 26 9 50q40 98 125 114l6 1q19 0 40 -19q11 -9 13 -19q0 -5 -7 -7q-95 -20 -119 -140q0 -63 -33 -106q33 -43 33 -105q24 -120 119 -140q7 -2 7 -7
q-2 -10 -13 -19q-21 -18 -40 -18z" />
    <glyph glyph-name="bar" unicode="|" horiz-adv-x="186" 
d="M121 -25q0 -4 -11.5 -3.5t-26 5t-26 11.5t-11.5 17v408q0 4 11.5 3.5t26 -5t26 -11.5t11.5 -17v-408z" />
    <glyph glyph-name="braceright" unicode="}" horiz-adv-x="317" 
d="M79 -96q-20 0 -40 18q-12 9 -13 19q0 5 7 7q95 20 119 140q0 62 33 105q-33 43 -33 106q-24 120 -119 140q-7 2 -7 7q1 10 13 19q20 19 40 19l6 -1q85 -16 125 -114q7 -24 9 -50q1 -57 28 -86q14 -16 31 -20q13 -8 13 -20q0 -11 -13 -19l-8 -3q-49 -20 -51 -103
q-2 -26 -9 -51q-40 -98 -125 -113h-6z" />
    <glyph glyph-name="periodcentered" unicode="&#xb7;" horiz-adv-x="151" 
d="M99 159q-7 0 -19 2q-32 7 -52 31q-8 8 -8 18q0 8 6.5 17.5t9.5 11.5t14 2q22 0 50 -16.5t28 -41.5q0 -24 -29 -24z" />
    <glyph glyph-name="multiply" unicode="&#xd7;" horiz-adv-x="363" 
d="M47 61q-10 11 -16 26q-14 36 -1 47l96 77l-96 119q-2 3 4 7q11 10 26 16q36 14 47 1l77 -96l119 96q3 2 7 -3q10 -12 16 -27q14 -36 1 -47l-96 -77l96 -118q2 -4 -4 -8q-8 -7 -26 -15q-36 -16 -47 -2l-77 96l-119 -96q-3 -2 -7 4z" />
    <glyph glyph-name="divide" unicode="&#xf7;" horiz-adv-x="344" 
d="M256 168h-214q-3 0 -3 8q0 14 5 30q11 37 27 37h214q4 0 4 -8q0 -11 -5 -29q-10 -38 -28 -38zM203 274q-7 0 -19 2q-32 7 -52 31q-8 8 -8 18q0 8 6.5 17.5t9.5 11.5t14 2q22 0 50 -16.5t28 -41.5q0 -24 -29 -24zM199 52q-7 0 -19 2q-32 7 -52 31q-8 8 -8 18q0 8 6.5 17.5
t9.5 11.5t14 2q22 0 50 -16.5t28 -41.5q0 -24 -29 -24z" />
    <glyph glyph-name="quoteleft" unicode="&#x2018;" horiz-adv-x="218" 
d="M57 367q-15 41 11.5 73t59.5 51q10 5 26 0.5t25 -9.5q2 -1 7 -4t9.5 -7t6 -8t-2.5 -7q-1 0 -1 -1q-20 -12 -38.5 -27.5t-27.5 -37.5q-2 -5 -3 -11q3 -1 4 -1q12 -3 24.5 -9.5t19.5 -17.5q7 -14 1 -22.5t-18.5 -11.5t-23.5 -1q-24 3 -46 16t-33 35z" />
    <glyph glyph-name="quoteright" unicode="&#x2019;" horiz-adv-x="208" 
d="M166 433q15 -41 -11.5 -73t-59.5 -51q-10 -5 -26 -0.5t-25 9.5q-2 1 -7 4t-9.5 7t-6 8t2.5 7q1 0 1 1q20 12 38.5 27.5t27.5 37.5q2 5 3 11q-3 1 -4 1q-12 3 -24.5 9.5t-19.5 17.5q-7 14 -1 22.5t18.5 11.5t23.5 1q24 -3 46 -16t33 -35z" />
    <glyph glyph-name="quotesinglbase" unicode="&#x201a;" horiz-adv-x="167" 
d="M140 10q15 -41 -11.5 -73t-59.5 -51q-10 -5 -26 -0.5t-25 9.5q-2 1 -7 4t-9.5 7t-6 8t2.5 7q1 0 1 1q20 12 38.5 27.5t27.5 37.5q2 5 3 11q-3 1 -4 1q-12 3 -24.5 9.5t-19.5 17.5q-7 14 -1 22.5t18.5 11.5t23.5 1q24 -3 46 -16t33 -35z" />
    <glyph glyph-name="quotedblleft" unicode="&#x201c;" horiz-adv-x="356" 
d="M57 367q-15 41 11.5 73t59.5 51q10 5 26 0.5t25 -9.5q2 -1 7 -4t9.5 -7t6 -8t-2.5 -7q-1 0 -1 -1q-20 -12 -38.5 -27.5t-27.5 -37.5q-2 -5 -3 -11q3 -1 4 -1q12 -3 24.5 -9.5t19.5 -17.5q7 -14 1 -22.5t-18.5 -11.5t-23.5 -1q-24 3 -46 16t-33 35zM207 367
q-15 41 11.5 73t59.5 51q10 5 26 0.5t25 -9.5q2 -1 7 -4t9.5 -7t6 -8t-2.5 -7q-1 0 -1 -1q-20 -12 -38.5 -27.5t-27.5 -37.5q-2 -5 -3 -11q3 -1 4 -1q12 -3 24.5 -9.5t19.5 -17.5q7 -14 1 -22.5t-18.5 -11.5t-23.5 -1q-24 3 -46 16t-33 35z" />
    <glyph glyph-name="quotedblright" unicode="&#x201d;" horiz-adv-x="359" 
d="M316 433q15 -41 -11.5 -73t-59.5 -51q-10 -5 -26 -0.5t-25 9.5q-2 1 -7 4t-9.5 7t-6 8t2.5 7q1 0 1 1q20 12 38.5 27.5t27.5 37.5q2 5 3 11q-3 1 -4 1q-12 3 -24.5 9.5t-19.5 17.5q-7 14 -1 22.5t18.5 11.5t23.5 1q24 -3 46 -16t33 -35zM166 433q15 -41 -11.5 -73
t-59.5 -51q-10 -5 -26 -0.5t-25 9.5q-2 1 -7 4t-9.5 7t-6 8t2.5 7q1 0 1 1q20 12 38.5 27.5t27.5 37.5q2 5 3 11q-3 1 -4 1q-12 3 -24.5 9.5t-19.5 17.5q-7 14 -1 22.5t18.5 11.5t23.5 1q24 -3 46 -16t33 -35z" />
    <glyph glyph-name="signcandrabinducomb-beng" unicode="&#x981;" 
d="M31 589q7 -59 -42 -93q-52 -28 -112 -17q-68 7 -122 48q-21 18 -28 42t12 47q7 6 20 4t27 -9t22.5 -14.5t5.5 -10.5q-12 -13 -13 -30t12 -30q10 -9 24.5 -10.5t26.5 -0.5q40 1 68.5 27.5t23.5 67.5q0 7 10.5 7.5t25 -3.5t26.5 -11t13 -14zM-160 564q-4 4 -6.5 7.5
t-1.5 8.5q0 7 3 13q6 15 14 29q2 3 5 4t6 1q7 0 14 -1.5t10 -2.5q15 -4 29 -12q3 -2 8 -6t6 -9t-1 -10.5t-4 -10.5q-1 -2 -1 -3q-1 -2 -2 -5q-2 -7 -5.5 -13.5t-8.5 -8.5q-15 -4 -30 2q-19 5 -35 17zM-148 619v1h-0.5t0.5 -1z" />
    <glyph glyph-name="signanusvara-beng" unicode="&#x982;" horiz-adv-x="313" 
d="M212 236q-44 -4 -93.5 15t-56.5 67q-3 35 17.5 65t55.5 38q2 1 4 1h7q39 0 78.5 -19t56.5 -54q15 -39 -6 -75q-22 -35 -63 -38zM212 339q2 22 -11 40l-4 4q-21 -4 -35.5 -21t-20.5 -38q-7 -21 -2 -43q1 -3 2 -5q1 -1 1 -2h10q26 2 41.5 20.5t18.5 44.5zM91 228
q74 -41 132 -104.5t59 -152.5q0 -5 -11.5 -4t-26 5.5t-25.5 11.5t-12 17q-1 76 -50 130.5t-113 89.5q-5 3 -9.5 7.5t-5 8.5t7.5 6q13 3 28 -3t26 -12z" />
    <glyph glyph-name="signvisarga-beng" unicode="&#x983;" horiz-adv-x="276" 
d="M109 199q38 0 77.5 -19.5t57.5 -53.5q14 -39 -7 -77q-22 -34 -63 -37q-43 -4 -93 14.5t-57 67.5q-1 36 18.5 66t54.5 38h4q4 1 8 1zM174 115q2 23 -11 41l-4 4q-21 -5 -35.5 -22t-19.5 -37q-8 -23 -2 -45q0 -2 1 -4q1 -1 1 -2h10q26 2 42 21t18 44zM174 224
q-43 -4 -93 15t-57 67q-1 35 18.5 65t54.5 38q2 1 4 1h8q38 0 77.5 -19t57.5 -53q14 -40 -7 -76q-22 -35 -63 -38zM174 327q2 22 -11 40q0 1 -1.5 2t-2.5 2q-21 -4 -35.5 -21t-19.5 -37q-8 -22 -2 -44q0 -2 1 -5q1 -1 1 -2h10q26 2 42 20.5t18 44.5z" />
    <glyph glyph-name="a-beng" unicode="&#x985;" horiz-adv-x="576" 
d="M473 412v0v0q0 4 11 3.5t26 -5t26.5 -11.5t11.5 -17v-378q0 -5 -11.5 -4t-26.5 5.5t-26 11.5t-11 16v126.5v126.5v126zM400 193v0v0q-4 2 -9 6.5t-5.5 8.5t7.5 7q12 2 27.5 -3.5t25.5 -12.5q88 -61 101 -166q0 -7 -11 -7.5t-25.5 4t-26 11.5t-12.5 14q-7 85 -72 138z
M402 280v0q22 -39 20.5 -82t-31.5 -77q-32 -33 -76 -43t-89 -4q-106 16 -203 65q-3 1 -10 5.5t-11 10t1 10.5q6 4 15.5 2.5t19 -5.5t15.5 -7q40 -20 91.5 -34.5t100 -7.5t81.5 49q42 68 2 138q-22 33 -56 51v-126q2 -14 3 -29q0 -7 -6 -8t-13.5 0t-12.5 3v0q-16 4 -29 13
q-2 1 -5 3t-6 5t-3 6v0q0 16 -4 32q-3 13 -11 24l-2 4q-2 5 2.5 6.5t11.5 0.5v111q-3 4 0 7v1q0 2 4 3t11 0q6 0 11 -2q13 -2 25.5 -8t19.5 -13q11 -6 22 -11q27 -13 52 -29q37 -26 60 -64zM137 379v0v0q-13 0 -28.5 6t-25.5 15q-15 18 7 18h301h150q13 0 28 -6.5t25 -14.5
q15 -18 -7 -18h-300h-150z" />
    <glyph glyph-name="aa-beng" unicode="&#x986;" horiz-adv-x="714" 
d="M472 412v0v0q0 4 11.5 3.5t26 -5t26 -11.5t11.5 -17v-378q0 -5 -11.5 -4t-26 5.5t-26 11.5t-11.5 16v126.5v126.5v126zM399 193v0v0q-4 2 -8.5 6.5t-5 8.5t7.5 7q12 2 27.5 -3.5t25.5 -12.5q87 -61 100 -166q0 -7 -10.5 -7.5t-25.5 4t-26 11.5t-13 14q-6 85 -72 138z
M402 280v0q22 -39 20.5 -82t-31.5 -77q-33 -33 -76.5 -43t-88.5 -4q-107 16 -203 65q-4 1 -10.5 5.5t-10.5 10t1 10.5q5 4 15 2.5t19.5 -5.5t14.5 -7q41 -20 92 -34.5t99.5 -7.5t81.5 49q43 68 3 138q-23 33 -57 51v-126q3 -14 3 -29q0 -7 -6 -8t-13.5 0t-11.5 3h-1
q-15 4 -28 13q-2 1 -5.5 3t-6 5t-3.5 6v0q0 16 -3 32q-4 13 -11 24q-1 2 -3 4q-2 5 2.5 6.5t11.5 0.5v111q-2 4 0 7v1q0 2 4.5 3t11.5 0q5 0 11 -2q13 -2 25.5 -8t18.5 -13q11 -6 22 -11q27 -13 52 -29q37 -26 61 -64zM611 412v0v0q0 4 11.5 3.5t26 -5t26 -11.5t11.5 -17
v-118.5v-119v-119v-118.5q0 -4 -11.5 -3.5t-26 5t-26 11.5t-11.5 17v118.5v119v119v118.5zM136 379v0v0q-13 0 -28 6t-25 15q-15 18 7 18h196.5h196.5h225q13 0 28 -6.5t25 -14.5q15 -18 -7 -18h-323.5h-294.5z" />
    <glyph glyph-name="i-beng" unicode="&#x987;" horiz-adv-x="325" 
d="M80 616v0v0q-10 7 -7 12t14 5q29 -2 53 -21q61 -45 116 -98q5 -4 9 -9q25 -21 44 -47.5t12 -60.5q-2 -6 -14 -5t-27 6.5t-25 13t-9 15.5q6 28 -12.5 51.5t-40.5 41.5q-5 6 -10 10q-49 46 -103 86zM256 322v0q30 -24 46.5 -57.5t0.5 -71.5q-15 -31 -42.5 -51t-58.5 -35
q-7 -4 -15 -8q-29 -13 -56.5 -33t-31.5 -49q-1 -16 9 -32t22 -29l6 -8q28 -35 60 -65q17 -17 -7 -18q-13 1 -28 6.5t-25 14.5q-34 32 -64 68q-3 3 -6 7q-27 29 -40 64q-8 33 15.5 57t50.5 38q16 9 33 17q38 18 70 44q28 23 38 57q8 37 -16 66q-38 47 -98 45h-4v-111
q3 -14 3 -28q0 -7 -6 -8.5t-13.5 0t-12.5 3.5v0q-15 4 -29 12q-1 1 -4.5 3.5t-6.5 5.5t-3 6q0 14 -3 29q-4 12 -12 23q0 1 -1 2q-5 8 0 10.5t13 1.5v90q0 4 11 3.5t25 -4.5q101 -3 180 -65zM21 379v0v0q-13 0 -28 6t-25 15q-15 18 7 18h330q13 0 28 -6.5t25 -14.5
q15 -18 -7 -18h-330z" />
    <glyph glyph-name="ii-beng" unicode="&#x988;" horiz-adv-x="397" 
d="M22 379v0v0q-13 0 -28 6t-25 15q-16 18 6 18h399q13 0 28 -6.5t25 -14.5q15 -18 -7 -18h-398zM147 608v0v0q-9 7 -6.5 12t13.5 5q29 -2 53 -21q61 -45 117 -98q4 -4 8 -9q25 -21 44 -47.5t12 -60.5q-2 -6 -14 -5t-27 6.5t-25 13t-9 15.5q6 28 -12 51.5t-40 41.5
q-6 6 -11 10q-49 46 -103 86zM396 -51v0q6 -6 2 -9t-11 -3h-11q-29 5 -50 25q-67 80 -72 185q-2 20 -1 40q-21 -17 -45 -31h-2v0q-6 -5 -12 -8q-49 -24 -103 -27q-29 0 -53 16q-3 1 -6.5 4.5t-6 7.5t-2 6.5t7.5 3.5q44 2 84 20t56 63q9 33 -0.5 65.5t-34.5 56.5v-86
q3 -14 3 -29q0 -7 -6 -8t-13.5 0.5t-11.5 2.5h-1q-15 4 -28 13q-2 1 -5.5 3.5t-6 5t-3.5 5.5v0q0 16 -3 32q-4 13 -11 25q-1 1 -2 3q-3 5 1.5 6.5t11.5 1.5v67q0 4 11 4q0 1 1 1q2 6 11 5.5t18 -3t13 -4.5q44 -18 80.5 -49.5t50.5 -75.5q19 23 37 47q9 14 19 27q7 7 23 4
q13 -2 27 -8.5t23.5 -14t6.5 -12.5q-63 -91 -53 -202q3 -48 18.5 -93.5t48.5 -82.5z" />
    <glyph glyph-name="u-beng" unicode="&#x989;" horiz-adv-x="471" 
d="M445 384q-12 0 -30 6q-34 11 -34 27l2 15q0 36 -54 80l-11 10q-49 45 -103 85q-7 6 -7 10q0 8 14 8q30 -3 53 -21q73 -55 125 -107q58 -51 58 -91q0 -8 -2 -15t-11 -7zM496 379h-475q-13 0 -28 6q-31 12 -31 27q0 6 13 6h475q13 0 28 -6q31 -14 31 -27q0 -6 -13 -6z
M301 19q-78 0 -166 36q-57 22 -112 50l-10 6q-13 7 -13 14q0 9 14 9q16 0 38 -13q123 -63 195 -63q29 0 58 11q75 37 75 118q0 40 -22 78q-26 -53 -43 -80q-37 -48 -94 -48q-8 0 -23 3.5t-29 11.5t-14 18v241q0 4 12 4q11 -1 25.5 -5.5t26 -12t11.5 -16.5v-177q11 11 19 25
q3 7 7 13q43 82 46 85q2 6 16 6q20 0 44 -17q72 -45 92 -127q3 -15 3 -29q0 -55 -40 -97q-50 -44 -116 -44z" />
    <glyph glyph-name="uu-beng" unicode="&#x98a;" horiz-adv-x="469" 
d="M215 607v0v0q-9 8 -6 13t13 5q30 -3 53 -21q62 -46 117 -99q4 -4 9 -8q24 -21 43 -48t13 -60q-3 -6 -15 -5t-26.5 6t-25 13t-8.5 16q5 28 -13 51.5t-40 41.5q-6 5 -11 10q-49 45 -103 85zM22 379v0v0q-13 0 -28 6t-25 15q-16 18 6 18h475q13 0 28 -6t25 -15
q15 -18 -7 -18h-474zM455 189v0q12 -73 -38 -126q-39 -36 -93 -42q-1 -1 -3 -1h-2h-3q-5 0 -11 -1q-62 -4 -124 6q-67 13 -130 39q-3 1 -9 4.5t-11.5 7.5t-3.5 9q2 4 8.5 3.5t13 -2.5t9.5 -3q26 -10 53 -19q-46 20 -88 42q-3 1 -10 5.5t-11 10t1 9.5q6 5 15.5 3.5t19 -5.5
t15.5 -7q51 -27 106 -47q33 -13 71.5 -16.5t74.5 10.5q60 29 72 86t-18 110q-1 -2 -3 -4q-6 -12 -12 -23q-5 -9 -9 -18q-9 -18 -20 -35q-34 -44 -89 -47q-9 -2 -25.5 2t-31 12t-14.5 18v241q0 4 11.5 3.5t26 -5t26 -12t11.5 -16.5v-176q11 10 19 24q3 7 7 13q22 42 45 83
q0 2 1 3q1 2 7 4q13 3 28 -2.5t25 -13.5q73 -45 93 -127z" />
    <glyph glyph-name="vocalicr-beng" unicode="&#x98b;" horiz-adv-x="534" 
d="M431 444v0v0q0 5 11.5 4t26 -5t26 -11.5t11.5 -16.5v-412q0 -4 -11.5 -3.5t-26 5t-26 12t-11.5 16.5v411zM307 213v0v0q-9 8 -6.5 13t13.5 5q29 -3 53 -21q46 -34 86.5 -76.5t52.5 -100.5q1 -7 -9.5 -7.5t-25 3.5t-26.5 11t-14 15q-11 52 -46.5 89.5t-77.5 68.5zM494 379
v0v0q-14 0 -29 6t-26 15q-1 1 -3 3.5t-3.5 5t-0.5 4.5q1 4 5.5 4.5t8.5 0.5v0h56q14 0 29 -6.5t25 -14.5l4 -4t3.5 -4.5t0.5 -5.5q-2 -3 -6 -4t-8 0h-1h-55zM361 24v0q1 -8 -14 -8q-87 -1 -167 32q-35 14 -68.5 40t-38.5 66q-1 37 25 64t55 45q32 23 66 43q14 8 27 17v0v1
q-3 17 -15 31q-9 -23 -27 -38q-15 -13 -35.5 -18.5t-40.5 -4.5q-24 2 -49 13t-43 29q-12 14 -13 31.5t6 35.5q2 6 14.5 5t27 -6.5t24.5 -13.5t9 -15q-3 -8 -5 -18t0 -20q3 1 5 1q23 7 41.5 28t11.5 46q-2 4 2 6q13 10 33.5 3t33.5 -15h2q26 -13 47 -33q1 -2 3 -3l8 -8v91
q0 5 11.5 4t26 -5t26 -11.5t11.5 -16.5v-398zM286 54v0v215q-22 -13 -43 -27l-6 -4q-24 -15 -47 -33.5t-35 -43.5q-12 -27 -0.5 -52t37.5 -37q44 -19 94 -18z" />
    <glyph glyph-name="e-beng" unicode="&#x98f;" horiz-adv-x="433" 
d="M405 12v0q4 -6 0 -8.5t-11 -2.5h-11q-28 5 -49 25q-54 54 -124 69t-143 -5q-13 -2 -28 3.5t-25 12.5q-5 3 -9.5 7.5t-5 8.5t7.5 6q82 22 166 6t156 -61v230q2 39 -31 57q-26 13 -53 19q-2 -30 -5 -61q-5 -34 -6 -69q3 -15 3 -29q0 -7 -6 -8.5t-13.5 0t-11.5 3.5h-1
q-15 4 -28 12q-2 1 -5.5 3.5t-6 5.5t-3.5 6v0q0 16 -3 32q-4 13 -11 24l-2 4q-3 5 2 6.5t13 0.5l4 38q4 35 5 70q0 3 4.5 3.5t11.5 -0.5q7 0 11 -1q75 -13 141 -49q33 -17 55 -46q13 -22 11 -47v0h1v-265z" />
    <glyph glyph-name="ai-beng" unicode="&#x990;" horiz-adv-x="562" 
d="M539 307v0q12 -30 6.5 -64t-24.5 -60q-41 -53 -108 -53q-4 0 -9 1v-119q5 -6 1 -8.5t-11 -2.5h-11q-29 5 -49 25q-55 54 -125 69t-143 -5q-12 -2 -27.5 3.5t-25.5 12.5q-4 3 -8.5 7.5t-5 8.5t6.5 6q82 22 166.5 6t156.5 -61v230q2 39 -32 57q-25 13 -53 19q-1 -30 -5 -61
q-4 -34 -5 -69q3 -15 3 -29q0 -7 -6 -8.5t-13.5 0t-12.5 3.5v0q-15 4 -29 12q-1 1 -4.5 3.5t-6.5 5.5t-3 6v0q0 16 -3 32q-4 13 -12 24l-2 4q-2 5 3 6.5t13 0.5q1 19 3 38q5 35 6 70q0 3 4.5 3.5t11.5 -0.5q6 0 11 -1q74 -13 140 -49q34 -17 56 -46q13 -22 11 -47v0v0v-99
q41 20 59 64.5t1 86.5q-12 22 -33 38l-1 1q-22 19 -45 37q-45 32 -94 58q-3 1 -10 5.5t-11 9.5t1 10q5 4 15 2.5t19.5 -5.5t14.5 -6q66 -34 125 -78l8 -6q25 -18 49 -39.5t37 -48.5z" />
    <glyph glyph-name="o-beng" unicode="&#x993;" horiz-adv-x="381" 
d="M365 117v0q5 -18 -2 -33.5t-21 -27.5q-72 -58 -157.5 -41t-159.5 60q-3 1 -9.5 6t-10 10.5t1.5 9.5t14 2t18 -6t15 -7q1 -1 2 -1q3 -2 5 -3q8 -4 16 -9q2 -1 4 -1h-2v0v0v0q1 0 2.5 -0.5t2.5 -0.5q1 -1 2 -1q6 -3 11 -5q14 -5 28 -9q64 -18 121 15q23 13 39 34.5t-1 47.5
q-12 14 -23.5 5.5t-20.5 -21.5q-4 -4 -7 -8q-5 -6 -18 -3.5t-27 9.5t-22.5 15t-5.5 13q12 18 26 34q17 20 30.5 42t14.5 50q0 19 -10 30t-24 20q-2 1 -3 2q-10 6 -19 13q-4 -21 -9 -42l-12 -58v-1v0q0 -16 -2 -32q-1 -5 -12.5 -3.5t-26 7t-25 13.5t-10.5 17l1 1q2 15 1 30
q-1 12 -6 23q-1 2 -2 5q-2 5 3 6.5t12 0.5q3 12 6 25l12 58q0 2 3 3q0 4 7 6q13 2 27.5 -5t24.5 -14q14 -10 28 -19q29 -19 57 -38q17 -11 32.5 -26.5t19.5 -36.5q4 -43 -19 -79l-4 -6q13 -6 25 -13q19 -11 35.5 -26.5t23.5 -36.5z" />
    <glyph glyph-name="au-beng" unicode="&#x994;" horiz-adv-x="442" 
d="M422 357v0q10 -32 2.5 -66t-28.5 -59q-40 -46 -101 -46q3 -2 7 -3q18 -11 35 -26.5t24 -36.5q5 -18 -1.5 -33.5t-20.5 -27.5q-72 -59 -157.5 -43t-159.5 58q-3 2 -9.5 6.5t-10.5 10t1 10.5q6 4 15 2t18 -6t15 -7q4 -3 7 -4q8 -4 19 -9t17 -7q13 -6 28 -9q64 -18 121 16
q22 13 38 34.5t-1 47.5q-12 15 -23.5 6t-20.5 -22q-4 -5 -6 -8q-6 -6 -19 -3.5t-27 9t-22.5 14.5t-5.5 13q11 18 25 34q17 20 30.5 42.5t14.5 50.5q-1 19 -11 30t-24 19q-2 1 -3 2q-5 4 -10 7t-9 6q-4 -21 -9 -42q-6 -29 -11 -58v-1v0q0 -16 -2 -32q-1 -5 -12.5 -3.5
t-26 6.5t-25 13t-10.5 17v1q3 15 2 30q-2 12 -7 23q-1 3 -2 5q-2 5 3 6.5t13 0.5q2 13 5 25q6 29 11 59q0 2 3 3q0 4 7 6q13 2 27.5 -5t25.5 -14q14 -9 28 -19q28 -18 57 -37q17 -11 32.5 -26t20.5 -37q3 -18 -2 -37q34 23 49 62.5t2 77.5q-9 20 -27 37.5t-37 31.5
q-6 5 -11 10q-44 35 -92 63q-3 2 -10 6.5t-10.5 10t1.5 10.5q6 4 15.5 2t19 -6.5t14.5 -7.5q66 -38 124 -87l8 -6q23 -19 45 -41t34 -49z" />
    <glyph glyph-name="ka-beng" unicode="&#x995;" horiz-adv-x="482" 
d="M237 37v269q-74 -58 -95 -79q-42 -42 -42 -86q0 -49 43 -80q41 -24 90 -24h4zM218 379h-196q-13 0 -28 6q-32 12 -32 27q0 6 13 6h481q13 0 28 -6q32 -14 32 -27q0 -6 -13 -6h-175q17 -6 33 -14q108 -49 108 -111q0 -24 -12 -45q15 -9 15 -16q0 -2 -3 -4q-9 -5 -14 -14
q-18 -21 -44 -21q-13 0 -43 12q-25 10 -25 19l1 3q50 52 50 89q0 14 -6 27.5t-17.5 22t-23.5 14.5l-2 1q-16 9 -32 12v-349q0 -6 -14 -6h-4q-91 0 -173 41q-91 45 -98 122q0 40 24 71q32 43 121 109q25 18 49 37z" />
    <glyph glyph-name="kha-beng" unicode="&#x996;" horiz-adv-x="412" 
d="M441 397v0q2 -1 4 -3.5t3.5 -5t0.5 -4.5q-2 -4 -6.5 -4.5t-7.5 -0.5h-1h-50v-188.5v-189.5q0 -3 -6 -3q-4 -1 -9 -1t-8 1q-96 18 -180 68q-40 23 -75 54q-9 8 -18 18t-10 20.5t13 20.5q17 10 35 20q28 14 51.5 32.5t32.5 51.5q9 42 -15 78q-12 18 -28 24q4 -17 5 -35
q3 -27 -4 -53q-11 -27 -34 -36t-50 -5q-30 2 -54 21q-8 7 -6.5 12.5t13.5 4.5q44 -4 56 38q6 23 2 47v4q0 19 -9 35q-4 7 -0.5 9.5t10 3t11.5 -0.5q49 -10 94.5 -30.5t72.5 -64.5q39 -84 -31 -144q-28 -21 -59 -36q-5 -2 -10 -5q-1 -1 -3 -2q-9 -4 -14.5 -9.5t2.5 -14.5
q13 -15 30 -26q1 -1 3 -2q52 -39 116 -56v417q0 4 11.5 3.5t26.5 -5t26.5 -12t11.5 -16.5v-9h4q13 0 28 -6.5t25 -14.5z" />
    <glyph glyph-name="ga-beng" unicode="&#x997;" horiz-adv-x="400" 
d="M373 379v0v0q-14 0 -29 6t-26 15q-2 1 -4 3.5t-3.5 5t-0.5 5.5q2 3 6.5 3.5t7.5 0.5h1h66q14 0 29 -6.5t26 -14.5q1 -2 3.5 -4t3.5 -4.5t1 -5.5q-2 -3 -6.5 -4t-7.5 0h-1h-66zM297 453v0q0 5 11 4t26 -5t26.5 -11.5t11.5 -16.5v-422q0 -4 -11.5 -3.5t-26.5 5t-26 12
t-11 16.5v161q-1 1 -1 2q0 48 -13.5 95.5t-53.5 77.5q-2 2 -5.5 4t-6.5 3q-1 0 -1.5 0.5l-0.5 0.5h-2h-1q-8 0 -14 -4t-11 -9l-6 -6q-24 -22 -47 -45q9 -1 18 -3q26 -5 52.5 -18.5t38.5 -37.5q9 -22 -0.5 -45t-23.5 -40q-28 -35 -72 -42q-14 -1 -28.5 4t-25.5 12q-3 2 -8 7
t-6 9.5t7 5.5q30 5 51.5 27t30.5 50q6 16 1 33q-27 0 -53 -2q-12 -1 -24 -1q-23 -1 -44 11q-2 0 -6 2.5t-9 6t-7.5 7.5t-0.5 6q24 28 50 54q5 6 11 12q21 23 45 39q26 13 60 3.5t58 -22.5q26 -13 48 -31v94z" />
    <glyph glyph-name="gha-beng" unicode="&#x998;" horiz-adv-x="381" 
d="M20 379v0v0q-13 0 -28 6t-25 15q-15 18 7 18h373q13 0 28 -6.5t25 -14.5q15 -18 -7 -18h-165h-82h-126zM278 409v0q0 4 11.5 3.5t26 -5t26 -12t11.5 -16.5v-376q0 -4 -11 -4h-3q-81 -2 -158 22q-39 13 -76.5 36.5t-56.5 61.5q-12 29 -3 57t32 48l8 6q-45 29 -60 77
q-6 38 21 73t66 37q14 0 28.5 -6t24.5 -15q16 -16 -7 -17q-7 -1 -15.5 -7.5t-15.5 -14.5t-11 -14q-18 -23 -17 -53q4 -21 17 -37q8 5 15 11l2 2q15 12 31 23q7 5 20.5 1.5t26.5 -10.5t20.5 -14.5t2.5 -11.5q-19 -14 -38 -29l-30 -22q-44 -26 -49 -76q0 -28 18.5 -48
t44.5 -29q48 -14 98 -12v371z" />
    <glyph glyph-name="nga-beng" unicode="&#x999;" horiz-adv-x="456" 
d="M406 239v0q20 -14 28 -36t8 -45q-2 -101 -94 -141q-119 -41 -228 22q-88 54 -120 152q-1 5 3 6.5t10 1.5t11.5 -1.5t8.5 -1.5q10 -3 24 -9.5t18 -17.5q20 -67 73 -111q24 -18 54 -19t60 8q67 17 95 80q8 22 9 46q-10 -24 -28 -45q-25 -24 -58 -27t-65 6q-26 5 -48 21
q-7 6 -9.5 13t-2.5 17q-1 27 -1 55q0 14 -1 27v8v3q-46 10 -82 42q-48 45 -33 110q2 5 14 4.5t27 -6t25.5 -13t8.5 -15.5q-4 -17 -2.5 -36.5t10.5 -35.5q1 -2 3 -3q2 -4 5 -7.5t7 -5.5q2 -1 5 -2t4 -1h1h3.5t2.5 -1h1q-1 19 -1 38q-2 32 15 60q20 27 49 25.5t57 -12.5
q30 -11 55 -30q10 -7 19 -16.5t10 -22.5q1 -26 -17.5 -43t-41.5 -26q-34 -13 -70 -13v-7q1 -15 1 -29v-23t1 -22q0 -3 -1 -9v-11v0q1 1 2 1q22 6 37 23q15 19 24 41t23 40q19 18 45.5 12.5t45.5 -18.5zM266 367v0h-1h1v0zM262 368v0v0v0v0v0v0v0zM250 358v0
q-13 -11 -18 -27.5t-5 -32.5v-8v-1l18 8q26 13 36 40q3 11 -3 20q-3 3 -7 6q-2 1 -3 2h-1v0q-1 1 -3 2l-2 -2q-3 -1 -5 -2q-4 -2 -7 -5z" />
    <glyph glyph-name="ca-beng" unicode="&#x99a;" horiz-adv-x="340" 
d="M21 379h10v0q-23 0 -38 6t-25 15q-16 18 7 18h203h171q13 0 28 -6.5t25 -14.5q15 -18 -7 -18h-152h-76h-146zM260 297v0q26 -18 47.5 -45.5t17.5 -61.5q-3 -15 -13 -26.5t-21 -21.5h-1q-25 -24 -53 -46q-53 -43 -117 -66q-11 -3 -23 0q-12 1 -26 5.5t-24.5 11.5t-10.5 16
v347q0 5 11 4t26 -5t26 -11.5t12 -16.5q8 -4 13 -6q71 -34 136 -78zM242 200v0q16 28 1.5 54t-38.5 42q-45 31 -94 55v-258q23 13 45 29q23 18 45 37q4 4 8 7q19 15 33 34z" />
    <glyph glyph-name="cha-beng" unicode="&#x99b;" horiz-adv-x="329" 
d="M21 379h13v0q-26 0 -41 6t-25 15q-15 18 7 18h332q13 0 28 -6.5t25 -14.5q15 -18 -7 -18h-332zM277 -84v0q4 -3 9 -7t5.5 -8.5t-7.5 -6.5q-13 -3 -28 3t-25 13q-21 13 -43 27q-69 40 -128 91q-15 13 -29 32t-3 39q9 14 27.5 18.5t36.5 6.5q8 1 14 2q45 5 85 26.5t47 71.5
q-10 -7 -20 -12q-3 -2 -6 -3q-48 -26 -101 -41q-5 -4 -23 -0.5t-35 12t-17 19.5v214q0 4 11.5 3.5t26.5 -5t26.5 -12t11.5 -16.5v-21q8 -2 15 -5t11 -6q15 -7 29 -14l58 -30q12 -6 23 -12q14 -6 21 -13q12 -9 23 -21q22 -26 21.5 -59t-22.5 -60q-26 -29 -61.5 -40t-73.5 -16
q-4 -1 -9 -1q-15 -1 -31 -6t-17 -21q2 -15 14.5 -27.5t24.5 -21.5l6 -4q45 -34 95 -64q19 -12 38 -25zM136 241v0l8 4q16 7 32.5 18.5t20.5 27.5l-58 30q-14 6 -27 13v-105q12 5 24 12z" />
    <glyph glyph-name="ja-beng" unicode="&#x99c;" horiz-adv-x="534" 
d="M538 -42q-16 0 -38 13q-91 49 -107 152l-1 30q0 69 30 134q-46 2 -90 16q-68 19 -103 54q-32 -28 -52.5 -67t-20.5 -77q0 -21 8 -37q3 1 5 3q9 4 16 10q32 22 51 55q11 28 33 28q7 0 20 -3q43 -12 68 -43q22 -31 22 -65q0 -15 -4 -31q-13 -44 -50 -67t-80.5 -29.5
t-77.5 -6.5q-52 0 -93 18t-43 19t-16.5 10.5t-14.5 15.5t10 6q17 0 33 -8q46 -20 98 -20q45 0 87.5 16t63.5 56q11 22 11 47l-1 11q-46 -63 -104 -63q-29 0 -63 18q-56 28 -56 91q0 19 7 39q17 52 58 96h-122q-13 0 -28 6q-32 12 -32 27q0 6 13 6h550q13 0 28 -6
q32 -14 32 -27q0 -6 -13 -6h-290q11 -54 90 -54q42 0 78 12l7 1q17 0 38 -12l10 -5q14 -8 14 -16l-1 -2q-49 -88 -51 -187q2 -35 16.5 -72.5t45.5 -56.5q24 -12 24 -20q0 -9 -15 -9z" />
    <glyph glyph-name="jha-beng" unicode="&#x99d;" horiz-adv-x="470" 
d="M107 190q-12 -29 -2 -56.5t36 -44.5q45 -23 97 -21v240q-22 -14 -42 -29l-4 -2q-25 -17 -48.5 -38t-36.5 -49zM219 379h-197q-13 0 -28.5 6t-25.5 15q-15 18 7 18h277q13 0 28 -6l8 -4q7 -3 14 -7q11 -8 11 -17v-156q28 -25 54 -53v234q-1 2 0 4v40q0 4 11.5 3.5t26.5 -5
t26 -12t11 -16.5v-5q11 -1 23 -6q14 -7 25 -15q1 -2 3 -4t3.5 -4.5t0.5 -4.5q-2 -4 -6 -4.5t-7 -0.5h-42v-321q1 -1 1 -3q0 -6 -10.5 -6.5t-25 3.5t-26.5 10.5t-14 14.5q-12 49 -48 86q-3 4 -6 7v-135q0 -1 -2 -2q-3 -4 -12 -4q-92 0 -175 38q-36 16 -66.5 45t-33.5 70
q0 38 26 66.5t55 50.5q32 24 65 46q25 17 49 34z" />
    <glyph glyph-name="nya-beng" unicode="&#x99e;" horiz-adv-x="590" 
d="M572 128q12 -38 -12.5 -59t-59.5 -23q-45 0 -87 18q-30 12 -56 31v-85q0 -1 -1 -2q-1 -2 -6 -3q-13 -3 -28 3t-25 13q-108 71 -237 74q-14 1 -28.5 6.5t-24.5 14.5q-16 16 7 17q142 -5 268 -70v149q-1 2 0 5v86q2 39 -32 58q-25 13 -53 19v-142q3 -14 3 -29q0 -7 -6 -8
t-13.5 0.5t-11.5 2.5h-1q-15 4 -29 13q-1 1 -4.5 3.5t-6.5 5.5t-3 5v1q0 16 -3 31q-4 14 -12 25l-2 4q-2 4 2.5 5.5t11.5 1.5v119q0 2 4.5 3t11.5 0q7 0 12 -1q74 -13 140 -49q34 -17 56 -46q7 -11 9 -23l1 1q1 1 3 1q63 28 128 4q29 -9 54 -30t20 -54q-10 -32 -39 -43
q35 -17 50 -53zM500 122q4 26 -13 45h-1q-1 1 -2 1h-2h-1q-10 2 -21 2h-4q-28 3 -50 19q-3 2 -7 6.5t-4 8.5t8 5q22 0 43 5t34 25q10 17 4 36q-1 3 -3 6q-44 0 -76 -27t-48 -67v-2l1 -1q3 -7 7 -14q12 -30 30 -56q5 -6 10.5 -12t13 -10t11.5 -5.5t9 -1.5q18 -2 37 8.5
t24 28.5z" />
    <glyph glyph-name="tta-beng" unicode="&#x99f;" horiz-adv-x="391" 
d="M333 385q-12 0 -29 6q-35 12 -35 28l2 15q0 35 -54 79l-11 10q-49 46 -103 86q-8 6 -8 11q0 7 15 7q51 -5 175 -124q61 -56 61 -98q0 -7 -2 -13.5t-11 -6.5zM423 379h-402q-13 0 -28 6q-31 12 -31 27q0 6 13 6h402q13 0 28 -6q31 -14 31 -27q0 -6 -13 -6zM128 15h-8
q-50 0 -79 35q-5 6 -5 12v349q0 4 12 4q11 -1 25.5 -5.5t26 -12t11.5 -16.5v-317q144 46 176 142q4 12 4 24q0 28 -20 45l-21 14q-2 -8 -2 -19q-2 -22 -6 -39q-18 -75 -39 -75q-14 0 -31 7q-32 13 -32 25l1 3q17 33 17 70l-1 15q0 8 14 8l1 1v2q1 6 1 13.5t1 15t6.5 14
t17.5 6.5q28 0 96 -39q73 -37 73 -93q0 -45 -42 -90q-54 -55 -129 -80l-5 -2q-31 -13 -63 -17z" />
    <glyph glyph-name="ttha-beng" unicode="&#x9a0;" horiz-adv-x="391" 
d="M21 379q-13 0 -28 6t-25 15q-15 18 7 18h397q13 0 28 -6t25 -15q15 -18 -7 -18h-397zM369 249q10 -44 7.5 -92t-25.5 -88q-26 -42 -71.5 -51.5t-91.5 0.5q-50 9 -95 34.5t-69 72.5q-1 2 0 4t3.5 2.5t3.5 1.5q100 22 156 108q31 40 30 89q-2 20 -7 39q-2 8 -6 14
q-3 4 -4 5q-6 2 -13 6t-11.5 9t-3.5 10q3 5 10 5t16 -2q-7 13 -16 24q-10 11 -21 21q-18 15 -31 36q-36 67 3 133q5 6 18 4.5t27.5 -8t23.5 -14t6 -12.5q-19 -29 -20 -64.5t20 -64.5q11 -14 25 -26t26 -27q2 -3 4 -7q13 -5 23 -14q64 -61 83 -148zM294 144q15 67 -1 135
q-6 -26 -20 -50q-57 -103 -171 -132q34 -54 99 -45q77 14 93 92z" />
    <glyph glyph-name="dda-beng" unicode="&#x9a1;" horiz-adv-x="476" 
d="M21 379q-13 0 -28 6t-25 16q-15 17 7 17h488q13 0 27.5 -6t24.5 -15q15 -18 -7 -18h-487zM459 187q13 -74 -38 -128q-55 -48 -129 -44q-80 4 -155 37q-58 22 -114 50q-3 1 -10 5.5t-11 10t1 9.5q5 5 15.5 3.5t20 -5.5t14.5 -7q51 -26 106 -46q35 -13 73.5 -17t74.5 11
q61 29 73.5 86.5t-18.5 110.5l-2 -4q-6 -12 -13 -23q-5 -9 -9 -18q-8 -18 -19 -36q-35 -44 -91 -48q-9 -1 -25.5 3t-31.5 12t-15 18v243q0 4 12 3.5t27 -5t26 -11.5t11 -17v-178q11 11 19 25q4 7 7 13q23 42 45 84l2 2q1 4 8 5q12 3 27.5 -3t25.5 -13q72 -46 93 -128z" />
    <glyph glyph-name="ddha-beng" unicode="&#x9a2;" horiz-adv-x="381" 
d="M21 379q-13 0 -28 6t-25 15q-15 18 7 18h392q13 0 28 -6.5t25 -14.5q15 -18 -7 -18h-392zM351 251q23 -34 12 -71.5t-37 -65.5q-55 -55 -130 -80q-2 -1 -5 -2q-30 -13 -63 -17q-23 -2 -47.5 7.5t-38.5 27.5q-6 6 -6 12v349q0 4 11.5 3.5t26 -5t26 -12t11.5 -16.5v-317h1
q28 9 54 22q55 24 93 68q18 22 28 51.5t-4 55.5q-5 8 -12.5 14t-14.5 10l-6 4q-1 -8 -1 -16q0 -4 -1 -6q-1 -19 -6 -36q-8 -37 -26 -70q-4 -6 -16.5 -5t-27 7t-24 14t-7.5 14q20 40 16 85q0 8 15 8v3q1 6 1 12q0 9 1 16.5t5 13.5q9 9 25 6.5t26 -6.5q33 -14 64 -32
q33 -17 57 -46z" />
    <glyph glyph-name="nna-beng" unicode="&#x9a3;" horiz-adv-x="399" 
d="M419 397q1 -1 3.5 -3t3.5 -5t0 -6t-5.5 -3.5t-7.5 -0.5h-42v-384q0 -4 -11.5 -3.5t-26.5 5t-26.5 12t-11.5 16.5v218q-5 55 -40 97q-15 19 -37 32q-16 9 -34 2h-6q-44 -14 -63.5 -57.5t-10.5 -86.5q4 -18 14 -33q5 0 10 1q13 6 20.5 21.5t9.5 33.5q-3 18 -5 36
q0 8 14.5 7.5t31.5 -7.5t26 -16q10 -6 11 -13q1 -16 -1 -30q3 -20 8 -40q1 -6 -2.5 -8t-9.5 -1.5t-11 1.5q-13 -22 -40 -24q-38 -5 -76.5 10t-60.5 47q-34 58 -8.5 122t93.5 78h2q43 7 87.5 -11.5t77.5 -46.5v92q0 4 11.5 3.5t26.5 -5t26.5 -11.5t11.5 -16v-2q28 -4 48 -21z
" />
    <glyph glyph-name="ta-beng" unicode="&#x9a4;" horiz-adv-x="353" 
d="M386 397v0q16 -18 -7 -18h-188q6 -3 12 -7q23 -11 44 -24q34 -23 58 -56q49 -67 27 -146q-30 -72 -107 -90q-93 -16 -182 20q-1 0 -2 1q-5 1 -15 5t-18 9.5t-8 11.5q-1 7 5.5 8.5t14.5 0t12 -3.5q69 -29 140 -12q64 22 85 85q18 71 -26 129q-19 25 -46 39v-116
q3 -16 3 -31q0 -7 -6 -8.5t-14 0t-12 3.5q-16 4 -29 12q-2 1 -5.5 3.5t-6 5.5t-3.5 6v0q0 17 -3 34q-4 15 -12 27l-2 4q-2 5 2.5 6.5t11.5 0.5v83h-87q-14 0 -29 6t-25 15q-16 18 7 18h357q13 0 28.5 -6.5t25.5 -14.5z" />
    <glyph glyph-name="tha-beng" unicode="&#x9a5;" horiz-adv-x="369" 
d="M325 -5h-23q-95 0 -182 40q-61 32 -82 67q-9 14 -9 28q0 25 26 49q7 7 47 39q60 39 61 87q0 35 -22 67h-1q-34 -15 -38 -57q-2 -16 -2 -42q-1 -8 -16 -8q-24 0 -48 15q-12 8 -12 17q0 30 2.5 50.5t17.5 40.5q24 25 56 25q10 0 20 -2q93 -18 118 -109q2 -11 2 -20
q0 -54 -66.5 -98.5t-66.5 -79.5q0 -20 21 -37q28 -24 65 -29q27 -4 72 -4v423q0 3 8 3q15 0 30 -4q38 -13 38 -29v-9q28 0 57 -21l4 -3q4 -6 4 -8l-1 -2q-1 -5 -13 -5h-51v-380q0 -4 -16 -4z" />
    <glyph glyph-name="da-beng" unicode="&#x9a6;" horiz-adv-x="365" 
d="M327 -21q-28 0 -52 15q-21 12 -21 133q0 30 2 59q-64 -52 -139 -84q-5 -2 -11 -2q-13 0 -28 6q-42 13 -42 30v243h-14q-13 0 -28.5 6t-24 14t-8.5 13q0 6 14 6h359q14 0 29 -6q32 -13 32 -27q0 -6 -13 -6h-270q1 -2 1 -207q35 22 67 47q56 49 89 115q3 5 6.5 10.5
t13.5 5.5q5 0 17.5 -2.5t28.5 -12t16 -20.5v-1q-20 -103 -20 -207q0 -60 7 -120q0 -8 -11 -8z" />
    <glyph glyph-name="dha-beng" unicode="&#x9a7;" horiz-adv-x="345" 
d="M363 397l3 -3t3.5 -5.5t0.5 -5.5q-1 -3 -5.5 -4t-7.5 0h-56q-13 0 -28 6.5t-25 15.5q-2 1 -4 3t-3.5 4.5t-0.5 5.5q2 3 6.5 3.5t7.5 0.5h56q13 0 27.5 -6t25.5 -15zM316 6q4 -10 -14 -11q-95 0 -182 42q-38 18 -67 50.5t-29 76.5q3 40 29 69.5t57 52.5q-8 3 -14 5
q-26 9 -48 26.5t-23 47.5q2 28 19 52.5t36 44.5l6 6q7 6 20.5 4t27 -9t22.5 -14t6 -11q-6 -6 -12 -13q-7 -15 -6 -32q0 -2 -3 -3.5t-6 -1.5h-5h-1q-3 0 -6 2q-8 -13 -14 -25q-11 -19 -5 -39q0 -2 1 -4l2 -4h7q10 0 21 3q18 4 36 13q1 0 2 1h1q33 23 65 48v31q0 4 11.5 3.5
t26.5 -5t27 -11.5t12 -18v-377zM110 174q-16 -32 -6.5 -63.5t38.5 -52.5q43 -26 97 -24v262q-18 -15 -38 -29q-1 0 -2 -1q-26 -19 -50 -41t-39 -51z" />
    <glyph glyph-name="na-beng" unicode="&#x9a8;" horiz-adv-x="364" 
d="M21 379q-13 0 -28 6.5t-25 15.5q-15 17 7 17h384q13 0 28 -6t25 -15q15 -18 -7 -18h-384zM336 -1q0 -5 -12 -4t-27 5.5t-26.5 11.5t-11.5 16v43q0 44 -20.5 76.5t-49.5 63.5q-23 24 -51 45q9 -85 -38 -158q-5 -6 -18 -4.5t-27.5 8t-23.5 14t-6 12.5l10 18q6 12 8.5 28
t-8.5 26q-9 7 -6 12t13 5q9 0 17 -3q11 55 -7 111q-1 5 3.5 6.5t10.5 1t9 -0.5q25 -5 45 -20q23 -18 46 -35q49 -36 93 -79v210q0 5 11.5 4t26.5 -5t27 -12t12 -17v-379z" />
    <glyph glyph-name="pa-beng" unicode="&#x9aa;" horiz-adv-x="475" 
d="M372 415q0 4 11.5 3.5t26 -5t26 -12t11.5 -17.5v-385q0 -5 -11.5 -4t-26 5t-26 11.5t-11.5 16.5v387zM441 278q5 -7 1 -10q-4 -2 -10.5 -2h-10.5q-14 3 -27.5 9t-23.5 17l-14 16h-1l-5 5h-1q-4 -4 -8 -10t-7 -12q-2 -5 -4 -8q-9 -16 -18 -33q-39 -74 -73 -150
q-4 -8 -22 -4.5t-35 13t-19 17.5v14q2 52 -15 99q-1 1 -2 3h-1q-25 -4 -45 -20q-2 -3 -7 -4q-8 -2 -19 1q-20 5 -35.5 14.5t-14.5 19.5q16 54 51.5 100.5t91.5 60.5q42 7 82.5 -5.5t75.5 -34.5q59 -34 105 -84q6 -6 11 -12zM212 236q22 45 49 88l4 8q6 8 11 16t10 15
q-1 0 -2 1q-2 1 -3 2q-12 5 -18 7l-1 1q-5 1 -9 2t-11 1q-11 0 -18 -2.5t-18 -7.5q-55 -29 -83 -87q39 -6 72 -28q10 -7 17 -16zM440 379q-14 0 -28.5 6.5t-25.5 15.5l-3 3t-3.5 4.5t-0.5 5.5t5.5 3.5t7.5 0.5h52q14 0 29 -6t25 -15q2 -1 4 -3t3.5 -5.5t0.5 -5.5
q-2 -3 -6 -4t-8 0h-52z" />
    <glyph glyph-name="pha-beng" unicode="&#x9ab;" horiz-adv-x="527" 
d="M536 379h-519q-13 0 -26 6.5t-21.5 14.5t-8.5 12q0 6 14 6h515q13 0 28 -6q31 -12 31 -27q0 -6 -13 -6zM341 -4h-9q-16 0 -30 8l-32 11q-60 19 -129 52q-116 55 -116 92q0 29 45 46q30 14 55 32q30 22 30 47q0 10 -10 23q-28 37 -94 62q-4 1 -12 6q-21 11 -21 19v3
q3 6 12 6q8 -1 17 -4t14 -4q47 -19 90 -47q38 -22 66 -55q14 -17 14 -35q0 -15 -10 -31q-32 -36 -77 -56q-40 -16 -42 -38q1 -8 7 -13q21 -22 164 -77q0 293 0.5 294.5t4.5 4.5t12 3t23 -6q38 -16 97 -56q45 -25 72 -51q17 -23 17 -50q0 -10 -2 -21q15 -8 15 -15
q0 -4 -30 -34l-27 -28q-4 -4 -11 -4q-13 0 -33 12q-29 16 -29 23v2q39 41 40 95q0 31 -29 45q-9 8 -43 28h-1v-285q0 -4 -8 -4z" />
    <glyph glyph-name="ba-beng" unicode="&#x9ac;" horiz-adv-x="342" 
d="M314 5q1 -8 -14 -8q-95 -1 -180 41q-38 18 -67 49t-29 75q3 40 30.5 70t58.5 52q30 23 61 44q33 22 64 46v34q0 4 11.5 3.5t26 -5t26.5 -12t12 -16.5v-373zM110 171q-16 -31 -6.5 -61.5t37.5 -50.5q44 -25 97 -23v253q-19 -13 -37 -26q-26 -19 -51 -41t-40 -51zM21 379
q-13 0 -28 6t-25 15q-16 18 7 18h333q13 0 28 -6t25 -15q15 -18 -7 -18h-333z" />
    <glyph glyph-name="bha-beng" unicode="&#x9ad;" horiz-adv-x="416" 
d="M22 379q-13 0 -28.5 6.5t-25.5 15.5q-15 17 7 17h419q13 0 28.5 -6t25.5 -15q15 -18 -7 -18h-419zM305 299q41 -21 71.5 -52t23.5 -81q-8 -45 -33 -83q-26 -33 -68 -43q-78 -21 -158 0q-67 15 -128 47q-4 3 -8.5 7.5t-5 8.5t7.5 7q12 2 25.5 -3t36 -15t35 -13.5
t21.5 -5.5q52 -13 109 3q34 10 56 37q19 29 28 62q13 31 3 61q-9 -43 -38 -73q-24 -20 -58.5 -18t-60.5 13q-29 12 -52 34q-10 9 -19 22t-13 26q-1 10 3.5 22t10.5 23q3 8 6 14l4 10q8 25 26 43q6 5 18 2.5t23.5 -8t16.5 -8.5q10 -6 17 -14t8 -19q0 -26 -12 -48
q-2 -5 -11 -5t-20 3l-10 -24q-2 -7 -2.5 -11.5t2.5 -11.5q5 -9 11 -17l4 -4h2q10 -3 20 2q19 9 30 29q22 41 25 88q1 5 8.5 5t17.5 -2.5t17.5 -5.5t9.5 -4z" />
    <glyph glyph-name="ma-beng" unicode="&#x9ae;" horiz-adv-x="381" 
d="M411 397v0q15 -18 -7 -18h-51v0v0v-379q0 -4 -11.5 -3.5t-26.5 5t-26.5 12t-11.5 16.5v4q-11 44 -46 77q-4 -20 -26 -36q-26 -17 -57 -13t-57 18q-53 25 -65 81q-3 11 -2 25t12 20q11 5 25 5.5t26 -0.5q37 -4 72 -18q-2 17 -6 33q-8 26 -27.5 44t-42.5 33q-18 12 -34 25
q-26 21 -22 51h-11q-6 0 -21.5 6t-25.5 15q-15 18 7 18h52h329q13 0 28.5 -6t25.5 -15zM110 100v0h1h-1zM159 149v0v14v0h-1q-14 8 -30 10q-12 1 -19.5 -1.5t-8.5 -15.5q-2 -22 8 -43q3 -5 6 -9l2 -2h2q3 1 6.5 2t4.5 1q9 5 17 13q12 13 13 31zM233 152v0q23 -14 44 -32v259
h-157q-9 -3 -13.5 -13.5t-5.5 -17.5q-1 -12 5 -19.5t16 -13.5q47 -29 84 -70q29 -41 27 -92v-1z" />
    <glyph glyph-name="ya-beng" unicode="&#x9af;" horiz-adv-x="353" 
d="M21 379q-13 0 -28 6.5t-25 15.5q-15 17 7 17h342q13 0 29 -6t26 -15q15 -18 -7 -18h-344zM324 1q0 -1 -1 -2q-2 -5 -13 -4q-91 11 -172 54q-38 21 -72 49q-14 11 -27 25t-15 32q-1 18 9.5 31t24.5 23l1 1q36 27 65 63q22 35 -12 61q-35 27 -75 50q-4 2 -8.5 7t-5 9.5
t7.5 6.5q13 3 28 -3t26 -13q37 -23 73 -49q30 -19 48 -49q7 -18 2.5 -32t-15.5 -27q-26 -29 -57 -54q-3 -3 -6 -5q-13 -9 -22.5 -21t-6.5 -28q4 -14 15.5 -24t23.5 -19q2 -1 3 -2q48 -33 104 -45v372q0 5 12 4t27 -5t26.5 -12t11.5 -17v-377z" />
    <glyph glyph-name="ra-beng" unicode="&#x9b0;" horiz-adv-x="344" 
d="M363 397q15 -18 -7 -18h-40v-376q1 -8 -14 -8q-96 -1 -181 42q-37 18 -67 49t-30 76q3 39 31 69.5t59 52.5q29 23 62 44q32 22 63 47v4h-218q-13 0 -28 6t-25 15q-15 18 7 18h335q12 0 27.5 -6.5t25.5 -14.5zM110 171q-15 -31 -5.5 -62t37.5 -51q45 -25 97 -23v253
q-18 -12 -37 -26q-26 -19 -51 -41t-41 -50zM174 -15v0q4 -3 3 -7q-2 -4 -7 -8t-10 -7t-8 -4q-9 -4 -24 -9q-15 -4 -25 1q-32 20 -70 24q-9 1 -8 6q1 4 6 9t9 7q25 16 54 15q43 -4 80 -27z" />
    <glyph glyph-name="la-beng" unicode="&#x9b2;" horiz-adv-x="438" 
d="M453 379h-431q-12 0 -28 7q-32 13 -32 26q0 6 13 6h430q13 0 29 -6q32 -13 32 -27q0 -6 -13 -6zM403 -6q-14 0 -29 5q-38 11 -38 29v52q-4 77 -46 140q-3 -20 -28 -120v-4q0 -28 -18 -28q-5 0 -17.5 2t-29.5 12t-17 21l5 23q-4 26 -25 57q-23 38 -31 49q0 -61 -27 -143
q-3 -5 -12 -5q-14 0 -31 7q-33 12 -33 26l8 31q1 7 1 16t-2.5 15.5t-6 10.5t-6 7.5t-2.5 5.5q0 7 12 7q8 0 17 -3l1 4q6 37 6 72l-1 16h-1q-9 9 -9 13q0 6 14 7q45 -1 79.5 -28.5t70.5 -83.5q10 33 10 67q0 17 -3 35v2q0 4 4 5.5t10 1.5l8 -1q45 -9 100 -75v162q0 4 8 4
q11 0 30 -5q37 -10 37 -28v-377q0 -4 -8 -4z" />
    <glyph glyph-name="sha-beng" unicode="&#x9b6;" horiz-adv-x="404" 
d="M425 396q1 -1 3.5 -3t3.5 -4.5t0 -5.5t-5.5 -3.5t-7.5 -0.5h-42v-380q0 -5 -11.5 -4t-26 5t-26.5 12t-12 17v233q-5 59 -50 100q-21 -44 -41 -87q4 -2 7 -4q11 -7 22 -16.5t18 -21.5q4 -9 2.5 -16.5t-5.5 -15.5q-2 -6 -5 -12q-3 -13 -9 -18t-21 -4q-39 6 -66 33
q-4 3 -9 7q-6 -10 -13 -20l-2 -2q-6 -11 -14 -18.5t-20 -10.5q-10 -1 -21 2t-20 7l-10 5t-11.5 7t-6.5 9q-4 50 0 101q1 7 11.5 6t24 -6.5t25.5 -11.5q11 30 3 61q-3 11 -11 20.5t-16 14.5q-13 7 -20 8q-38 1 -62 17q-2 1 -6.5 4.5t-7 7.5t-2 7t8.5 3q64 4 100 -12
q46 -23 77 -65q1 2 2 3l31 70q3 5 10 5q12 2 25.5 -2.5t20.5 -9.5q32 -17 61 -41v88q0 4 12 3.5t26.5 -5t26 -12t11.5 -16.5v-7q13 -1 26 -7t22 -14z" />
    <glyph glyph-name="ssa-beng" unicode="&#x9b7;" horiz-adv-x="352" 
d="M365 379h-344q-13 0 -28 6q-32 13 -32 26q0 7 14 7h344q13 0 28 -6.5t23.5 -14.5t8.5 -12q0 -6 -14 -6zM315 -7h-3q-93 13 -174 59q-66 36 -99 74q-15 16 -15 35q0 25 36 52t64 63q9 14 9 26q0 31 -95 85q-14 8 -14 17q0 6 16 6q29 0 119 -65q29 -20 47 -50q5 -8 5 -15
q19 -10 38 -22v149q0 4 8 4q11 0 30 -5q38 -12 38 -28v-378q0 -7 -10 -7zM249 35v137q-5 52 -46 78q-21 -30 -66 -67q-37 -24 -37 -48q0 -19 40 -48l5 -3q46 -36 104 -49z" />
    <glyph glyph-name="sa-beng" unicode="&#x9b8;" horiz-adv-x="387" 
d="M21 379q-13 0 -28 6t-26 14q-15 19 8 19h404q14 0 29 -6.5t25 -15.5q15 -17 -7 -17h-405zM359 -2q0 -5 -12 -4t-26.5 6t-26 12t-11.5 16v85q-4 58 -35 107q-8 12 -18 22q1 -48 -2 -97q-1 -54 -47 -85q-1 -1 -3 -2q-11 -6 -23 -9q-63 -8 -121 17q-3 1 -12.5 5.5t-16 10.5
t-5.5 12q3 6 11.5 5.5t18 -3t22 -6t23.5 -3.5q19 -1 36 9q2 1 3 2l4 4q17 21 10 53t-20 54q-13 25 -32 52q-26 33 -41.5 69t3.5 76q5 7 17.5 5.5t27 -7.5t24.5 -14t8 -14q-16 -31 -5.5 -62.5t30.5 -57.5q1 -2 2 -3q6 -10 12 -18q1 36 -1 71q0 8 8 8.5t20 -2.5t21.5 -7.5
t12.5 -6.5q35 -22 68 -49v158q0 5 11.5 4t26 -5.5t26.5 -11.5t12 -16v-380z" />
    <glyph glyph-name="ha-beng" unicode="&#x9b9;" horiz-adv-x="329" 
d="M259 321q31 -24 47 -58t0 -72q-15 -33 -43 -53t-58 -35l-16 -8q-29 -14 -57 -33.5t-32 -49.5q-1 -18 9 -33.5t22 -28.5l6 -8q29 -36 61 -66q17 -17 -6 -18q-14 0 -29.5 6t-25.5 15q-34 32 -65 69q-3 3 -6 7q-27 29 -40 65q-8 33 15.5 57.5t51.5 38.5q16 9 33 18
q39 17 72 44q27 23 38 58q9 38 -17 67q-38 47 -99 46h-4v-113q3 -14 3 -29q0 -7 -6 -8t-13.5 0.5l-12.5 2.5q-16 4 -30 13q-1 1 -4.5 3.5t-6.5 5.5t-3 5q0 15 -3 30q-4 13 -12 23q-1 1 -1 2q-5 8 0 10.5t13 2.5v91q0 4 10.5 3.5t26.5 -4.5q102 -3 182 -66zM22 379
q-13 0 -28.5 6t-25.5 15q-15 18 7 18h330q13 0 28.5 -6.5t25.5 -14.5q15 -18 -7 -18h-330z" />
    <glyph glyph-name="rra-beng" unicode="&#x9dc;" horiz-adv-x="478" 
d="M511 397v0q14 -18 -7 -18h-276v-173q12 11 19 24q4 7 7 13q22 42 44 82q1 2 2 3q1 3 7 4q12 3 28 -2q15 -6 25 -12q72 -46 92 -127q12 -73 -37 -126q-54 -47 -127 -44q-80 5 -154 37q-57 21 -112 50q-3 1 -10 5t-10 10q-4 5 1 9q5 5 15 4q9 -2 18 -6q10 -4 16 -7
q50 -25 106 -46q33 -12 71 -16q37 -4 74 10q59 30 71 86q12 57 -18 110l-2 -4q-6 -13 -13 -24q-4 -9 -9 -18q-8 -17 -20 -34q-33 -44 -89 -48q-9 -1 -25 3t-31 12q-14 8 -14 17v208h-130q-13 0 -28 6q-16 6 -26 16q-15 17 7 17h482q12 0 28 -6q15 -6 25 -15zM354 -22v0
q5 -3 3 -7q-1 -3 -6 -7q-4 -4 -9 -8q-4 -3 -6 -4q-10 -6 -24 -12q-15 -6 -25 -2q-32 20 -71 21q-7 0 -7 5t5 9q4 5 8 7q23 18 52 20q42 -2 80 -22z" />
    <glyph glyph-name="rha-beng" unicode="&#x9dd;" horiz-adv-x="385" 
d="M427 397v0q15 -18 -7 -18h-308v-320q28 9 56 22q54 24 94 69q18 21 28 52q11 30 -4 58q-5 8 -12 14q-8 6 -15 10q-3 1 -6 3q-2 -8 -2 -15v-7q-2 -19 -6 -37q-9 -37 -27 -71q-4 -7 -17 -5q-13 1 -28 7q-14 6 -24 14t-7 14q21 42 17 87q0 9 14 8v2q1 1 1 2l1 12q0 8 1 16
t5 14q9 9 25 7q15 -3 27 -8q33 -14 63 -32q36 -17 60 -46q23 -34 11 -73q-11 -38 -37 -66q-57 -57 -132 -81q-3 -1 -5 -2q-31 -13 -64 -18q-23 -1 -48 8q-26 10 -41 28q-5 5 -5 11v323h-14q-13 0 -28 6t-26 16q-16 17 7 17h399q13 0 28 -6q16 -6 26 -15zM306 -14v0
q5 -3 3 -7q-1 -4 -6 -8t-10 -7q-5 -4 -7 -5q-10 -6 -24 -12q-15 -6 -25 -2q-34 20 -72 21q-9 0 -8 5t5 10q5 6 9 8q23 18 53 20q43 -2 82 -23z" />
    <glyph glyph-name="yya-beng" unicode="&#x9df;" horiz-adv-x="353" 
d="M6 379q-13 0 -21 5.5t-17 15.5q-15 18 7 18h349q8 0 23.5 -6t25.5 -15q15 -18 -7 -18h-360zM249 35v0v344h-144q28 -17 54 -37q30 -20 48 -49q8 -17 4 -32q-5 -15 -18 -28q-25 -29 -55 -53q-3 -3 -7 -5q-12 -10 -22 -22q-11 -12 -7 -28q4 -14 16 -24q12 -11 24 -19
q1 -1 3 -2q47 -33 104 -45zM189 -5v0q5 -2 4 -6q-2 -4 -7 -9q-5 -4 -10 -7q-4 -3 -6 -4q-10 -6 -25 -12q-14 -6 -24 -1q-34 18 -72 19q-8 1 -8 5q1 5 5 10q5 6 9 8q23 19 53 20q43 -1 81 -23zM373 397v0q16 -18 -7 -18h-41v-382q-3 -5 -13 -4q-91 11 -172 55q-39 21 -73 49
q-14 11 -27 25t-16 32q-1 18 10 31t25 23q0 1 1 1q36 27 65 64q23 35 -11 61q-31 24 -65 45h-43q-13 0 -21 5q-8 6 -17 16q-15 18 7 18h344q13 0 29 -6q15 -6 25 -15z" />
    <glyph glyph-name="ramiddlediagonal-beng" unicode="&#x9f0;" horiz-adv-x="342" 
d="M238 139v150q-19 -13 -37 -26q-26 -19 -51 -41q-12 -10 -21 -22q10 -22 32 -38q35 -20 77 -23zM106 161q-11 -26 -2 -51q9 -31 37 -51q44 -25 97 -23v71q-50 11 -98 34q-18 9 -34 20zM314 379v-374q1 -8 -14 -8q-95 -1 -180 41q-38 18 -67 49t-29 75q3 40 30.5 70
t58.5 52q30 23 61 44q33 22 64 46v5h-217q-13 0 -28 6t-25 15q-16 18 7 18h333q13 0 28 -6t25 -15q15 -18 -7 -18h-40z" />
    <glyph glyph-name="ralowerdiagonal-beng" unicode="&#x9f1;" horiz-adv-x="342" 
d="M314 5q1 -8 -14 -8q-95 -1 -180 41q-38 18 -67 49t-29 75q3 40 30.5 70t58.5 52q30 23 61 44q33 22 64 46v34q0 4 11.5 3.5t26 -5t26.5 -12t12 -16.5v-373zM110 171q-16 -31 -6.5 -61.5t37.5 -50.5q44 -25 97 -23v253q-19 -13 -37 -26q-26 -19 -51 -41t-40 -51zM21 379
q-13 0 -28 6t-25 15q-16 18 7 18h333q13 0 28 -6t25 -15q15 -18 -7 -18h-333zM52 54q36 -30 75.5 -49.5t142.5 -34.5v-59q-181 34 -250 143h32z" />
    <glyph glyph-name="signnuktacomb-beng" unicode="&#x9bc;" 
d="M-170 -21q4 -3 2.5 -7t-6.5 -8t-10 -7t-8 -4q-9 -5 -24 -9.5t-25 0.5q-32 21 -70 25q-9 1 -8 5.5t6 9.5t9 7q25 16 54 15q43 -4 80 -27z" />
    <glyph glyph-name="vowelsignaa-beng" unicode="&#x9be;" horiz-adv-x="139" 
d="M183 397q15 -18 -7 -18h-65v-474q0 -4 -11.5 -3.5t-26 5t-26 11.5t-11.5 17v444h-2q-26 0 -41 6t-25 15q-15 18 7 18h155q13 0 28 -6t25 -15z" />
    <glyph glyph-name="vowelsigni-beng" unicode="&#x9bf;" horiz-adv-x="138" 
d="M466 552v0q9 -8 6.5 -13t-13.5 -5q-30 3 -54 21q-51 43 -114 63q-69 17 -133 -13q-59 -28 -81 -89q-15 -52 12 -98h16q13 0 28 -6t26 -15q15 -18 -7 -18h-41v-476q0 -5 -11.5 -4t-26 5.5t-26 11.5t-11.5 17v446h-11q-13 0 -28 6t-25 15q-16 18 7 18h51q-49 57 -28 130
q30 73 104 101q96 30 190.5 -4t169.5 -93z" />
    <glyph glyph-name="vowelsignii-beng" unicode="&#x9c0;" horiz-adv-x="139" 
d="M-183 528v0q68 11 133 -11q24 -10 45.5 -30t13.5 -49q-5 -12 -13 -20h40q8 75 -13 146q-22 48 -67 76q-74 40 -160 19q-28 -6 -57 -19t-46 -36q-13 -18 -12 -41t22 -35q9 -5 21.5 -6t24.5 0h4q24 1 49 4q7 1 15 2zM-95 432q15 8 26 20q10 13 9 29q0 4 -2 7t-3 6l-1 1
q-9 1 -24.5 0t-29 -2t-17.5 -2q-39 -5 -78 -5q-76 1 -138 44q-21 17 -32 41t1 50q14 27 41 42t56 24q54 16 110 14q122 -3 214 -83q43 -36 60 -89q13 -55 10 -112q14 0 28 -6t24 -15q15 -17 -7 -17h-40v-476q0 -4 -11.5 -3.5t-26.5 5t-26.5 12t-11.5 16.5v446h-122
q-4 0 -9 1v52z" />
    <glyph glyph-name="vowelsignucomb-beng" unicode="&#x9c1;" 
d="M116 -228v0q1 -2 3 -5q5 -8 8.5 -17.5t0.5 -19.5q-3 -7 -15.5 -6t-27.5 7t-25.5 14t-8.5 15q2 8 -2.5 18t-10.5 19l-4 6q-12 21 -27 40q-17 22 -36 41q-8 -72 -69 -105q-52 -19 -104.5 6.5t-73.5 76.5q-18 46 11 84q35 32 83 30q40 1 79 -12v79q0 7 8 12.5t36.5 21.5
t30.5 8q1 -46 2 -158q25 -16 46 -35q39 -34 69 -77q15 -21 27 -43zM-154 -176v0q49 41 51 110q-7 2 -14 2q-20 2 -41 -4t-35 -22q-13 -18 -12.5 -40t10.5 -41q5 -9 11 -17q1 0 3 1q4 0 8 2q10 3 19 9z" />
    <glyph glyph-name="vowelsignuucomb-beng" unicode="&#x9c2;" 
d="M199 -228q-50 3 -153 113q-35 -54 -100 -54q-39 0 -76 20q-59 32 -59 78q0 39 33 65q46 37 68 37q13 0 37 -12l6 -4q17 -10 17 -17q0 -2 -3 -4q-82 -41 -82 -91q0 -11 2 -16l4 -10t5 -8h7q17 0 37 16q34 26 50 66q2 5 12 5q5 0 20 -3q28 -8 40 -23q64 -78 142 -141
q7 -6 7 -10q0 -7 -14 -7z" />
    <glyph glyph-name="vowelsignvocalicrcomb-beng" unicode="&#x9c3;" 
d="M-101 30q6 5 19 2.5t26.5 -9.5t21.5 -15t3 -13q-24 -22 -48 -43q-9 -7 -20 -20t-12 -26q1 -9 11 -16t22.5 -12t20.5 -7q5 -2 15 -5.5t19 -9.5t10 -12q0 -7 -6 -8.5t-14.5 0t-12.5 3.5q-48 13 -90 39q-13 8 -27 19t-21 26q-5 13 2.5 26.5t16.5 22.5q17 18 37 34
q14 12 27 24z" />
    <glyph glyph-name="vowelsigne-beng" unicode="&#x9c7;" horiz-adv-x="227" 
d="M416 -69v0q38 -6 72 -28.5t34 -64.5q-4 -46 -39 -65.5t-80 -21.5t-79 6q-141 26 -226 141q-71 114 -60 246.5t95 234.5h-137q-13 0 -28 6t-25 15q-15 18 7 18h249q14 -3 25.5 -10t16.5 -16t0 -15q-89 -84 -115 -203q-24 -119 19 -233q31 -91 115 -135q38 -17 86 -15
t79 34q14 16 17 37q1 11 -2 22v2q-3 7 -13 9q-7 0 -14 -1q-12 -1 -19 -9.5t-3 -20.5q2 -5 -2 -7t-11 -1.5t-13 1.5t-8 2q-12 3 -26 9.5t-20 18.5q-5 17 4 29.5t25 16.5q38 7 76 -2z" />
    <glyph glyph-name="bn_ekaar.init" horiz-adv-x="227" 
d="M416 -69v0q38 -6 72 -28.5t34 -64.5q-4 -46 -39 -65.5t-80 -21.5t-79 6q-141 26 -226 141q-71 114 -60 246.5t95 234.5q16 21 43 39h24q14 -3 29.5 -10.5t16 -16t-4.5 -14.5q-89 -84 -115 -203q-24 -119 19 -233q31 -91 115 -135q38 -17 86 -15t79 34q14 16 17 37
q1 11 -2 22v2q-3 7 -13 9q-7 0 -14 -1q-12 -1 -19 -9.5t-3 -20.5q2 -5 -2 -7t-11 -1.5t-13 1.5t-8 2q-12 3 -26 9.5t-20 18.5q-5 17 4 29.5t25 16.5q38 7 76 -2z" />
    <glyph glyph-name="vowelsignai-beng" unicode="&#x9c8;" horiz-adv-x="227" 
d="M163 379h-137q-13 0 -28 6t-25 15q-15 18 7 18h228q14 0 31.5 -7.5t28 -17t5.5 -16.5zM11 679q-4 3 -9 7.5t-5.5 9.5t7.5 7q14 3 30 -3t27 -14q50 -33 97 -69q39 -30 70 -68q32 -42 33 -95q1 -2 1 -5q1 -20 -1.5 -39.5t-18.5 -32.5q-36 2 -50.5 9.5t-22 15.5t-2.5 13
q13 11 14.5 30.5t-0.5 36.5q-1 3 -1 5q-3 45 -30 81q-58 63 -133 107zM416 -69v0q38 -6 72 -28.5t34 -64.5q-4 -46 -39 -65.5t-80 -21.5t-79 6q-141 26 -226 141q-71 114 -60 246.5t95 234.5q16 21 43 39h7q14 -3 29.5 -10.5t24.5 -16t4 -14.5q-89 -84 -115 -203
q-24 -119 19 -233q31 -91 115 -135q38 -17 86 -15t79 34q14 16 17 37q1 11 -2 22v2q-3 7 -13 9q-7 0 -14 -1q-12 -1 -19 -9.5t-3 -20.5q2 -5 -2 -7t-11 -1.5t-13 1.5t-8 2q-12 3 -26 9.5t-20 18.5q-5 17 4 29.5t25 16.5q38 7 76 -2z" />
    <glyph glyph-name="bn_aikaar.init" horiz-adv-x="227" 
d="M11 679q-4 3 -9 7.5t-5.5 9.5t7.5 7q14 3 30 -3t27 -14q50 -33 97 -69q39 -30 70 -68q32 -42 33 -95q1 -2 1 -5q1 -20 -1.5 -39.5t-18.5 -32.5q-36 2 -50.5 9.5t-22 15.5t-2.5 13q13 11 14.5 30.5t-0.5 36.5q-1 3 -1 5q-3 45 -30 81q-58 63 -133 107zM416 -69v0
q38 -6 72 -28.5t34 -64.5q-4 -46 -39 -65.5t-80 -21.5t-79 6q-141 26 -226 141q-71 114 -60 246.5t95 234.5q16 21 38 39h12q14 -3 29.5 -10.5t24.5 -16t4 -14.5q-89 -84 -115 -203q-24 -119 19 -233q31 -91 115 -135q38 -17 86 -15t79 34q14 16 17 37q1 11 -2 22v2
q-3 7 -13 9q-7 0 -14 -1q-12 -1 -19 -9.5t-3 -20.5q2 -5 -2 -7t-11 -1.5t-13 1.5t-8 2q-12 3 -26 9.5t-20 18.5q-5 17 4 29.5t25 16.5q38 7 76 -2z" />
    <glyph glyph-name="vowelsignebeng.alt" horiz-adv-x="227" 
d="M269 379q-4 0 -4 -1q0 1 1 1h3zM431 -134v0q39 -10 68 -35.5t21 -68.5q-9 -32 -35 -48.5t-57 -21.5q-72 -11 -142 12q-148 44 -215 181q-61 149 -14 302q34 106 105 192h-136q-13 0 -27 6q-15 6 -25 15q-15 18 7 18h226v0q14 0 31 -7.5t28 -17.5t5 -16q-88 -87 -128 -204
q-42 -117 -15 -239q21 -112 111 -179q36 -22 83 -25.5t85 18.5q22 14 31 39q4 11 3 19t-3 16v1q-3 9 -12 10q-5 1 -11 0q-12 -1 -20 -9.5t-4 -21.5q2 -5 -2.5 -6.5t-11 -1.5t-13 1t-8.5 2q-11 3 -25.5 10t-19.5 19q-6 18 5.5 31t28.5 16q44 6 86 -7z" />
    <glyph glyph-name="bn_ekaar.init.alt" horiz-adv-x="227" 
d="M434 -138v0q39 -10 68.5 -36t21.5 -70q-9 -31 -35.5 -48t-57.5 -22q-73 -11 -143 12q-149 45 -217 183q-62 150 -14 305q42 132 133 229q6 5 20 2t29 -10t23 -15.5t3 -14.5q-81 -87 -121 -206q-43 -118 -16 -241q21 -113 112 -180q37 -23 84 -26.5t86 19.5q22 14 31 39
q4 11 3 19t-3 16v1q-3 9 -12 10q-5 1 -11 1q-12 -2 -20.5 -10.5t-4.5 -21.5q2 -5 -2 -7t-11 -1.5t-13 1.5t-8 2q-12 3 -26.5 10t-19.5 19q-6 19 5.5 31.5t29.5 16.5q44 5 86 -7z" />
    <glyph glyph-name="vowelsignaibeng.alt" horiz-adv-x="227" 
d="M283 418q12 0 27.5 -6t25.5 -15q15 -18 -7 -18h-314q-13 0 -28 6t-25 15q-15 18 7 18h314zM434 -137q39 -10 68.5 -36t21.5 -70q-9 -31 -35.5 -48t-57.5 -22q-73 -11 -143 12q-149 45 -217 183q-62 150 -14 305q42 132 141 229q6 5 20 2t29 -10t23 -15.5t3 -14.5
q-89 -87 -129 -206q-43 -118 -16 -241q21 -113 112 -180q37 -23 84 -26.5t86 19.5q22 14 31 39q4 11 3 19t-3 16v1q-3 9 -12 10q-5 1 -11 1q-12 -2 -20.5 -10.5t-4.5 -21.5q2 -5 -2 -7t-11 -1.5t-13 1.5t-8 2q-12 3 -26.5 10t-19.5 19q-6 19 5.5 31.5t29.5 16.5q44 5 86 -7z
M42 680q-5 3 -9.5 7.5t-5.5 9.5t8 7q13 3 29.5 -3t27.5 -14q50 -33 96 -69q40 -30 71 -68q31 -42 33 -95v-5q2 -20 -0.5 -39.5t-18.5 -32.5q-8 -5 -22 -1.5t-28.5 11t-22.5 15.5t-3 13q14 11 15.5 30.5t-1.5 36.5v5q-3 45 -30 81q-58 63 -133 107z" />
    <glyph glyph-name="bn_aikaar.init.alt" horiz-adv-x="227" 
d="M276 418q12 0 31 -6t29 -15q15 -18 -7 -18h-136l21 39h62zM434 -137q39 -10 68.5 -36t21.5 -70q-9 -31 -35.5 -48t-57.5 -22q-73 -11 -143 12q-149 45 -217 183q-62 150 -14 305q42 132 134 229q6 5 20 2t29 -10t23 -15.5t3 -14.5q-82 -87 -122 -206q-43 -118 -16 -241
q21 -113 112 -180q37 -23 84 -26.5t86 19.5q22 14 31 39q4 11 3 19t-3 16v1q-3 9 -12 10q-5 1 -11 1q-12 -2 -20.5 -10.5t-4.5 -21.5q2 -5 -2 -7t-11 -1.5t-13 1.5t-8 2q-12 3 -26.5 10t-19.5 19q-6 19 5.5 31.5t29.5 16.5q44 5 86 -7zM35 680q-5 3 -9.5 7.5t-5.5 9.5t8 7
q13 3 29.5 -3t27.5 -14q50 -33 96 -69q40 -30 71 -68q31 -42 33 -95v-5q2 -20 -0.5 -39.5t-18.5 -32.5q-8 -5 -22 -1.5t-28.5 11t-22.5 15.5t-3 13q14 11 15.5 30.5t-1.5 36.5v5q-3 45 -30 81q-58 63 -133 107z" />
    <glyph glyph-name="vowelsigno-beng" unicode="&#x9cb;" horiz-adv-x="809" 
d="M624 200q4 -3 2.5 -7t-6.5 -8t-10 -7t-8 -4q-9 -5 -24 -9.5t-25 0.5q-32 21 -70 25q-9 1 -8 5.5t6 9.5t9 7q25 16 54 15q43 -4 80 -27zM228 189q-4 3 -2.5 7t6.5 8t10 7t8 4q9 5 24 9.5t25 -0.5q32 -21 70 -25q9 -1 8 -5.5t-6 -9.5t-9 -7q-25 -16 -54 -15q-43 4 -80 27z
M421 393q3 4 7 2.5t8 -6.5t7 -10t4 -8q5 -9 9.5 -24t-0.5 -25q-21 -32 -25 -70q-1 -9 -5.5 -8t-9.5 6t-7 9q-16 25 -15 54q4 43 27 80zM431 -3q-3 -4 -7 -2.5t-8 6.5t-7 10t-4 8q-5 9 -9.5 24t0.5 25q21 32 25 70q1 9 5.5 8t9.5 -6t7 -9q16 -25 15 -54q-4 -43 -27 -80z
M562 339q5 1 6.5 -3t1 -10.5t-2 -12t-2.5 -8.5q-3 -10 -10.5 -23.5t-17.5 -17.5q-38 -8 -68 -32q-7 -6 -9.5 -2t-2.5 11t2 11q6 29 27 49q33 28 76 38zM290 50q-5 0 -6.5 3.5t-1 10t2 12t2.5 8.5q3 10 10.5 24t17.5 17q38 8 67 33q7 5 9.5 1t2.5 -11t-1 -11q-6 -29 -27 -49
q-33 -28 -76 -38zM576 65q1 -5 -3 -7t-10.5 -1.5t-12 1.5t-8.5 3q-10 2 -24 9t-18 17q-10 37 -35 66q-6 7 -2.5 9.5t11 3t11.5 -1.5q29 -5 50 -25q29 -32 41 -74zM276 324q-1 5 3 7t10 1.5t12 -1.5t9 -2q10 -3 24 -9.5t18 -17.5q10 -37 35 -65q6 -7 2 -9.5t-11 -3t-11 0.5
q-29 5 -50 25q-29 32 -41 74zM853 397q15 -18 -7 -18h-65v-474q0 -4 -11.5 -3.5t-26 5t-26 11.5t-11.5 17v444h-25q-13 0 -28 6t-25 15q-15 18 7 18h165q13 0 28 -6t25 -15zM416 -69v0q38 -6 72 -28.5t34 -64.5q-4 -46 -39 -65.5t-80 -21.5t-79 6q-141 26 -226 141
q-71 114 -60 246.5t95 234.5h-137q-13 0 -28 6t-25 15q-15 18 7 18h233v-1q14 -2 29.5 -9.5t24.5 -16t4 -14.5q-89 -84 -115 -203q-24 -119 19 -233q31 -91 115 -135q38 -17 86 -15t79 34q14 16 17 37q1 11 -2 22v2q-3 7 -13 9q-7 0 -14 -1q-12 -1 -19 -9.5t-3 -20.5
q2 -5 -2 -7t-11 -1.5t-13 1.5t-8 2q-12 3 -26 9.5t-20 18.5q-5 17 4 29.5t25 16.5q38 7 76 -2z" />
    <glyph glyph-name="vowelsignau-beng" unicode="&#x9cc;" horiz-adv-x="809" 
d="M800 418q13 0 28 -6t25 -15q15 -18 -7 -18h-65v-474q0 -4 -11.5 -3.5t-26 5t-26 11.5t-11.5 17v444h-25q-13 0 -28 6t-25 15q-15 18 7 18h71l1 1q12 10 13.5 28.5t-0.5 34.5l-1 5q-2 42 -28 75q-54 59 -124 101q-2 1 -5 3q-4 3 -9 7.5t-5.5 8.5t7.5 6q13 3 28 -2.5
t25 -12.5q47 -31 90 -65q38 -28 67 -63q25 -40 26 -83v-4q0 -19 -13 -40h22zM416 -69v0q38 -6 72 -28.5t34 -64.5q-4 -46 -39 -65.5t-80 -21.5t-79 6q-141 26 -226 141q-71 114 -60 246.5t95 234.5h-137q-13 0 -28 6t-25 15q-15 18 7 18h233v-1q14 -2 29.5 -9.5t24.5 -16
t4 -14.5q-89 -84 -115 -203q-24 -119 19 -233q31 -91 115 -135q38 -17 86 -15t79 34q14 16 17 37q1 11 -2 22v2q-3 7 -13 9q-7 0 -14 -1q-12 -1 -19 -9.5t-3 -20.5q2 -5 -2 -7t-11 -1.5t-13 1.5t-8 2q-12 3 -26 9.5t-20 18.5q-5 17 4 29.5t25 16.5q38 7 76 -2zM624 200
q4 -3 2.5 -7t-6.5 -8t-10 -7t-8 -4q-9 -5 -24 -9.5t-25 0.5q-32 21 -70 25q-9 1 -8 5.5t6 9.5t9 7q25 16 54 15q43 -4 80 -27zM228 189q-4 3 -2.5 7t6.5 8t10 7t8 4q9 5 24 9.5t25 -0.5q32 -21 70 -25q9 -1 8 -5.5t-6 -9.5t-9 -7q-25 -16 -54 -15q-43 4 -80 27zM421 393
q3 4 7 2.5t8 -6.5t7 -10t4 -8q5 -9 9.5 -24t-0.5 -25q-21 -32 -25 -70q-1 -9 -5.5 -8t-9.5 6t-7 9q-16 25 -15 54q4 43 27 80zM431 -3q-3 -4 -7 -2.5t-8 6.5t-7 10t-4 8q-5 9 -9.5 24t0.5 25q21 32 25 70q1 9 5.5 8t9.5 -6t7 -9q16 -25 15 -54q-4 -43 -27 -80zM562 339
q5 1 6.5 -3t1 -10.5t-2 -12t-2.5 -8.5q-3 -10 -10.5 -23.5t-17.5 -17.5q-38 -8 -68 -32q-7 -6 -9.5 -2t-2.5 11t2 11q6 29 27 49q33 28 76 38zM290 50q-5 0 -6.5 3.5t-1 10t2 12t2.5 8.5q3 10 10.5 24t17.5 17q38 8 67 33q7 5 9.5 1t2.5 -11t-1 -11q-6 -29 -27 -49
q-33 -28 -76 -38zM576 65q1 -5 -3 -7t-10.5 -1.5t-12 1.5t-8.5 3q-10 2 -24 9t-18 17q-10 37 -35 66q-6 7 -2.5 9.5t11 3t11.5 -1.5q29 -5 50 -25q29 -32 41 -74zM276 324q-1 5 3 7t10 1.5t12 -1.5t9 -2q10 -3 24 -9.5t18 -17.5q10 -37 35 -65q6 -7 2 -9.5t-11 -3t-11 0.5
q-29 5 -50 25q-29 32 -41 74z" />
    <glyph glyph-name="signviramacomb-beng" unicode="&#x9cd;" 
d="M-76 -58q-10 8 -6.5 13.5t13.5 5.5q30 -3 53 -22q43 -29 58 -78q1 -5 -2.5 -6.5t-9.5 -1.5t-12 1.5t-8 1.5q-10 3 -24.5 9.5t-18.5 17.5q-11 37 -43 59z" />
    <glyph glyph-name="khandata-beng" unicode="&#x9ce;" horiz-adv-x="322" 
d="M276 99q20 -29 19 -61t-31 -54q-31 -21 -71 -25.5t-76 -1.5q-14 1 -29 6.5t-26 14.5q-8 7 -6 12.5t13 4.5q39 -3 84.5 5t62.5 47q11 35 -8 63.5t-47 47.5q-5 4 -11 8q-29 20 -55 42.5t-41 55.5q-24 58 -4.5 113.5t83.5 72.5q7 1 15 0q5 0 9 -1q31 -5 64 -20t56 -38
q11 -14 11.5 -28.5t-2.5 -31.5v-1q-4 -37 -22 -70q-6 -8 -23.5 -5t-33.5 12.5t-18 17.5q-5 33 -12 64q-1 7 6 8.5t15 0t11 -3.5h2q2 15 3 29q0 17 -10 22q-5 3 -8 4q-2 1 -5 2q-34 -9 -52 -36t-21 -61q-4 -72 49 -120q18 -15 37 -28q41 -26 72 -67z" />
    <glyph glyph-name="aulength-beng" unicode="&#x9d7;" horiz-adv-x="140" 
d="M130 418q13 0 28 -6t25 -15q15 -18 -7 -18h-65v-474q0 -4 -11.5 -3.5t-26 5t-26 11.5t-11.5 17v444h-25q-13 0 -28 6t-25 15q-15 18 7 18h71l1 1q12 10 13.5 28.5t-0.5 34.5l-1 5q-2 42 -28 75q-54 59 -124 101q-2 1 -5 3q-4 3 -9 7.5t-5.5 8.5t7.5 6q13 3 28 -2.5
t25 -12.5q47 -31 90 -65q38 -28 67 -63q25 -40 26 -83v-4q0 -19 -13 -40h22z" />
    <glyph glyph-name="zero-beng" unicode="&#x9e6;" horiz-adv-x="340" 
d="M310 271q10 -102 -51 -184q-32 -41 -84 -46q-62 -2 -110 38q-39 37 -41 90.5t11 101.5q12 48 42.5 84.5t78.5 50.5q5 1 10 1q28 12 61 -1.5t51 -34.5q16 -20 23 -47t9 -53zM231 223q9 46 0 93q-3 23 -11 44q-1 3 -3 6q-2 0 -4 1q-44 -15 -69.5 -53t-34.5 -82
q-13 -51 -7 -103q2 -24 14 -43q1 -1 3 -4q2 -1 3 -3q2 1 4 1q46 11 72 55.5t33 87.5z" />
    <glyph glyph-name="one-beng" unicode="&#x9e7;" horiz-adv-x="335" 
d="M262 278q53 -55 44 -130q-17 -77 -88 -111q-87 -38 -166 13q-8 5 -16 12t-11 16q-3 13 1 28q1 6 1 10q1 12 3 24q1 12 2 23q1 6 1 12q0 15 5 28q2 3 6.5 4t9 0.5t7.5 -1.5q41 -9 75 -37q24 -24 4 -54q-3 -6 -13 -6t-22 5q-1 -14 -3 -27v-1q0 -4 -1 -8q-2 -8 -1 -16v-1
t1 -2q9 1 18 3q76 19 105 91q24 79 -29 132.5t-119 82.5q-4 2 -10.5 6.5t-11 9.5t0.5 10q6 4 15 2.5t18.5 -5t15.5 -6.5h1q89 -39 157 -107z" />
    <glyph glyph-name="two-beng" unicode="&#x9e8;" horiz-adv-x="341" 
d="M67 378q0 1 -1 1l-12 6t-14 9t-5 11q3 6 11.5 5.5t17.5 -3t13 -4.5l103 -46l20 -9q37 -15 71 -36q16 -10 29 -25t13 -35q-1 -22 -17 -38t-35 -24q-45 -18 -94 -19h-10q-19 1 -38.5 -3.5t-21.5 -24.5q0 -9 6 -15.5t12 -11.5q15 -12 32 -22q8 -5 16 -11q23 -15 46 -31
l46 -32q4 -3 8.5 -7t5 -8.5t-6.5 -6.5q-13 -2 -28 3.5t-24 12.5q-24 15 -47 31l-47 32q-10 7 -20 13q-32 19 -57 45q-13 14 -15 30.5t14 30.5q12 9 28.5 11t33.5 2h20q47 1 88 23q17 11 27.5 30t-3.5 38q-9 9 -21 14q-3 1 -5 2q-22 10 -43 20q-48 22 -96 42z" />
    <glyph glyph-name="three-beng" unicode="&#x9e9;" horiz-adv-x="439" 
d="M409 216q8 -51 -11 -105t-65 -81q-28 -13 -61 -10t-61 12q-63 17 -109 63q-40 46 -55.5 103.5t-22.5 116.5q0 6 10.5 6.5t25 -3.5t26 -11t13.5 -14q1 -4 1 -7q6 -50 18.5 -100t43.5 -92q19 -27 52 -34q43 -7 73 24q61 69 46 160q-8 41 -34 75q-20 22 -45 37v-17
q1 -12 1 -24q1 -23 1 -45v-42q8 -30 -2 -62q-2 -7 -13.5 -6t-26 6.5t-25.5 13.5t-11 15l2 58q-4 15 -14 28q-3 6 -1.5 8.5t6 3.5t9.5 1q0 28 -1 57q-1 10 -1 21q-1 8 -1 17q0 7 2.5 10.5t8.5 5.5q19 3 39 -3.5t35 -14.5q54 -26 95 -68.5t52 -102.5z" />
    <glyph glyph-name="four-beng" unicode="&#x9ea;" horiz-adv-x="314" 
d="M280 149q21 -43 4 -87q-25 -40 -73 -47q-59 -11 -116 9q-22 8 -44 23t-30 38q-7 23 2 46t23 41q28 35 65 57q-34 14 -63.5 39t-21.5 66q12 40 49 55.5t76 16.5q16 1 31 -5q38 -7 69 -27.5t35 -59.5q1 -36 -22 -61t-54 -40q47 -19 70 -64zM113 331q-14 -19 -14 -41t21 -36
q8 -5 17 -9q44 18 68 58q12 25 4 51l-3 6t-4 7q-1 1 -3 1h-2q-24 -2 -46.5 -10t-37.5 -27zM217 115q2 20 -4.5 41t-19.5 35q-1 1 -1 1.5v0.5q-1 0 -4 1l-4 2q-43 -22 -70 -62q-13 -18 -19 -41t8 -43h11q5 -1 9 -1q24 0 46 8q41 15 48 58z" />
    <glyph glyph-name="five-beng" unicode="&#x9eb;" horiz-adv-x="385" 
d="M327 113q3 0 12.5 -4.5t20.5 -10.5t16.5 -11.5t-0.5 -9.5q-10 -5 -19 -11q-28 -18 -58 -30l-8 -2l-12 -4q-42 -13 -87 -5q-42 5 -83 24t-65 56q-20 37 -19 77.5t14 78.5q27 78 83 139q6 7 19 4.5t26.5 -9t22 -13.5t6.5 -11q-9 -9 -16 -18v-1q-4 -19 -4 -38q1 -13 5 -26
q0 -1 1 -2q12 3 24 8q24 9 46 23q15 22 34 40q5 5 15 3t19.5 -6t14.5 -6q4 -2 10.5 -6t10 -9t-0.5 -10q-24 -23 -51 -69t-28.5 -87.5t51.5 -53.5zM162 60q33 -3 61.5 9.5t54.5 31.5q-29 14 -49.5 34t-25.5 49q-4 32 9 62q-29 0 -58 14q-13 6 -23 15q-3 -5 -5 -11
q-31 -63 -24 -132q3 -32 23 -57q8 -8 17 -11t20 -4z" />
    <glyph glyph-name="six-beng" unicode="&#x9ec;" horiz-adv-x="451" 
d="M370 305q68 -63 49 -153q-23 -79 -98 -113q-92 -36 -179 13q-70 36 -100 110q-15 40 -17 83t0 85q1 5 12 4t25.5 -5.5t25 -11.5t11.5 -16q-2 -44 1 -87.5t21 -84.5q14 -35 43 -58q26 -17 58 -8q85 21 118 104q12 32 7 68q-17 -26 -41 -48q-60 -47 -126 -11q-13 6 -20 13
v1h-1v1q-2 2 -3 5v206q0 4 11 3.5t25.5 -5t25.5 -11.5t11 -16v-158q17 13 30 29q28 35 45 77q1 4 6 4.5t10.5 -0.5t9.5 -2h1q21 -4 39 -18z" />
    <glyph glyph-name="seven-beng" unicode="&#x9ed;" horiz-adv-x="342" 
d="M315 23q-1 -4 -11.5 -3.5t-25 5t-25.5 11.5t-12 16v95q-8 25 -24 47q-1 2 -3 4q-7 -2 -13 -3q-14 -3 -28 -7q-21 -8 -43 -9q-45 1 -82 25q-7 5 -13.5 11t-9.5 14q-2 7 0 15.5t6 15.5q16 30 41 53q49 51 109 88q10 5 24 0h4q26 -4 51.5 -16.5t40.5 -34.5
q11 -16 12.5 -35.5t0.5 -39.5v-84q0 -33 1 -66v-102zM185 239q29 -1 56 -16v37q0 29 -1 58v4q2 18 -4 35q-53 -33 -96 -79q-26 -23 -39 -55v-1q5 2 9 3q3 1 4 1q14 4 28 6l6 2l10 2q13 3 27 3z" />
    <glyph glyph-name="eight-beng" unicode="&#x9ee;" horiz-adv-x="330" 
d="M308 312q8 -7 6 -12.5t-13 -4.5q-8 0 -15.5 -6t-11.5 -13q-3 -10 -4 -20q0 -6 -1 -11q-7 -25 -29 -27q24 -20 20 -50q-7 -21 -25 -37q-2 -2 -4 -5q-18 -22 -38 -41l-4 -4q-18 -18 -38.5 -34t-45.5 -22q-5 -1 -11 0q-8 -2 -24.5 2t-31 12t-14.5 18v341q0 5 11 4t25.5 -5
t25.5 -11.5t11 -16.5v-78q43 -14 83 -36q6 -1 11 -2l-6 1.5t-1.5 1l1.5 1.5l3 3t4 5q2 6 3 13q0 4 1 7q0 12 5 22q8 14 23.5 20.5t31.5 5.5q29 -3 52 -21zM173 174q27 33 -7 58q-32 19 -67 31h-2v-169q6 5 11 10l8 8q31 29 57 62z" />
    <glyph glyph-name="nine-beng" unicode="&#x9ef;" horiz-adv-x="403" 
d="M347 274q40 -56 23.5 -115.5t-48.5 -114.5l-12 -22q-2 -5 -10 -5q-10 -1 -23 3q-14 4 -25 10.5t-15 13.5q-2 4 0 7q8 25 0 54.5t-18 52.5q-14 32 -36 60q-8 -7 -16 -13l-4 -4q-21 -18 -38 -40q18 -3 38 -14t22 -30q-1 -15 -13 -29t-25 -18q-19 -4 -41.5 3t-39.5 16
q-15 7 -29.5 21t-12.5 33q3 15 14 29.5t21 26.5l1 2q19 24 44.5 44t57.5 19q17 -1 34 -9q10 -5 18 -12q46 -39 72 -93q27 58 4 117q-11 24 -31.5 38t-44.5 25q-47 23 -98 35q-11 3 -26 8.5t-22 15.5q-4 7 -1 10t9 3t11 -1q76 -18 148 -51q31 -14 60.5 -32t51.5 -44z" />
    <glyph glyph-name="rupeesign-beng" unicode="&#x9f3;" horiz-adv-x="425" 
d="M386 226q19 -30 4 -61.5t-39 -51.5q-52 -39 -115 -50q-32 -8 -65 -4q-15 2 -37 10.5t-30 23.5q-7 11 -8.5 24t-1.5 27q1 5 1 10v178h-11q-13 0 -28 6t-25 15q-16 18 6 18h58v38l-0.5 0.5t-0.5 1v1.5v1.5v0.5v1q0 8 -1 15q-3 13 -12 21h-2q-4 -1 -6 -1q-18 -5 -31 -18
q-6 -6 -19.5 -4t-27 9t-22 14t-6.5 11q34 34 80 29.5t81 -33.5q15 -10 26 -23t14 -31q2 -13 2 -27v-6h15q13 0 28 -6.5t25 -14.5q15 -18 -7 -18h-61v-232h1q1 1 2 1q24 5 45 14q45 14 78 48q14 16 22.5 40t-7.5 43q-10 9 -22 14v-9q0 -3 -1 -6q-1 -11 -3 -22q-3 -19 -11 -36
q-4 -7 -17 -5.5t-27.5 7.5t-24 13.5t-6.5 14.5q5 11 4.5 21t-3.5 22q0 7 12 7q1 6 1 13q1 4 1 8q3 17 16 18.5t28.5 -4t26.5 -10.5q1 0 1 -1q6 -2 11 -5q25 -10 49 -24.5t40 -35.5z" />
    <glyph glyph-name="devanagaridanda" unicode="&#x964;" horiz-adv-x="208" 
d="M171 5q0 -4 -11.5 -3.5t-26 5t-26 11.5t-11.5 17v348q0 4 11.5 3.5t26 -5t26 -11.5t11.5 -17v-348z" />
    <glyph glyph-name="devanagaridoubledanda" unicode="&#x965;" horiz-adv-x="320" 
d="M171 6q0 -4 -11.5 -3.5t-26 5t-26 11.5t-11.5 17v348q0 4 11.5 3.5t26 -5t26 -11.5t11.5 -17v-348zM283 6q0 -4 -11.5 -3.5t-26 5t-26 11.5t-11.5 17v348q0 4 11.5 3.5t26 -5t26 -11.5t11.5 -17v-348z" />
    <glyph glyph-name="bn_k_ka" horiz-adv-x="499" 
d="M243 -68v164l-48 -24q-22 -11 -44 -25q-44 -28 -44 -58q0 -29 34 -42q46 -15 96 -15h6zM309 -110h-6q-80 0 -157 24q-108 34 -121 96v5q0 45 77 85l5 3q25 14 51 27l-12 4q-108 31 -121 96v5q0 44 77 84q4 4 72 38l45 22h-197q-13 0 -28 7q-32 13 -32 26q0 6 13 6h494
q13 0 29 -6q31 -12 31 -27q0 -6 -13 -6h-175q143 -41 143 -94q0 -13 -8 -27q4 -4 7 -8t3 -7q-1 -4 -7.5 -6.5t-12.5 -8.5q-14 -14 -44 -14q-16 0 -46 15q-24 11 -24 19q0 3 7 10q23 14 37 36q6 9 6 20q0 9 -6 15q-11 7 -32 12q-21 7 -40 8v-185q59 -11 120 -46
q40 -23 40 -52q0 -14 -8 -28q4 -3 7 -7t3 -7q-1 -4 -7.5 -6.5t-12.5 -8.5q-14 -14 -44 -14q-16 0 -46 15q-24 11 -24 19q0 3 7 10q23 14 37 36q6 9 6 20q0 9 -6 15q-11 7 -32 12q-21 7 -40 8v-235q0 -5 -15 -5zM205 153l32 17l6 2v143l-48 -24q-22 -11 -44 -25
q-44 -28 -44 -58q0 -29 34 -42q30 -11 64 -13z" />
    <glyph glyph-name="bn_k_tta" horiz-adv-x="556" 
d="M589 397v0q15 -18 -7 -18h-208q41 -12 77 -30q18 -9 34 -24t12 -37q-2 -7 -7 -13l7.5 -7.5t3 -7t-7.5 -5.5t-13 -8q-6 -4 -12 -7q-20 -6 -40 -5q-25 2 -47 16q-2 2 -7 5.5t-7.5 8t2.5 7.5q3 2 7 4q22 12 37 30q5 6 6.5 11.5t0.5 12.5v0.5v1.5l-1 1q-1 1 -3 2h-2
q-37 14 -75 19q9 -44 0 -88q-15 -55 -49 -101q-32 -43 -46 -93q-4 -19 -2 -32q1 -19 10 -36q2 -2 4 -5h3q47 0 97 16t85 48q15 14 21 34t-8 38q-10 10 -23 17q-1 -3 -1 -7q-1 -2 -1 -5q-4 -14 -10 -27q-13 -28 -34 -51q-6 -7 -19.5 -4.5t-27.5 9t-23 14t-6 11.5q24 28 24 65
q0 3 4.5 3.5t11.5 0.5l2 8q3 12 8.5 20.5t21.5 7.5q34 -2 67.5 -20t59.5 -39q24 -20 31 -45t-13 -51q-46 -50 -113 -66q-64 -22 -130 -14q-28 4 -55 16.5t-44 34.5q-20 27 -19.5 59.5t13.5 62.5q3 7 7 15q-33 5 -65 17q-29 10 -59.5 31t-36.5 53q-1 28 20.5 47.5t44.5 32.5
q1 0 3 1q28 17 57 32q14 7 28 15h-155q-13 0 -28.5 6t-25.5 15q-15 18 7 18h471v2q6 29 -12.5 53t-40.5 43q-6 5 -11 10q-51 46 -105 87q-10 8 -7 13t14 5q30 -2 54 -21q63 -47 119 -101l9 -9q19 -17 36 -37.5t22 -44.5h10q14 0 29 -6t26 -15zM251 260v0q19 45 14 92
q-22 -13 -46 -24q-17 -10 -35 -19q-4 -2 -7 -4q-40 -19 -67 -51q-11 -16 -7.5 -33t21.5 -26q38 -15 79 -11h2q5 6 9 13q22 30 37 63z" />
    <glyph glyph-name="bn_k_ta" horiz-adv-x="575" 
d="M614 397v0q15 -18 -7 -18h-417l66 -30q20 -9 39 -21.5t29 -33.5q3 -5 4 -11q13 10 26 19q47 34 103 21q29 -8 52 -26t30 -49q1 -5 1 -10q10 -5 16 -11t5 -12q-13 -42 -37 -79q-7 -8 -26 -4t-35.5 14t-15.5 20q13 39 16 79q2 20 -4 39q-27 -11 -50 -29q-3 -2 -5 -4
q-30 -21 -51 -50v-1v0q2 0 4 -1q33 -17 51.5 -47t9.5 -68q-11 -37 -41 -59.5t-66 -31.5q-79 -19 -160.5 4.5t-143.5 76.5q-9 8 -6.5 13t13.5 4q14 0 28.5 -6t25.5 -15q47 -39 108.5 -45t115.5 25q28 18 43.5 48.5t3.5 63.5q-3 6 -7 11l-2 2q-19 -7 -30 -24q-4 -10 -8 -19
q-3 -6 -15.5 -5t-27 6.5t-25 13.5t-8.5 16q3 11 8 20q12 28 21 58q12 30 7 62q-4 15 -12.5 22t-21.5 11l-8 4l-14 6q-6 3 -13 6q-1 -25 -2 -49l-2 -60q3 -15 3 -30q0 -7 -6 -8.5t-13.5 0t-12.5 3.5h-1q-15 4 -29 13q-1 1 -4.5 3.5t-6.5 5t-3 5.5v1q0 16 -4 32q-4 13 -11 25
l-2 4q-3 5 2 6.5t12 0.5q1 14 1 28q2 23 2 47h-84q-13 0 -28.5 6t-25.5 15q-16 18 7 18h585q13 0 28.5 -6t25.5 -15z" />
    <glyph glyph-name="bn_k_na" horiz-adv-x="526" 
d="M353 42h-77v24q-106 13 -178 70q-39 30 -39 70q0 35 26 61.5t57 47t66 40.5l38 24h-223q-14 0 -29 6q-32 13 -32 27q0 6 13 6h538q13 0 28.5 -6t24 -14t8.5 -13q0 -6 -14 -6h-182q9 -3 17 -7q117 -45 117 -107q0 -21 -11 -39q5 -3 10 -8t5 -7q0 -3 -4 -5q-9 -4 -15 -12
q-14 -19 -43 -19q-22 0 -45.5 11.5t-23.5 19.5q0 3 3 6q21 20 39 50q9 15 9 29q0 29 -27 44q-33 18 -56 21v-314zM276 102v216q-22 -13 -44 -28q-13 -4 -54.5 -37.5t-41.5 -69.5q0 -43 44 -64q43 -17 91 -17h5zM345 -92q-15 0 -30 5q-39 11 -39 28v3q-13 35 -43 51
q-35 18 -95 33q4 -4 4 -10q9 -18 9 -58v-6q3 -9 3 -20q0 -5 -1.5 -10.5t-9.5 -5.5q-14 0 -29 5q-36 12 -37.5 25.5t-1.5 26t-6 16.5q-14 7 -14 17q0 6 14 6h3q-2 15 -8 30q-1 2 -2 4.5t-2 5.5t-1 6q3 10 18 10q33 0 77 -17l5 -1q58 -16 117 -46v60h77v-106v-49q0 -3 -8 -3z
" />
    <glyph glyph-name="bn_k_ba" horiz-adv-x="526" 
d="M552 397v0q15 -18 -7 -18h-169q2 -1 3 -1q3 -1 5 -2q45 -12 86 -35q17 -9 30.5 -23t10.5 -35q-1 -9 -7 -18q4 -3 7 -7t2.5 -7.5t-7.5 -5.5q-6 -2 -12 -8q-5 -5 -10 -7q-19 -7 -38 -6q-26 2 -49 17q-2 1 -7 5t-7.5 8.5t2.5 7.5l6 4q22 14 36 34q7 11 5 23q-1 3 -3 6
q0 1 -1 1v1v0v0v0q-36 17 -76 20v-213q5 -7 0 -11v-204q0 -4 -9 -4h-6q-84 -1 -163 26q-32 10 -66.5 32t-40.5 57q-1 30 24 50.5t50 32.5l6 4q18 10 36 19l-24 6q-49 13 -91 40q-15 10 -28 23.5t-16 31.5q-2 31 28.5 52t59.5 33l10 4q35 17 71 31l44 18h-216q-13 0 -28.5 6
t-25.5 15q-15 18 7 18h524q13 0 28.5 -6t25.5 -15zM273 -42v0v155q-17 -9 -33 -17q-5 -3 -10 -5q-21 -10 -42 -23.5t-35 -31.5q-14 -20 -5 -38t30 -26q47 -14 95 -14zM273 184v0v138q-1 -1 -2 -1q-24 -10 -47 -20q-31 -12 -60 -28h-1q-27 -13 -47 -35q-18 -26 0.5 -40.5
t54.5 -21t70 -8.5l28 14q2 2 4 2z" />
    <glyph glyph-name="bn_k_ma" horiz-adv-x="615" 
d="M241 73v239q-23 -15 -46 -31q-2 -1 -3 -2q-24 -17 -47.5 -37.5t-36.5 -46.5q-13 -30 -2 -57.5t38 -44.5q45 -21 97 -20zM343 379q9 -3 17 -7q47 -18 87 -49q38 -30 28 -77q-3 -10 -9 -20q5 -3 9.5 -7t5.5 -7.5t-4 -5.5q-9 -4 -15 -12q-5 -7 -11 -11q-18 -10 -39 -8
q-4 0 -15.5 3t-24 9t-19 12.5t-0.5 12.5q21 20 39 49.5t0 58.5q-7 9 -17.5 15t-21.5 10l-4 2q-16 7 -31 9v-292q71 -4 123.5 -20t73.5 -34v369h-172zM601 418q13 0 28.5 -6t25.5 -15q15 -18 -7 -18h-57v-454q0 -4 -11.5 -3.5t-26.5 5t-26.5 12t-11.5 17.5v10l-1 1
q-36 35 -111 52q-27 9 -56 4q3 -3 3 -6q1 -17 -3.5 -34.5t-23.5 -22.5q-22 -3 -45.5 7.5t-37.5 26.5q-6 9 -11 22t-2 24q-53 9 -101 31q-36 16 -67.5 45t-34.5 71q0 37 24.5 64.5t52.5 48.5q35 26 71 49l44 30h-194q-13 0 -28.5 6t-25.5 15q-16 18 7 18h626z" />
    <glyph glyph-name="bn_k_ra" horiz-adv-x="603" 
d="M653 397v0q16 -18 -7 -18h-391q47 -13 90 -35q32 -16 56 -43q14 -19 14 -41q53 -2 99 -29q25 -13 47.5 -32.5t24.5 -49.5q0 -23 -11 -41q4 -4 8.5 -8t5.5 -7.5t-3 -4.5q-9 -5 -15 -13q-5 -6 -12 -11q-18 -9 -39 -8q-4 0 -15.5 3.5t-24 9t-19 12t-0.5 12.5q16 16 31 38
t17 44t-24 39q-5 3 -9 5q-1 1 -2 1t-1 1h-1h2t0.5 0h-1h-1h-1h-0.5v0h-2t-2.5 0.5t-3.5 0.5q-30 -4 -47 -29v0h-1v-195q5 -10 -13 -10q-13 0 -28.5 6t-25.5 15q-57 53 -129.5 68.5t-148.5 -3.5q-13 -3 -28.5 3t-25.5 13q-5 2 -9.5 6.5t-5 9t7.5 6.5q173 38 330 -53v160
q-1 2 0 4v56q0 39 -36 54q-25 11 -51 16q-2 -28 -7 -56q-5 -32 -6 -64q2 -14 3 -28q-1 -7 -7 -8t-13.5 0.5l-12.5 2.5v0q-16 5 -29 13q-2 1 -5.5 3.5t-6.5 5.5t-3 6q0 28 -15 53q-4 8 1 10.5t13 1.5q2 17 5 34q4 28 6 56h-153q-13 0 -28.5 6t-25.5 15q-16 18 7 18h624
q13 0 28.5 -6t25.5 -15z" />
    <glyph glyph-name="bn_k_la" horiz-adv-x="531" 
d="M276 118v7q-55 6 -107 24q-36 11 -70.5 32.5t-39.5 57.5q-1 34 26.5 56.5t56.5 37.5q32 18 67 34l23 12h-209q-13 0 -28 4.5t-26 11.5q-23 23 6 23h549q12 0 27.5 -4.5t24.5 -12.5q25 -22 -5 -22h-171q41 -13 80 -38q41 -25 30 -68q-4 -9 -6 -12q0 -1 4.5 -4t7.5 -9.5
t-5 -9.5q-9 -3 -15 -9q-5 -6 -12 -9q-18 -8 -37 -6q-4 0 -15.5 2t-23.5 7t-21 12t3 17q20 16 36.5 37.5t1.5 41.5q-7 7 -18 12t-21 8l-4 2q-16 5 -32 7v-242h-77zM179 176q45 -15 97 -14v168q-23 -12 -45 -24q-3 0 -6 -2q-25 -12 -48 -27.5t-36 -34.5q-10 -19 0.5 -37
t37.5 -29zM353 202v-211l2 -8q0 -10 -11 -10.5t-24 3t-26.5 10t-14.5 14.5q-5 34 -23 52q-3 -16 -11 -39q-4 -9 -6 -18q0 -6 -4 -14q-7 -9 -23.5 -5.5t-31 12.5t-13.5 20q1 5 2 9q0 6 -5.5 14l-5.5 8q-3 -21 -14 -50q-5 -7 -16.5 -6.5t-24 5.5t-21.5 12.5t-6 15.5l4 12v1
q1 2 1 4v5l-1 2l-7 7q-6 9 -1.5 12.5t11.5 4l7 0.5q-1 -2 -1 0q2 8 3 16.5t0 13.5h2l-4 3q-8 9 -3.5 14t14.5 5q27 -1 50.5 -14.5t35.5 -27.5q3 11 -1 30q-2 10 7 10.5t19 -2t18.5 -6t10.5 -4.5q7 -4 13 -9q21 -13 22 -14v131z" />
    <glyph glyph-name="bn_k_ssa" horiz-adv-x="566" 
d="M390 -4h-4q-9 0 -23.5 3.5t-27 11t-13.5 15.5q-2 60 -55 87q-19 10 -39 18q-22 -59 -40 -59q-3 0 -14 2.5t-27 12t-20 17.5q-9 34 -9 69v12.5t9 5.5t31 -6l3 -1q10 19 12 36l1 13q-6 13 -33 25q-2 1 -3.5 1.5t-1.5 1.5q-15 -30 -32 -58q-4 -6 -15 -6q-3 0 -14.5 2.5
t-27.5 11.5t-18 18q-5 32 -5 64v19q2 5 11 5l12 -2l24 -5q13 26 13 37q0 9 -5 17q-2 1 -3 3q-17 5 -35 12h-19q-14 0 -29 7q-31 13 -31 26q0 6 13 6h571q13 0 28 -6q31 -12 31 -27q0 -6 -13 -6h-194v-149q47 -8 90 -30q36 -16 57 -48q6 -14 6 -26q0 -19 -14 -36
q-22 -25 -55 -25q-32 0 -58 21q-7 6 -7 12q0 5 10 5h4q16 0 29 15q16 18 16 35q0 24 -24 35q-31 12 -54 12v-200q0 -3 -8 -4zM322 247v104q-54 -27 -55 -70q1 -21 36 -29zM322 115v103q-56 18 -87 35q-44 23 -44 55q0 13 8 29q15 27 41 42h-127q35 -14 46 -48l1 -9
q0 -19 -11 -37q47 -19 84 -53h1q15 -15 15 -27q0 -18 -6 -35l-5 -14q36 -14 69 -32z" />
    <glyph glyph-name="bn_k_ss_nna" horiz-adv-x="567" 
d="M326 -90q-13 63 -37 85q-12 12 -29 20q-12 6 -33 2q-35 -9 -49 -34t-7 -49q1 -9 7 -16q5 0 8 1q10 3 14.5 11.5t6.5 15.5q-3 9 -4 22q0 15 13.5 14.5t28 -5t22.5 -9.5q10 -6 12 -15q1 -13 -1 -22q2 -9 7 -22q2 -13 -4 -15t-10.5 -1.5t-9.5 0.5q-10 -14 -33 -16
q-30 -3 -62 7t-50 31q-34 43 -10 88.5t81 54.5h1q35 5 72 -6q35 -12 66 -31v-111zM322 27q-2 59 -56 86q-19 10 -38 18q-11 -27 -25 -53q-7 -8 -24 -4.5t-33 13t-19 17.5q-11 40 -10 82q0 3 4.5 4t10.5 0.5t11 -2t7 -1.5l8 -2q1 -1 3 -1q1 2 2 5q5 11 8 23q0 3 1 7.5
t1.5 8.5t0.5 5q-4 9 -14.5 15t-19.5 10q-1 1 -3 2h-1l-1 1q-15 -30 -31 -58q-6 -8 -23.5 -4.5t-34 12.5t-18.5 18q-6 41 -4 83q0 3 5 4t10.5 0t7.5 -1q11 -2 24 -5q5 12 9 23q6 14 0 27l-2 4q-1 1 -2 3q-18 5 -35 12h-37q-13 0 -20 5.5t-16 15.5q-15 18 7 18h570
q13 0 28.5 -6t25.5 -15q15 -18 -7 -18h-195v-149q48 -8 91 -30q35 -16 57 -48q16 -34 -8.5 -61.5t-59.5 -25.5q-30 2 -54 21q-8 7 -6.5 12.5t13.5 4.5q16 0 28.5 14.5t15.5 29.5q3 13 -3.5 24t-18.5 17q-24 9 -51 12h-4v-313q1 -3 0 -4v-11q0 -4 -11.5 -3.5t-26 5t-26 12
t-11.5 16.5v125zM322 247v104q-8 -4 -15 -9q-15 -10 -27.5 -26t-13.5 -35q1 -14 12 -20t25 -9l8 -2q6 -2 11 -3zM284 231q-24 8 -49.5 21.5t-38 34.5t2.5 50q15 27 40 42h-127q36 -14 46 -48q3 -24 -10 -46q48 -19 84 -53h1q6 -6 10.5 -12t5.5 -15q0 -18 -7 -35
q-2 -7 -5 -14q36 -14 70 -32q7 -5 15 -9v103q-20 6 -38 13z" />
    <glyph glyph-name="bn_k_ss_ba" horiz-adv-x="567" 
d="M600 397v0q16 -18 -6 -18h-195v0v-1v-148q48 -8 91 -30q35 -16 56 -48q16 -34 -8 -61.5t-59 -25.5q-30 2 -54 21q-8 7 -6.5 12.5t13.5 4.5q16 0 28.5 14.5t15.5 29.5q3 13 -3.5 24t-19.5 17q-23 9 -50 12h-4v-296q0 -3 -7 -3q-3 -1 -7 -1q-56 0 -108 16q-25 8 -51.5 23
t-36.5 40q-6 22 11 38t34 25q23 13 47 25q13 6 26 13q-13 20 -39 33q-19 10 -38 18q-11 -27 -26 -53q-6 -8 -23 -4.5t-33 13t-19 17.5q-12 40 -10 82q0 3 4.5 4t10.5 0.5t11 -2t6 -1.5l8 -2q2 -1 4 -1q1 2 2 5q5 11 8 23q0 3 1 7.5t1.5 8.5t-0.5 5q-3 9 -13.5 15t-19.5 10
q-2 1 -3 2h-1q-1 0 -1 1q-15 -30 -31 -58q-7 -8 -24 -4.5t-33.5 12.5t-18.5 18q-6 41 -5 83q1 3 6 4t10.5 0t6.5 -1q12 -2 24 -5q6 12 10 23q6 14 0 27l-2 4q-1 1 -2 3q-18 5 -35 12h-37q-7 0 -17.5 6.5t-20.5 14.5q-15 18 7 18h572q13 0 28 -6t25 -15zM79 366v0v0h1
t1.5 -0.5l0.5 -0.5l-1 0.5t-2 0.5zM323 -61v0v78q-1 -1 -3 -2q-29 -12 -49 -33q-8 -10 -7 -21t10 -15q23 -8 49 -7zM323 247v0v104q-7 -4 -14 -9q-15 -10 -27.5 -26t-13.5 -35q1 -14 12 -20t24 -9q5 -1 9 -2q5 -2 10 -3zM285 231v0q-23 8 -48.5 21.5t-38 34.5t2.5 50
q15 27 40 42h-127q36 -14 46 -48q3 -24 -10 -46q48 -19 84 -53h1q6 -6 10.5 -12t4.5 -15q1 -18 -6 -35q-2 -7 -5 -14q36 -14 70 -32q7 -5 14 -9v103q-19 6 -38 13z" />
    <glyph glyph-name="bn_k_ss_ma" horiz-adv-x="677" 
d="M711 397v0q15 -18 -7 -18h-55v-113v-338q0 -5 -11.5 -4t-26 5.5t-26 11.5t-11.5 17v9q-3 1 -5 3q-19 16 -40 28q-35 19 -74 26q-27 4 -55 1q3 -3 3 -6q1 -18 -3.5 -34t-23.5 -22q-23 -5 -49 5.5t-40 29.5q-10 13 -13.5 29.5t14.5 24.5q14 5 29 8q-13 34 -50 53
q-19 10 -38 18q-11 -27 -26 -53q-6 -8 -23 -4.5t-33 13t-19 17.5q-12 40 -10 82q0 3 4.5 4t10.5 0.5t11 -2t6 -1.5l8 -2q2 -1 4 -1q1 2 2 5q4 11 7 23q1 3 2 7.5t1 8.5v5q-4 9 -14 15t-19 10q-2 1 -3 2h-1q-1 0 -1 1q-15 -30 -32 -58q-6 -8 -23 -4.5t-33.5 12.5t-18.5 18
q-7 41 -5 83q1 3 6 4t10 0t7 -1q12 -2 24 -5q6 12 10 23q6 14 0 27l-2 4q-1 1 -2 3q-18 5 -35 12h-37q-13 0 -21 5.5t-16 15.5q-15 18 7 18h682q13 0 28 -6t26 -15zM322 115v0v116q-12 3 -24 7q-1 0 -2 1q-23 6 -51 18.5t-44.5 32.5t-3.5 49q14 26 38 40h-122q35 -14 46 -48
q3 -24 -10 -46q47 -19 84 -53h1q6 -6 10.5 -12t4.5 -15q0 -18 -6 -35q-2 -7 -5 -14q36 -14 70 -32q7 -5 14 -9zM322 260v0v93q-10 -5 -20 -12q-13 -8 -26 -25t-8 -34l1 -2q0 -1 1 -2t1 -1.5v-0.5q2 -1 4.5 -2t4.5 -2q2 0 4 -1q19 -6 38 -11v0v0zM574 5v0v374h-176v0v-1v-133
h1q2 -1 5 -1q47 -8 89 -30q16 -8 31 -19.5t24 -27.5q13 -33 -13 -56t-58 -21q-30 2 -53 21q-8 7 -6.5 12.5t13.5 5.5q18 -1 30.5 13t13 32t-17.5 28q-22 8 -49 11q-5 0 -10 1v-150q62 -7 120 -32q30 -11 56 -27z" />
    <glyph glyph-name="bn_k_ss_ra" horiz-adv-x="566" 
d="M599 397q15 -18 -7 -18h-194v-149q47 -8 90 -30q36 -16 57 -48q16 -34 -8 -61.5t-60 -25.5q-30 2 -53 21q-8 7 -6.5 12.5t13.5 4.5q16 0 28.5 14.5t15.5 29.5q2 13 -4 24t-19 17q-23 9 -50 12h-4v-200q0 -3 -8 -4q-10 -1 -26 3t-28.5 11.5t-13.5 15.5q-2 60 -55 87
q-19 10 -39 18q-10 -27 -25 -53q-6 -8 -23 -4.5t-33 13t-20 17.5q-11 40 -9 82q0 3 4.5 4t10.5 0.5t11 -2t6 -1.5l8 -2q2 -1 3 -1q1 2 2 5q5 11 8 23q1 3 1.5 7.5t1 8.5t0.5 5q-4 9 -14 15t-19 10q-2 1 -3 2h-1q-1 0 -1 1q-15 -30 -32 -58q-6 -8 -23.5 -4.5t-33.5 12.5
t-18 18q-7 41 -5 83q1 3 6 4t10 0t7 -1q12 -2 24 -5q6 12 10 23q6 14 0 27l-2 4q-2 1 -3 3q-17 5 -35 12h-19q-14 0 -29 6.5t-25 14.5q-15 18 7 18h571q13 0 28 -6t25 -15zM322 247v104q-7 -4 -15 -9q-15 -10 -27.5 -26t-12.5 -35q0 -14 11.5 -20t24.5 -9q5 -1 9 -2
q5 -2 10 -3zM284 231q-24 8 -49 21.5t-37.5 34.5t1.5 50q15 27 41 42h-127q35 -14 46 -48q3 -24 -10 -46q47 -19 84 -53h1q6 -6 10.5 -12t4.5 -15q0 -18 -6 -35q-3 -7 -5 -14q36 -14 69 -32q8 -5 15 -9v103q-19 6 -38 13zM50 -8q-13 -2 -28.5 4t-24.5 14l-8.5 8.5t-5.5 8.5
t8 6q103 19 184.5 3.5t145.5 -44.5v117q0 4 12 3.5t26.5 -5t26.5 -12.5t12 -17v-138q0 -5 -14.5 -4t-31.5 7t-26 17h-2q-53 25 -120.5 37t-153.5 -5z" />
    <glyph glyph-name="bn_k_sa" horiz-adv-x="612" 
d="M240 78v236q-24 -16 -46 -32q-2 -1 -3 -2q-24 -16 -47 -36t-36 -46q-12 -29 -1.5 -56.5t37.5 -43.5q44 -22 96 -20zM507 18v361h-167q9 -3 17 -6q47 -19 86 -49q37 -30 27 -75q-3 -11 -8 -20q5 -4 9 -7.5t5 -7t-4 -5.5q-8 -4 -14 -12q-5 -7 -12 -11q-18 -10 -38 -8
q-4 0 -15.5 3.5t-23.5 9t-18.5 11.5t-0.5 13q21 19 38.5 48t0.5 58q-7 9 -18 15t-21 10l-4 2q-15 7 -31 9v-310q82 -4 192 -29zM471 -2q-78 10 -125 12q-100 7 -195 -24q-12 -3 -25.5 0.5t-24.5 9.5q-1 1 -6 4t-10 7.5t-7 8.5t3 6q63 22 130 26q-44 9 -85 28
q-36 16 -66.5 44.5t-34.5 69.5q0 36 24.5 63.5t52.5 48.5q33 25 69 48q22 14 43 29h-202q-4 0 -19 6.5t-25 14.5q-15 18 7 18h616q13 0 28.5 -6t25.5 -15q15 -18 -7 -18h-55v-399q4 -5 -1 -10q-6 -4 -15.5 -2.5t-36.5 13.5t-59 17z" />
    <glyph glyph-name="bn_kh_ba" horiz-adv-x="413" 
d="M441 397q2 -1 4 -3.5t3.5 -5t0.5 -4.5q-2 -4 -6.5 -4.5t-7.5 -0.5h-51v-378q0 -3 -6 -3q-4 -1 -9 -1t-8 1q-96 18 -180 68q-40 23 -75 54q-9 8 -18 18t-10 20.5t13 20.5q17 10 35 20q28 14 51.5 32.5t32.5 51.5q9 42 -15 78q-12 18 -28 24q4 -17 5 -35q3 -27 -4 -53
q-11 -27 -34 -36t-50 -5q-30 2 -54 21q-8 7 -6.5 12.5t13.5 4.5q44 -4 56 38q6 23 2 47v4q0 19 -9 35q-4 7 -0.5 9.5t10 3t11.5 -0.5q49 -10 94.5 -30.5t72.5 -64.5q39 -84 -31 -144q-28 -21 -59 -36q-5 -2 -10 -5q-1 -1 -3 -2q-9 -4 -14.5 -9.5t2.5 -14.5q13 -15 30 -26
q1 -1 3 -2q52 -39 116 -56v417q0 4 11.5 3.5t26.5 -5t26.5 -12t11.5 -16.5v-9h4q13 0 28 -6.5t25 -14.5zM384 94v-193q0 -2 -2 -3q4 -10 -13 -10q-76 -1 -148 20q-5 2 -12 3q-18 5 -40 12.5t-36 20t-8 30.5q6 12 17 21.5t23 16.5q24 14 50 25q16 7 33 13q31 12 61 26v18h75z
M216 -61q46 -12 93 -12v84q-44 -16 -83 -41q-11 -7 -20 -17q-2 -4 -3 -9l-1 -1q7 -3 14 -4z" />
    <glyph glyph-name="bn_kh_ra" horiz-adv-x="398" 
d="M230 -48q-77 21 -162 13q-13 0 -27.5 7.5t-24.5 16.5q-4 3 -7.5 8t-4 10t8.5 5q117 8 223 -31q28 -10 57 -23v47q-68 20 -129 56q-39 22 -72 51l-2 2q-10 8 -19.5 18t-11.5 21t11 21q18 13 38 22q18 8 35 19q35 22 49 62q12 42 -10 80q-8 12 -15.5 17t-18.5 5
q16 -42 7 -85q-6 -22 -21.5 -38.5t-33.5 -28.5q-6 -3 -19.5 -0.5t-27.5 9t-22.5 13.5t-5.5 11q3 3 5 6q9 8 13.5 17t-0.5 22q-2 5 3.5 6.5t13.5 1t13 -2.5q3 7 5 14q9 44 -10 85q-2 3 -0.5 4.5t3.5 2.5t4 1q49 6 99 -13.5t79 -60.5q48 -82 -20 -150q-30 -24 -66 -41
q-2 -1 -5 -3l-6 -2q-8 -4 -15 -9.5t-2 -14.5q4 -6 10.5 -12t13.5 -11q4 -3 8 -5q55 -43 122 -61v424q0 5 11.5 4t26.5 -5.5t27 -12t12 -16.5v-10q13 -1 26.5 -7t22.5 -14q2 -1 4 -3t3.5 -5t0.5 -5q-2 -4 -6.5 -4.5t-7.5 -0.5h-43v-474q0 -5 -14.5 -3.5t-31.5 7.5t-26 16h-1
l-1 1q-33 16 -66 26z" />
    <glyph glyph-name="bn_ga_ukaar" horiz-adv-x="470" 
d="M426 161v0q27 -23 30.5 -55.5t-20.5 -59.5q-60 -52 -140 -45q-59 6 -115 23l-8 2q-57 16 -113 37q-4 2 -12.5 6.5t-15 10.5t-4.5 12q3 5 10.5 5t16 -3t13.5 -5q1 0 1 -1q3 -1 5 -1q3 -1 5 -2q3 -1 5 -2q14 -5 28 -9q27 -9 54 -16q1 0 3 -1q50 -16 101 -16q35 2 70.5 21.5
t41.5 56.5q1 16 -5 32v0v0q-2 4 -7 4v0q-5 -1 -9.5 -1t-6.5 -1q-17 -5 -31 -16q-7 -4 -20 -1t-26.5 10.5t-21 15.5t-2.5 13q9 6 17 12q25 16 46 38q1 1 2 3q22 20 30 47q6 32 -10 56q-1 2 -3 2t-4 -2q-7 -19 -16 -37q-1 -3 -5 -4q-9 -3 -23 1t-28 11q-9 6 -14 11v0h-1v0v0
q-7 7 -4 13q3 15 -3 28.5t-17 24.5q0 1 -1 1v1l-0.5 0.5t-1.5 0.5q-2 3 -5 4t-8 0q-46 -15 -77 -50q-2 -2 -1 -4t3 -2q16 -3 31 -8q25 -7 49.5 -23t34.5 -41q6 -22 -6 -43.5t-29 -35.5q-34 -32 -82 -33q-29 0 -53 17l-5.5 5.5t-6 7.5t-2 7t7.5 3q32 1 58.5 19.5t39.5 48.5
q8 16 1 33q-1 1 -2 3q-1 1 -3 1q-24 1 -49 4q-14 2 -27 3q-23 3 -42 15q-2 1 -7.5 4.5t-9.5 8t-2 8.5q25 40 66.5 70t90.5 22q39 -7 81 -36q2 -1 3.5 -0.5t2.5 2.5q6 16 14 31q3 5 10 5t14.5 -2t12.5 -4q1 0 1 -1q11 -3 21.5 -9.5t15.5 -16.5q11 -20 26 -39q19 -26 32 -53.5
t7 -59.5q-9 -29 -32 -50l-3 -3v-1q-2 -1 -1.5 -3t2.5 -2q21 -9 37 -23z" />
    <glyph glyph-name="bn_g_ga" horiz-adv-x="626" 
d="M643 397v0q2 -1 4 -3.5t3.5 -5t0.5 -5.5q-2 -3 -6 -3.5t-8 -0.5h-1h-39v-384q0 -4 -12 -3.5t-27 5t-26.5 12t-11.5 16.5v165v2q-1 48 -14.5 96.5t-53.5 79.5q-3 2 -7 4t-7 4h-0.5h-1.5t-1.5 0.5l-0.5 0.5q-8 0 -14 -4.5t-12 -10.5q-3 -2 -6 -5q-25 -22 -48 -46
q10 -1 19 -3q26 -5 53 -19t40 -39q8 -22 -1.5 -45t-23.5 -41q-29 -35 -74 -43q-14 -1 -28.5 4t-25.5 12q-4 3 -9 8t-6 9.5t8 5.5q30 5 51.5 27.5t31.5 50.5q6 17 0 34q-26 0 -53 -2q-12 -1 -24 -1q-24 -1 -46 11q-1 0 -5.5 3t-9.5 6.5t-7.5 7t-0.5 6.5q19 22 39 43
q-14 6 -25 17q-7 7 -15.5 13.5t-16.5 9.5q-4 2 -9.5 2t-10.5 -2q-11 -6 -21 -16q-4 -3 -7 -7q-13 -10 -25 -20q-6 -6 -13 -12l10 -2q27 -3 55 -16t43 -37q10 -22 0 -44.5t-25 -38.5q-29 -32 -73 -39q-13 -1 -28 4t-26 13q-4 2 -9 7t-5.5 9.5t7.5 5.5q60 13 83 70q3 8 3 15
t-2 14v0h-2q-26 0 -52 -2q-12 0 -24 -1q-24 0 -46 12q-1 0 -5.5 2.5t-9.5 6.5t-7.5 7.5t-0.5 6.5q35 36 73 69l8 8q13 12 27 21q15 7 31 6q79 -5 142 -58q21 24 45 40q27 13 61.5 3.5t59.5 -23.5q26 -13 48 -31v96q0 4 11.5 3.5t26.5 -5t27 -12t12 -16.5v-7q26 -5 46 -21z
" />
    <glyph glyph-name="bn_g_da" horiz-adv-x="620" 
d="M652 397v0q16 -18 -7 -18h-267v-152q65 77 158 104q11 2 23.5 -2t21.5 -10q4 -1 10 -4.5t10.5 -8.5t3.5 -10q-26 -100 -24 -203q1 -40 4 -79q1 -2 1 -5q1 -28 10 -53q2 -5 -2 -7t-10.5 -1.5t-12.5 1.5t-8 2q-11 3 -24.5 9.5t-19.5 17.5q-9 27 -10 57q0 3 -1 6
q-3 39 -4 78q-1 66 9 132q-71 -60 -123 -132l-6 -8q-7 -8 -24 -4q-18 2 -38 11t-20 22v82q-2 43 -16.5 84t-51.5 64q-1 1 -2 1q-5 3 -8 4.5t-9 1.5q-7 0 -13 -4.5t-12 -9.5q-3 -3 -6 -5q-23 -19 -45 -39q5 0 10 -1q27 -4 55 -17t43 -37q10 -21 0 -43.5t-25 -38.5
q-29 -33 -73 -39q-13 -2 -27.5 3.5t-26.5 12.5q-3 2 -8 7t-6 9.5t7 6.5q60 12 83 69q3 9 3 15.5t-2 14.5v0h-2q-26 0 -52 -2q-12 -1 -24 -1q-24 0 -45 11q-2 1 -6 3.5t-9 6t-8 7.5t-1 6q26 28 54 53q5 5 11 10q20 21 43 35q27 13 60.5 4t58.5 -21q26 -13 50 -30v97
q0 5 11.5 4t26.5 -5.5t26.5 -12t11.5 -16.5v-12h220q13 0 28.5 -6t25.5 -15z" />
    <glyph glyph-name="bn_g_dha" horiz-adv-x="550" 
d="M584 397v0q15 -18 -7 -18h-204v-187q45 16 89 34q10 3 22.5 0t22.5 -8q3 -1 10.5 -5t13 -9t3.5 -11q-6 -21 -13 -40q-21 -49 -25 -102q-2 -42 15 -80q19 -32 50 -53q9 -7 6.5 -12t-13.5 -5q-30 2 -53 21q-34 24 -57 58q-23 39 -23 84q-1 42 11 82q1 4 2 7
q-30 -11 -61 -23v-128q0 -2 -3 -3q5 -10 -12 -10q-75 -1 -148 20q-4 1 -11 3q-18 4 -39.5 12t-35.5 20t-8 30q5 13 16.5 22t22.5 16q24 14 49 25q17 7 34 13q30 11 60 25v36q-1 1 -1 2q0 44 -14 88.5t-53 69.5q-1 0 -2 1l-7 3.5t-9 1.5q-7 0 -13 -4t-12 -9l-5 -5
q-23 -19 -44 -39q4 0 9 -1q27 -3 54.5 -16t41.5 -36q10 -22 0.5 -44t-24.5 -38q-29 -32 -72 -38q-13 -1 -27.5 4t-25.5 12q-3 2 -8 7t-6 9.5t7 6.5q59 12 81 68q3 8 3 14.5t-1 14.5h-1h-2q-25 0 -51 -2q-11 -1 -23 -1q-24 0 -45 11q-1 0 -5 3t-9 6.5t-8 7t-1 6.5
q26 27 53 51q5 5 11 10q20 21 43 35q26 12 59 3.5t57 -20.5q27 -13 50 -31v100q0 4 11.5 3.5t26 -5t26 -12t11.5 -16.5v-14h158q13 0 28 -6t25 -15zM206 39v0q45 -11 93 -12q-1 3 -1 5v79q-43 -16 -82 -41q-11 -7 -20 -17q-2 -4 -3 -9q-1 0 -1 -1z" />
    <glyph glyph-name="bn_g_na" horiz-adv-x="402" 
d="M436.5 389q1.5 -3 0.5 -6q-2 -3 -6.5 -3.5t-7.5 -0.5h-1h-49v-374v-1v-1q1 -4 0 -5v-21q0 -4 -11.5 -3.5t-26.5 5t-26.5 12t-11.5 16.5v20q-13 33 -40 49t-57 25l-30 8q0 -1 1 -3t1 -3q10 -33 10 -66q4 -14 1 -31q-1 -6 -12.5 -5.5t-26 5.5t-25.5 12t-12 14q-1 13 -1 26
v6q-2 6 -5 9q-4 3 -8.5 7t-5 8.5t7.5 6.5q4 1 9 1q0 1 -1 2v2q-3 14 -8 27q0 2 -1 3q-1 3 -2.5 7t-0.5 7q5 9 22.5 8t37.5 -7t32 -10q4 -2 6 -2q54 -15 108 -44v160q-3 38 -18.5 72.5t-51.5 51.5q-15 7 -26.5 2t-23.5 -15q-3 -2 -6 -5q-18 -13 -35 -28q5 0 10 -1
q25 -3 51.5 -14.5t41.5 -32.5q11 -20 2.5 -40t-23.5 -35q-30 -32 -74 -38q-13 -1 -27 3.5t-24 12.5q-4 2 -8.5 6.5t-5.5 9t7 5.5q28 4 50.5 21.5t32.5 43.5q4 9 3 18q0 2 -1 4h-4q-3 1 -6 1q-24 -1 -49 -2q-11 0 -23 -1q-25 0 -47 13q-3 2 -8.5 5.5t-8 8t1.5 8.5
q24 24 50 45q5 5 10 9q21 19 44 32q24 11 54.5 4t53.5 -17q31 -12 58 -32v99q0 5 11.5 4t26.5 -5t26.5 -11.5t11.5 -16.5v-16h24q17 -2 27.5 -14t12 -15z" />
    <glyph glyph-name="bn_g_ba" horiz-adv-x="404" 
d="M436 397v0q15 -18 -7 -18h-54v-380q0 -2 -2 -3q4 -10 -13 -10q-76 -1 -148 20q-5 2 -12 3q-18 5 -40 12.5t-36 20t-8 30.5q6 12 17 21.5t23 16.5q24 14 50 25q16 7 33 13q31 12 61 26v36q-1 1 -1 2q0 45 -14 89t-53 70q-1 0 -2 1q-5 3 -8 4t-9 1q-7 0 -13 -4t-12 -9
q-3 -3 -6 -5q-22 -19 -44 -39q5 0 10 -1q26 -4 54 -16.5t42 -36.5q11 -21 1 -43.5t-25 -38.5q-29 -32 -72 -38q-14 -2 -28 3t-26 13q-3 2 -8 7t-6 9.5t8 5.5q58 12 81 69q3 8 3 15t-1 14h-1h-2q-26 0 -51 -2q-12 0 -24 -1q-24 0 -45 11q-1 1 -5.5 3.5t-9.5 6t-7.5 7.5
t-0.5 6q26 27 53 52q5 5 11 10q20 21 43 35q26 13 59.5 4t57.5 -21q27 -12 51 -31v102q0 5 11.5 4t26 -5t26 -11.5t11.5 -16.5v-17q15 0 7 0q13 0 28 -6t26 -15zM207 37v0q46 -12 93 -12v4v80q-44 -16 -83 -41q-11 -7 -20 -17q-2 -4 -3 -9l-1 -1q7 -3 14 -4z" />
    <glyph glyph-name="bn_g_ma" horiz-adv-x="547" 
d="M573 396v0q15 -17 -7 -17h-48v-379v-3v-11t-12 -4t-26.5 5.5t-26 11.5t-11.5 17q0 -2 0 1q-7 23 -23.5 39t-35.5 29q-2 1 -4 3q-1 0 -1 1q-1 0 -1 1v-1v-1v-7q1 -6 1 -12t-1 -11q-5 -10 -17.5 -10t-25.5 5t-20 8q-29 17 -41.5 48.5t-12.5 63.5q-1 4 1 5.5t6 2.5
q16 4 32 -1v30v2q-1 44 -14.5 88.5t-53.5 69.5q-1 1 -2 1q-4 3 -7.5 4t-8.5 2q-7 0 -13.5 -4.5t-11.5 -9.5q-3 -2 -6 -5q-23 -18 -44 -38l10 -2q26 -3 54 -16t42 -36q10 -22 0.5 -44.5t-25.5 -38.5q-28 -32 -71 -38q-14 -1 -28.5 4t-25.5 12q-4 2 -8.5 7t-5.5 9.5t7 6.5
q59 12 82 69q3 8 3 14.5t-2 13.5v1h-2l-52 -2q-11 -1 -23 -1q-24 -1 -45 11q-1 0 -5.5 3t-9.5 6.5t-7.5 7t-0.5 6.5q25 27 53 52q5 5 11 10q20 20 43 35q26 12 59.5 3t57.5 -21q27 -12 50 -30v101q0 5 11.5 4t26.5 -5t26.5 -11.5t11.5 -16.5v-16h144q13 0 28.5 -6.5
t25.5 -15.5zM442 83v0v296h-67v-245v-1q14 -10 27 -20l26 -20q5 -3 10 -7q2 -1 4 -3z" />
    <glyph glyph-name="bn_g_ra" horiz-adv-x="465" 
d="M500 397v0q15 -18 -7 -18h-57v-380v-1v-28q0 -5 -14.5 -3.5t-31 7.5t-25.5 15v0q-1 1 -2 1q-141 69 -295 32q-13 -2 -28.5 3.5t-25.5 12.5q-4 3 -9 7.5t-5.5 8.5t7.5 6q182 38 353 -38v115v1v59v3q0 47 -14 95t-55 75q-2 1 -3 2q-4 3 -7 4t-7 1q-7 0 -13.5 -4.5
t-12.5 -10.5l-6 -6q-23 -20 -45 -42q7 -1 15 -2q26 -4 53 -17t41 -38q9 -21 0 -44t-23 -40q-29 -35 -74 -42q-14 -2 -28.5 3t-25.5 13q-3 2 -8 6.5t-6 9.5t7 6q31 5 52.5 27t30.5 51q3 8 2.5 14.5t-2.5 14.5h-2q-26 0 -51 -2q-12 -1 -24 -1q-24 0 -45 11q-1 1 -5.5 3.5
t-9.5 6t-7.5 7t-0.5 6.5q47 56 105 101q25 15 60 6t59 -22q28 -13 50 -32v104q0 5 12 4t26.5 -5t26 -11.5t11.5 -16.5v-17q15 0 10 0q13 0 28 -6t26 -15z" />
    <glyph glyph-name="bn_g_la" horiz-adv-x="404" 
d="M433 397v0q16 -18 -7 -18h-51v-405l2 -10q0 -8 -11.5 -8.5t-27.5 4t-28 12t-13 15.5q-7 48 -49 77q-4 -29 -15 -58q-5 -13 -8 -25q0 -8 -5 -17q-6 -8 -26 -4t-37 14.5t-16 21.5q1 6 3 12q-1 11 -8.5 22t-15.5 21q-5 -39 -20 -76q-4 -7 -17 -6t-29 7t-26 14.5t-8 15.5
q3 8 6 17v0v1q1 3 1 6v8q-1 2 -1 4v0v0l-1 1v0l-1 1l-8 8q-5 7 -1.5 9.5t11 3t11.5 -0.5v0v0q1 3 1 6q3 10 4 22t0 23h-1l-3 3q-7 8 -3.5 12t13.5 4q35 -1 64.5 -18.5t51.5 -42.5q7 25 2 51q-2 8 6.5 8.5t21 -2.5t23 -7.5t13.5 -6.5q9 -5 17 -11q27 -17 52 -36v141v2
q0 45 -14 89t-54 70q-1 0 -2 1q-4 3 -7 4t-9 1q-7 0 -13.5 -4t-11.5 -9q-3 -3 -6 -5q-23 -19 -44 -39q5 0 10 -1q26 -4 54 -16.5t42 -36.5q10 -21 0.5 -43.5t-24.5 -38.5q-29 -32 -72 -38q-14 -2 -28.5 3t-25.5 13q-3 2 -8 7t-6 9.5t7 5.5q59 12 82 69q3 8 3 15t-2 14v0h-2
q-26 0 -51 -2q-12 0 -24 -1q-24 0 -45 11q-1 1 -5.5 3.5t-9.5 6t-7.5 7.5t-0.5 6q25 27 53 52q5 5 11 10q20 21 43 35q26 13 59.5 4t57.5 -21q27 -12 50 -31v102q0 5 11.5 4t26.5 -5t26.5 -11.5t11.5 -16.5v-17h5q13 0 28 -6t25 -15zM73 103v0v0v0v0v0z" />
    <glyph glyph-name="bn_gh_na" horiz-adv-x="389" 
d="M349 63l-43 3q-30 1 -60 6q-107 14 -182 86q-23 20 -23 44q0 27 22 47t62 40q22 15 42 25q6 3 13 3q14 0 38 -12q10 -5 17 -12t7 -10q0 -2 -11 -9q-42 -22 -81 -48q-31 -19 -31 -49q0 -11 7 -21q12 -17 31 -28q4 -3 7 -5l3 -1l9 -3q23 -8 53 -12q16 -2 69 -5
q30 -3 54 -21q6 -6 6 -12t-9 -6zM352 -100q-15 0 -31 5q-38 11 -38 29v475q0 4 12 4q11 -1 26 -5.5t27 -12t12 -16.5v-476q0 -3 -8 -3zM400 379h-378q-13 0 -28 6q-33 13 -33 26q0 7 14 7h378q13 0 29 -6q32 -14 32 -27q0 -6 -14 -6zM160 235q-8 0 -16 3q-16 4 -17 5
q-30 10 -59 31q-44 31 -44 67q0 27 27.5 51t62.5 26q13 -1 29 -7q32 -12 32 -26q0 -6 -13 -7t-25.5 -10.5t-20 -18t-12 -18t-4.5 -17.5q0 -26 29 -42q6 -2 6.5 -2.5t0.5 -1.5l-2 1l16 -6q21 -12 21 -21v-2q-3 -5 -11 -5zM87 22q-3 18 -9 31q0 2 -1 4t-2 6v7q4 8 30 8
q17 -2 62 -17q157 -39 192 -133l1 -3q0 -5 -9 -5q-17 0 -24 3q-38 10 -44 27q-20 56 -99 76l-31 9q1 -1 2 -3l1 -3q10 -33 10 -67q2 -9 2 -18q0 -7 -1 -12.5t-9 -5.5q-15 0 -29 5q-36 12 -38 27.5t-2 32.5v1q-1 4 -4 6q-5 3 -9.5 7.5t-4.5 10.5t16 6z" />
    <glyph glyph-name="bn_gh_ba" horiz-adv-x="388" 
d="M167 314v0v0q11 5 26 0.5t25 -9.5q2 -1 7 -4t9.5 -7.5t6.5 -8.5t-3 -6q-4 -3 -7 -5q-42 -22 -81 -48q-23 -14 -30 -39q-4 -17 5 -29.5t22 -22.5q6 -5 10 -7.5t8 -5.5q4 -1 1 0l6 -2v0q2 -1 3.5 -1.5t5.5 -1.5q23 -7 48 -10q19 -2 37 -3l32 -2q30 -3 54 -21
q8 -8 6.5 -13.5t-13.5 -4.5q-19 2 -39 3q-30 1 -60 6q-82 11 -150 59q-16 11 -32.5 26.5t-21.5 35.5q-4 33 20 55q21 19 47 32q8 5 16 9q9 6 18 11q12 8 24 14zM22 379v0v0q-13 0 -28.5 6t-26.5 15q-15 18 8 18h378q13 0 28.5 -6.5t26.5 -15.5q15 -17 -8 -17h-378zM114 418
v0v0q13 -1 28.5 -7t25.5 -15q16 -16 -7 -18q-12 -1 -24.5 -10.5t-19.5 -17.5q-8 -9 -13 -20t-3 -23q7 -23 28 -35l1 -0.5t2 -0.5q1 -1 2.5 -1.5t1.5 -1t-1 0.5q-1 0 -1.5 0.5l-0.5 0.5l0.5 -0.5l0.5 -0.5q1 0 2 -0.5l1 -0.5q4 -1 12.5 -5.5t15.5 -10.5t6 -12q-3 -5 -11 -5
t-16.5 2.5t-14.5 4.5q-1 0 -2 1q-30 10 -59.5 31t-41.5 51q-9 37 22 64t66 29zM360 159v-209q0 -2 -2 -3q4 -10 -13 -10q-77 -1 -149 20q-5 2 -12 3q-18 5 -40.5 12.5t-36.5 20.5t-8 31q6 12 17 21.5t23 16.5q25 14 51 25q16 7 33 13q31 12 61 26v33h76zM191 -12
q46 -12 93 -12v85q-44 -16 -83 -41q-11 -7 -20 -18q-2 -4 -3 -9l-1 -1q7 -3 14 -4zM283 61v348q0 4 11.5 3.5t26.5 -5t27 -12t12 -16.5v-318h-77z" />
    <glyph glyph-name="bn_gh_ra" horiz-adv-x="389" 
d="M167 287v0v0q8 5 21.5 1.5t27 -11t20.5 -15t3 -11.5q-20 -14 -40 -29q-15 -12 -30 -23q-44 -27 -50 -78q0 -28 19 -48.5t45 -29.5q56 -15 115 -13q14 0 29 -6t26 -15q16 -17 -7 -18q-83 -2 -161 23q-41 13 -79 36.5t-57 63.5q-13 29 -3.5 57.5t33.5 48.5q14 13 30 23
q13 9 24 18q2 1 3 2q15 12 31 24zM283 409v0v0q0 4 12 3.5t27 -5t26.5 -12t11.5 -17.5v-383q0 -5 -11.5 -4t-26.5 5.5t-27 12t-12 16.5v384zM22 379v0v0q-13 0 -28.5 6t-25.5 15q-16 18 7 18h379q13 0 28.5 -6.5t25.5 -15.5q15 -17 -7 -17h-379zM114 418v0v0q14 -1 29 -7
t25 -15q17 -17 -7 -18q-7 0 -15.5 -7t-16 -15.5t-11.5 -13.5q-19 -24 -17 -54q6 -31 31 -52q6 -5 14 -10q-1 1 -2 1.5t-1.5 0.5t0 0t2.5 -1l1.5 -1.5t1.5 -0.5t0.5 0t-1.5 0.5l-3 1.5l-6 3l1 -1q5 -2 13 -6t14.5 -9.5t4.5 -11.5q-3 -6 -12 -5.5t-18 3.5t-13 4
q-33 14 -63 39.5t-39 61.5q-7 39 20.5 75t67.5 38zM58 -54v0v0q-13 -3 -28.5 3t-25.5 13q-4 2 -9 7t-5.5 9t7.5 7q179 35 342 -49q-13 0 -26 1l-28 2q-3 6 -3 14t1 17q1 6 1 11v56q0 4 11.5 3.5t26.5 -5t26.5 -12t11.5 -16.5v-49v-11q-1 -8 -1 -16.5t3 -14.5q2 -3 0.5 -4.5
t-4.5 -2.5t-6 -1h-5q-20 1 -38 11q-120 58 -251 27z" />
    <glyph glyph-name="bn_ng_ka" horiz-adv-x="524" 
d="M552 396v0q15 -17 -7 -17h-125q-4 -35 -30 -53t-61 -14q-76 11 -134 67h-55q29 -19 46 -45q13 -2 24 -5q59 -14 108 -49q32 -5 63 -16q44 -14 84 -39q18 -11 29 -27.5t6 -37.5q-3 -9 -8 -18q5 -3 8.5 -6.5t4 -7t-3.5 -4.5q-8 -3 -14 -10q-5 -5 -11 -8q-19 -9 -39 -8
q-4 0 -15.5 4t-24 9.5t-19 12t-0.5 11.5q10 8 25.5 23t22 32t-9.5 30q-15 10 -34 15q-3 1 -5 2q-17 6 -33 7v-253q0 -1 -2 -2q-3 -4 -12 -4q-87 0 -168 29q-33 11 -68 35t-42 62q-1 33 24.5 56.5t53.5 38.5q1 1 3 2q33 20 67 38q30 16 59 33l-6 4q-9 4 -16 7q-19 5 -38 7
q0 -11 -3 -23q-14 -39 -57 -41.5t-74 12.5q-19 9 -30.5 24t-10.5 36q3 18 16.5 24.5t28.5 8.5q21 4 42 4q-9 24 -33 37h-91q-13 0 -28.5 6t-25.5 15q-15 18 7 18h558q13 0 28.5 -6.5t25.5 -15.5zM135 115v0q-12 -24 -1 -45t35 -30q48 -16 99 -16v185l-44 -24q-4 -2 -8 -5
q-23 -12 -45.5 -27.5t-35.5 -37.5zM311 348v0q24 9 34 31h-98q12 -15 29 -25.5t35 -5.5z" />
    <glyph glyph-name="bn_ng_kha" horiz-adv-x="725" 
d="M257 86h-13q-74 0 -134.5 43t-85.5 120v2q0 3 2.5 4t7.5 1l16 -3q31 -10 36 -22q11 -40 37 -74q30 -40 75 -40q43 0 82.5 26t52.5 71q2 7 2 15l-1 12l-2 -1q-5 -4 -10 -7.5t-11 -13.5q-26 -53 -77 -53q-20 0 -43 11q-44 20 -44 83v43q-93 28 -106 98v1q0 5 8 5q9 0 21 -3
q29 -7 33 -21q5 -42 39 -55l4 -1v11q0 20 5.5 41t28.5 31t48 10q14 0 30 -3q4 1 10 1q19 0 53 -39q12 -14 12 -35q0 -16 -15 -29q-24 -23 -92 -23h-17q0 -68 4 -88q24 14 37 41q21 32 55 32q1 0 19 -0.5t48 -23.5q25 -19 25 -44q0 -28 -16 -52q-29 -41 -77 -60
q-31 -10 -47 -11zM208 325q62 5 62 43q0 3 -0.5 6t-2.5 7t-3 7q-56 -3 -56 -63zM622 452q0 4 12 4q27 -2 52 -17q11 -8 11 -21q13 -2 26 -7q19 -8 26 -17l5 -8q0 -6 -6 -6.5t-51 -0.5v-426q0 -2 -3.5 -3t-7.5 -1l-69 5q-49 2 -98 10q-61 12 -108 43q-24 15 -24 27t25 23
q18 10 48 35q65 54 67 87q0 20 -12 39q-12 18 -28 24q4 -17 5 -35q3 -27 -4 -53q-11 -27 -34 -36t-50 -5q-30 2 -54 21q-8 7 -6.5 12.5t13.5 4.5q44 -4 56 38q6 23 2 47v4q0 19 -9 35q-4 7 -0.5 9.5t10 3t11.5 -0.5q49 -10 94.5 -30.5t72.5 -64.5q6 -13 9 -26q1 -6 1 -11
q-1 -23 -17 -42q-20 -24 -28 -29q-33 -34 -84 -68q-3 -2 -7 -4t-5 -2h-1q1 -2 3 -3t5.5 -2t30 -7t77.5 -6l44 -3v463z" />
    <glyph glyph-name="bn_ng_ga" horiz-adv-x="406" 
d="M444 397v0q15 -18 -7 -18h-59q1 -1 0 -3q-1 -29 -21 -50q15 -6 25 -14t7 -13q-64 -93 -54 -206q3 -49 19 -95t49 -83q6 -7 2 -9.5t-11 -3t-11 0.5q-30 5 -51 25q-68 81 -73 188q-2 20 -2 40q-21 -17 -45 -31q-1 0 -2 -1v0q-6 -4 -12 -7q-50 -25 -105 -28q-29 0 -54 16
q-2 2 -6 5.5t-6.5 7t-2 6.5t7.5 4q45 1 85.5 20t56.5 64q9 33 -0.5 66.5t-34.5 57.5v-87q3 -15 3 -30q0 -7 -6 -8t-13.5 0.5l-12.5 2.5h-1q-15 5 -28 13q-2 1 -5.5 3.5t-6.5 5.5t-3 6v0q0 16 -3 32q-4 14 -12 25l-2 4q-3 5 2 6.5t12 0.5v69v0v0h-41q-13 0 -28 6.5t-26 14.5
q-15 18 7 18h415q13 0 28 -6t26 -15zM123 379v0q43 -18 78.5 -49.5t49.5 -74.5q19 24 37 49q3 4 7 9h-4q-32 5 -65 20.5t-48 45.5h-55zM284 347v0q20 10 26 32h-73v0l1 -1q1 -9 4.5 -17t10.5 -14h0.5t2 -0.5t2.5 -0.5t2.5 -0.5l1.5 -0.5q11 -2 22 2z" />
    <glyph glyph-name="bn_ng_ma" horiz-adv-x="514" 
d="M558 397v0q15 -18 -7 -18h-66q1 -2 1 -4v-415q0 -4 -10.5 -3.5t-25 4.5t-25.5 11t-14 16q-26 19 -54 28l-6 2v-2v-2q0 -2 -1 -4q0 -15 -5 -27t-22 -14q-42 -2 -79 21q-13 8 -25.5 23t-4.5 31q7 12 17.5 14.5t23.5 2.5q12 0 24 -1v15q-27 -4 -55 -1q-78 6 -138 49.5
t-84 118.5q-2 5 2 6.5t9.5 1t11 -1.5t7.5 -2q10 -2 23 -8t17 -17q10 -33 30.5 -64.5t54.5 -42.5q37 -11 76 -2t64 39q19 26 13 58q0 1 -1 2q-10 -9 -17 -22q-7 -12 -16 -21q-21 -17 -48 -15q-25 1 -51 11.5t-41 31.5q-14 25 -12 54q0 5 -1 9q-3 32 3 63q6 33 24 57h-129
q-13 0 -28 6.5t-25 14.5q-15 18 7 18h530q13 0 28 -6t25 -15zM261 375v0q-2 0 -3 -1q-9 -1 -18 -5q-27 -16 -38 -51q20 4 38 12q9 4 16 10t8 16q0 8 -2 14q0 3 -1 5zM411 22v0v357h-97q14 -13 19 -31q6 -30 -16 -44.5t-53.5 -20t-54.5 -7.5h-3q-6 0 -12 1q-1 -8 -1 -15
q-2 -33 4 -66q1 -2 1 -4q10 5 16 12q6 9 11 17q5 9 11.5 16.5t16.5 12.5q31 12 66 -1.5t54 -40.5q14 -25 7.5 -53t-27.5 -46v-1v0v0v-1q1 -31 0 -61q30 -10 58 -24z" />
    <glyph glyph-name="bn_c_nya" horiz-adv-x="822" 
d="M729 121q4 26 -14 46q-1 0 -2 0.5t-2 0.5h-1l-22 2h-4q-28 2 -51 19q-3 2 -7 6.5t-4 9t8 4.5q22 0 43.5 5.5t34.5 25.5q11 18 5 37q-1 3 -3 6q-45 0 -77.5 -28t-48.5 -68q-1 0 -1 -1q1 -1 1 -2l7 -14q13 -31 32 -57q4 -7 10 -13t11 -9q0 -1 1 -1.5t2 -0.5q1 -1 1.5 -1
h0.5h-1q1 0 2 -1l2 -1q2 0 6 -1l8 -2q19 -2 38.5 8.5t24.5 29.5zM181 312q-32 22 -68 40v-205q14 9 26 18q21 16 40 33q3 3 7 6q17 12 28 29q12 24 -0.5 45t-32.5 34zM282 418q12 -1 26 -6q15 -6 25 -15l2 -2v17q0 3 4.5 3.5t11.5 -0.5h12q76 -14 144 -51q34 -17 56 -47
q6 -9 9 -18q6 4 13 8q64 28 131 4q29 -10 55 -31t20 -55q-10 -33 -39 -44q35 -18 51 -54q12 -38 -13 -59.5t-61 -24.5q-46 0 -89 19q-36 14 -65 39v-105q0 -1 -1 -2q-2 -2 -6 -3q-13 -3 -28.5 3t-26.5 13q-110 72 -241 76q-14 1 -29 6.5t-26 14.5q-16 17 7 18
q146 -6 274 -72v245q2 40 -32 59q-26 13 -54 20v-145q2 -15 3 -30q0 -7 -6.5 -8t-14 0.5l-12.5 2.5q-16 5 -29 13q-2 1 -5.5 3.5t-6.5 5.5t-3 6q0 17 -3 32q-4 14 -12 26q-1 2 -2 3q-3 5 2 6.5t12 1.5v89q-3 -1 -9 -1h-204q59 -28 114 -65q22 -15 41.5 -37.5t19.5 -51.5
q-1 -15 -9.5 -26.5t-19.5 -20.5q-21 -19 -43 -37q-47 -40 -104 -60q-12 -4 -25 0q-19 2 -39.5 11t-20.5 22v265h-14q-13 0 -28.5 6t-25.5 15q-15 18 7 18h307z" />
    <glyph glyph-name="bn_ch_ukar" horiz-adv-x="329" 
d="M21 379h13v0q-26 0 -41 6t-25 15q-15 18 7 18h332q13 0 28 -6.5t25 -14.5q15 -18 -7 -18h-332zM277 -84v0q4 -3 9 -7t5.5 -8.5t-7.5 -6.5q-13 -3 -28 3t-25 13q-21 13 -43 27q-69 40 -128 91q-15 13 -29 32t-3 39q9 14 27.5 18.5t36.5 6.5q8 1 14 2q45 5 85 26.5t47 71.5
q-10 -7 -20 -12q-3 -2 -6 -3q-48 -26 -101 -41q-5 -4 -23 -0.5t-35 12t-17 19.5v214q0 4 11.5 3.5t26.5 -5t26.5 -12t11.5 -16.5v-21q8 -2 15 -5t11 -6q15 -7 29 -14l58 -30q12 -6 23 -12q14 -6 21 -13q12 -9 23 -21q22 -26 21.5 -59t-22.5 -60q-26 -29 -61.5 -40t-73.5 -16
q-4 -1 -9 -1q-15 -1 -31 -6t-17 -21q2 -15 14.5 -27.5t24.5 -21.5l6 -4q45 -34 95 -64q19 -12 38 -25zM136 241v0l8 4q16 7 32.5 18.5t20.5 27.5l-58 30q-14 6 -27 13v-105q12 5 24 12zM118 -238v0q49 41 51 110q-7 2 -14 2q-20 2 -41 -4t-35 -22q-13 -18 -12.5 -40
t10.5 -41q5 -9 11 -17q1 0 3 1q4 0 8 2q10 3 19 9zM246 -85v-50q25 -16 46 -35q39 -34 69 -77q15 -21 27 -43q1 -2 3 -5q5 -8 8.5 -17.5t0.5 -19.5q-3 -7 -15.5 -6t-27.5 7t-25.5 14t-8.5 15q2 8 -2.5 18t-10.5 19l-4 6q-12 21 -27 40q-17 22 -36 41q-8 -72 -69 -105
q-52 -19 -104.5 6.5t-73.5 76.5q-18 46 11 84q35 32 83 30q40 1 79 -12v72z" />
    <glyph glyph-name="bn_ch_ba" horiz-adv-x="333" 
d="M57 -113q-15 -20 -5 -30.5t31 -14.5t39 -5v92q-1 0 -2 -1q-3 -2 -6 -3q-3 -2 -7 -3q-29 -13 -50 -35zM200 289q-43 24 -87 46v-109q13 5 25 12q3 2 8 4q16 8 33 19.5t21 27.5zM22 379q-13 0 -28.5 6t-25.5 15q-16 18 7 18h337q13 0 28.5 -6t25.5 -15q16 -18 -7 -18h-246
v-13q6 -2 9 -4l52 -28l20 -10q10 -5 20 -11q20 -9 39 -21q14 -6 20 -13q29 -22 41 -52.5t-4 -66.5q-17 -36 -52 -53t-72 -23q-13 -2 -25 -4q-11 -1 -23 -3q-2 -1 -4 -1q-8 -1 -15.5 -3t-12.5 -8q-9 -10 -4.5 -21t14.5 -20.5t18 -16.5l2 -2q50 -39 105 -72q21 -13 41 -26
q4 -3 8.5 -7.5t5.5 -8.5t-7 -7q-13 -3 -28.5 3t-26.5 13q-21 14 -42 27q-4 3 -7 5v-117q6 -10 -10 -10q-54 -1 -105 16q-23 7 -47.5 21t-34.5 37q-6 22 11 38t35 25q23 13 47 25q15 7 29 14q-21 15 -40 32q-1 1 -3 2q-13 11 -26.5 25.5t-16.5 32.5q-2 18 9.5 27t27.5 13
q20 4 42 7q32 4 61.5 13t52.5 33q21 23 24 54l-20 -12q-3 -1 -6 -3q-49 -26 -101 -42q-5 -2 -17 -0.5t-33.5 7.5t-27.5 19v190h-14z" />
    <glyph glyph-name="bn_ch_ra" horiz-adv-x="328" 
d="M20 379q-13 0 -28 6t-25 15q-15 18 7 18h333q13 0 28 -6.5t25 -14.5q15 -18 -7 -18h-333zM277 -84q4 -3 9 -7t5.5 -8.5t-7.5 -6.5q-13 -3 -28 3t-25 13q-21 13 -43 27q-69 40 -128 91q-15 13 -29 32t-3 39q9 14 27.5 18.5t36.5 6.5q8 1 14 2q45 5 85 26.5t47 71.5
q-10 -7 -20 -12q-3 -2 -6 -3q-48 -26 -101 -41q-5 -4 -23 -0.5t-35 12t-17 19.5v214q0 4 11.5 3.5t26.5 -5t26.5 -12t11.5 -16.5v-21q8 -2 15 -5t11 -6q15 -7 29 -14l58 -30q12 -6 23 -12q14 -6 21 -13q12 -9 23 -21q22 -26 21.5 -59t-22.5 -60q-26 -29 -61.5 -40t-73.5 -16
q-4 -1 -9 -1q-15 -1 -31 -6t-17 -21q2 -15 14.5 -27.5t24.5 -21.5l6 -4q45 -34 95 -64q19 -12 38 -25zM136 241l8 4q16 7 32.5 18.5t20.5 27.5l-58 30q-14 6 -27 13v-105q12 5 24 12zM292 -99v-68q0 -5 -14.5 -4t-31.5 7t-26 17h-2q-22 11 -66 23t-116 11q-13 1 -26.5 10.5
t-22.5 18.5q-3 4 -6.5 9.5t-3 9.5t8.5 4q69 -2 132 -19l47 -14q26 -11 50 -21v35z" />
    <glyph glyph-name="bn_j_u" horiz-adv-x="534" 
d="M375 -161q49 41 51 110q-7 2 -14 2q-20 2 -41 -4t-35 -22q-13 -18 -12.5 -40t10.5 -41q5 -9 11 -17q1 0 3 1q4 0 8 2q10 3 19 9zM503 -58q25 -16 46 -35q39 -34 69 -77q15 -21 27 -43q1 -2 3 -5q5 -8 8.5 -17.5t0.5 -19.5q-3 -7 -15.5 -6t-27.5 7t-25.5 14t-8.5 15
q2 8 -2.5 18t-10.5 19l-4 6q-12 21 -27 40q-17 22 -36 41q-8 -72 -69 -105q-52 -19 -104.5 6.5t-73.5 76.5q-18 46 11 84q35 32 83 30q40 1 79 -12q0 36 -13 69t-20 75l-2 30q0 69 31 134q-46 2 -90 16q-68 19 -103 54q-32 -28 -52.5 -67t-20.5 -77q0 -21 8 -37q3 1 5 3
q9 4 16 10q32 22 51 55q11 28 33 28q6 0 20 -3q43 -12 68 -43q22 -31 22 -65q0 -15 -4 -31q-13 -44 -50 -67t-80.5 -29.5t-77.5 -6.5q-52 0 -93 18t-43 19t-16.5 10.5t-14.5 15.5t9 6q18 0 34 -8q46 -20 98 -20q45 0 87.5 16t63.5 56q10 22 10 47v11q-47 -63 -104 -63
q-29 0 -63 18q-56 28 -56 91q0 19 7 39q17 52 58 96h-122q-13 0 -29 6q-31 12 -31 27q0 6 13 6h550q13 0 28 -6q32 -14 32 -27q0 -6 -13 -6h-290q11 -54 90 -54q42 0 78 12l7 1q17 0 38 -12l9 -5q14 -8 14 -16v-2q-49 -88 -51 -187q2 -35 17 -72q19 -45 19 -82v-20z" />
    <glyph glyph-name="bn_j_ja" horiz-adv-x="728" 
d="M764 397q16 -18 -7 -18h-471q4 -18 17.5 -30.5t29.5 -20.5q39 -18 81 -5q6 2 13 2q15 -1 29 -8q13 -5 22 -11t10 -13q4 -18 19 -32.5t29 -19.5q24 -9 51 -2.5t50 17.5q11 4 23.5 0.5t22.5 -8.5q4 -1 11.5 -5t14 -9.5t4.5 -11.5q-20 -36 -33.5 -76t-11.5 -81
q1 -28 13.5 -58.5t37.5 -45.5q3 -1 10 -5.5t11.5 -10.5t-0.5 -11q-6 -4 -16 -2.5t-20 5.5t-16 7q-80 41 -97 129q-8 64 18 125q-41 0 -83 17q-42 16 -76 45h-1q-26 -26 -41.5 -60t-9.5 -67q4 2 7 4q18 10 33 24q10 10 16 22q2 2 3 4q1 4 3 7t5 5q12 6 27 2.5t26 -8.5
q52 -19 65 -72q7 -48 -24 -84q-28 -29 -71.5 -38.5t-82.5 -6.5q-88 10 -166 52q-3 1 -10 5.5t-11.5 10t0.5 10.5q6 4 15.5 2.5t19 -5.5t15.5 -7h1l16 -8q4 -2 9 -4h1q1 -1 2 -1q2 -1 3 -2q8 -3 14 -5t15 -4q46 -11 91 1q22 5 41.5 15.5t31.5 29.5t14 41q0 -1 -1 -1
q-1 -1 -3 -2q-21 -19 -48 -29q-28 -9 -62.5 0.5t-55.5 32.5q-29 -25 -70.5 -33.5t-78.5 -5.5q-87 10 -166 51q-3 2 -10 6.5t-11 10t1 10.5q5 4 14.5 2.5t19.5 -5.5t15 -7h1l16 -8q5 -2 9 -4h1q1 -1 2 -1l4 -2q8 -3 13.5 -5t15.5 -4q45 -11 90 1q22 5 42 15.5t32 29.5
q11 19 13 40q-2 -1 -3 -3q-22 -18 -48 -29q-33 -10 -71.5 3.5t-56.5 43.5q-17 36 -3 76.5t43 72.5h-129q-13 0 -28.5 6t-25.5 15q-16 18 7 18h735q13 0 28.5 -6t25.5 -15zM308 309q-36 16 -72 47q-27 -26 -44 -61t-11 -69l8 4q17 9 32 23q10 10 17 23l2 4q2 4 4 7t5 5
q11 6 26 2t26 -8q26 -10 44 -30q11 16 24 30q-32 9 -61 23z" />
    <glyph glyph-name="bn_j_jha" horiz-adv-x="691" 
d="M603 379h-274q7 -34 38.5 -45t68.5 -8t63 10q10 3 23 -1.5t22 -9.5q3 -1 9.5 -5t11 -9t3.5 -9q-40 -71 -46 -151q0 -31 3 -61v-11q7 -5 7 -11v-176q6 -12 -13 -13q-59 0 -115 19q-24 8 -49.5 23.5t-35.5 40.5q-7 24 10 41t36 28q23 14 48 26q18 9 36 20q1 0 1 1q0 4 1 7
q-1 2 -1 4q-1 12 -2 23q-3 31 -3 63q2 59 25 111q-46 2 -91 16q-25 7 -53.5 20.5t-49.5 34.5q-25 -24 -43 -52q-17 -26 -26.5 -57.5t-0.5 -62.5q2 -6 5 -10q23 11 41 29q22 20 35 45q1 2 2 5q2 4 4.5 7.5t5.5 6.5q7 3 15 2.5t15 -1.5q67 -14 93 -76q15 -56 -17 -104
q-31 -40 -83.5 -53t-100.5 -10q-104 10 -198 60q-3 1 -10 5.5t-11 10t1 10.5q5 4 14.5 2.5t44.5 -17t44 -19t20 -6.5q54 -13 109 -2q43 8 79 34q19 16 28.5 41.5t7.5 50.5q-2 -2 -4 -5q-15 -18 -35.5 -35t-44.5 -23q-30 -6 -62.5 7t-54.5 34q-34 42 -21 95q15 61 61 110
h-166q-14 0 -29 6t-26 15q-15 18 7 18h628v-39zM402 -35q-6 -10 -5 -21.5t12 -17.5q20 -7 44 -6v82q-31 -13 -51 -37zM662 260v-344q0 -4 -11 -3.5t-26 5t-26.5 11.5t-11.5 16v315h75zM587 256v197q0 4 11.5 3.5t26.5 -5t26 -12t11 -16.5v-167h-75zM468 96q-9 7 -6.5 12
t13.5 5q14 0 28 -6t25 -15q44 -37 81 -82q39 -41 54 -95q0 -6 -10.5 -6.5t-25 3.5t-26.5 10.5t-14 14.5q-12 49 -48 86q-32 39 -71 73zM648 379q-13 0 -28 6t-25 15q-2 1 -4 3.5t-3.5 5t-0.5 4.5q2 3 6.5 4t7.5 1h55q14 0 28.5 -6.5t25.5 -14.5q1 -2 3 -4t3.5 -4.5t0.5 -4.5
q-2 -4 -6 -4.5t-7 -0.5h-56z" />
    <glyph glyph-name="bn_j_nya" horiz-adv-x="658" 
d="M708 397q16 -18 -7 -18h-345q-12 -36 1 -77q78 76 189 42q30 -9 58 -31.5t19 -57.5q-11 -30 -39 -40q36 -18 53 -55q14 -39 -14 -60t-64 -24q-48 0 -93 19q-34 12 -63 33q-4 -23 -15 -43q-26 -43 -77 -58.5t-99 -12.5q-102 10 -190 62q-3 1 -10.5 5.5t-12 10.5t0.5 11
q6 5 16.5 3t21 -6t16.5 -7q4 -3 9 -5l28 -14l1 -1q1 0 2 -1t2.5 -1.5l1.5 -0.5h1q2 -1 5 -2q6 -3 9 -4t7 -2q49 -14 101 -1q20 5 41.5 15t35.5 26q28 36 26 83q-28 -38 -73 -52q-31 -7 -64.5 5.5t-54.5 35.5q-16 20 -18 46.5t4 50.5q14 58 57 108h-155q-13 0 -28.5 6
t-25.5 15q-15 18 7 18h250q8 2 17 0h414q13 0 28.5 -6t25.5 -15zM263 251q16 20 42 14q7 -1 14 -3q-39 42 -46 101q-29 -26 -47 -59q-34 -52 -30 -113l2 -12q20 11 37 27q11 13 18 27q4 9 10 18zM540 316q-48 3 -85 -25.5t-55 -70.5h-1v-1l1 -1q4 -7 7 -14q15 -32 37 -60
q5 -6 11 -11.5t11 -8.5q1 -1 2 -1.5t2.5 -1l4.5 -1.5q11 -3 22 -4q20 -1 41 9.5t26 30.5q2 12 -2 23.5t-13 19.5l-8 2q-14 2 -27 2h-4q-28 3 -51 19q-3 2 -7 7t-4 9t7 4h2q23 0 45.5 5t37.5 24q6 9 8 19t-2 20q-2 4 -4 6h-2z" />
    <glyph glyph-name="bn_j_ba" horiz-adv-x="583" 
d="M615 397q16 -18 -7 -18h-279q7 -34 38.5 -45t68.5 -8t63 10q10 3 23 -1.5t22 -9.5q3 -1 9.5 -5t11 -9t3.5 -9q-40 -71 -46 -151q0 -31 3 -61v-11q7 -5 7 -11v-176q6 -12 -13 -13q-59 0 -115 19q-24 8 -49.5 23.5t-35.5 40.5q-7 24 10 41t36 28q23 14 48 26q18 9 36 20
q1 0 1 1q0 4 1 7q-1 2 -1 4q-1 12 -2 23q-3 31 -3 63q2 59 25 111q-46 2 -91 16q-25 7 -53.5 20.5t-49.5 34.5q-25 -24 -43 -52q-17 -26 -26.5 -57.5t-0.5 -62.5q2 -6 5 -10q23 11 41 29q22 20 35 45q1 2 2 5q2 4 4.5 7.5t5.5 6.5q7 3 15 2.5t15 -1.5q67 -14 93 -76
q15 -56 -17 -104q-31 -40 -83.5 -53t-100.5 -10q-104 10 -198 60q-3 1 -10 5.5t-11 10t1 10.5q5 4 14.5 2.5t44.5 -17t44 -19t20 -6.5q54 -13 109 -2q43 8 79 34q19 16 28.5 41.5t7.5 50.5q-2 -2 -4 -5q-15 -18 -35.5 -35t-44.5 -23q-30 -6 -62.5 7t-54.5 34q-34 42 -21 95
q15 61 61 110h-166q-14 0 -29 6t-26 15q-15 18 7 18h586q13 0 28.5 -6t25.5 -15zM402 -35q-6 -10 -5 -21.5t12 -17.5q20 -7 44 -6v82q-31 -13 -51 -37z" />
    <glyph glyph-name="bn_j_ra" horiz-adv-x="581" 
d="M535 -103q0 -5 -14.5 -3.5t-31.5 7.5t-26 16q-1 0 -2 1q-143 69 -299 32q-13 -2 -28 3.5t-26 12.5q-4 3 -9 7.5t-5.5 9t7.5 6.5q185 38 357 -39v103q0 1 1 2q-15 30 -20 65q-7 87 29 166q-46 2 -90 16q-26 7 -54 20.5t-50 34.5q-25 -24 -43 -52q-17 -26 -26.5 -57.5
t-0.5 -62.5q2 -6 5 -10q23 11 41 29q22 20 35 45q1 2 3 5q1 4 3.5 7.5t5.5 6.5q7 3 15 2.5t15 -1.5q68 -14 93 -76q16 -56 -17 -104q-31 -40 -83.5 -53t-100.5 -10q-104 10 -198 60q-3 1 -10 5.5t-11 10t1 10.5q6 4 15.5 2.5t19 -5t34.5 -15.5t34 -15.5t20 -6.5
q55 -13 109 -2q43 8 79 34q19 16 28.5 41.5t7.5 50.5q-2 -2 -4 -5q-15 -18 -35.5 -35t-43.5 -23q-31 -6 -63.5 7t-54.5 34q-34 42 -21 95q15 61 62 110h-166q-13 0 -28.5 6t-25.5 15q-16 18 7 18h584q13 0 28.5 -6t25.5 -15q16 -18 -7 -18h-279q7 -34 38.5 -45t68.5 -8
t63 10q10 3 23 -1.5t22 -9.5q3 -1 9.5 -5t11 -9t3.5 -9q-23 -44 -38.5 -91.5t-13.5 -97.5q2 -35 17 -73l4 -10v-133z" />
    <glyph glyph-name="bn_ny_ca" horiz-adv-x="589" 
d="M570 131q13 -38 -12.5 -59.5t-60.5 -24.5q-47 0 -90 19q-36 14 -65 39v-128q0 -4 -7 -4q-3 -1 -7 -1q-94 0 -179 37q-35 16 -66.5 44t-35.5 70q0 36 25 63.5t53 47.5q34 25 71 48q16 11 32 21q-15 25 -39.5 38t-51.5 21q-15 5 -30 9q1 -2 1 -4q1 -2 1 -3q10 -33 10 -67
q4 -14 1 -31q-1 -6 -12.5 -5.5t-26 5.5t-25.5 12t-12 14q-1 13 -1 27v6q-2 6 -5 9q-4 2 -9 6.5t-5.5 9t7.5 6.5q4 1 9 1v4q-3 14 -8 28l-2 2q-1 4 -2 7.5t0 6.5q4 10 22 8.5t38 -7t32 -10.5q4 -1 6 -2q74 -19 140 -65v114q0 5 11.5 4.5t26.5 -5.5t26.5 -12.5t11.5 -16.5
v-108q5 3 11 6q64 28 131 4q28 -10 54 -31t20 -55q-9 -33 -39 -44q36 -18 51 -54zM132 130q-13 -29 -2 -56t38 -43q45 -21 98 -19v233q-24 -15 -48 -31q-1 -1 -3 -2q-24 -16 -47 -36t-36 -46zM497 125q3 26 -14 46q-2 0 -3 0.5t-1.5 0.5h-0.5l-22 2h-5q-27 2 -50 19
q-3 2 -7 6.5t-4.5 9t7.5 4.5q23 0 44.5 5.5t34.5 25.5q11 18 4 37q-1 3 -3 6q-45 0 -77.5 -28t-48.5 -68v-1h-1q1 -1 1 -2q4 -7 7 -15q13 -30 32 -56q5 -7 10.5 -13t19.5 -14q1 0 5.5 -1t8.5 -2q19 -2 38.5 8.5t24.5 29.5z" />
    <glyph glyph-name="bn_ny_cha" horiz-adv-x="597" 
d="M576 223q13 -38 -12.5 -59.5t-60.5 -23.5q-47 0 -89 19q-38 14 -68 40q-25 24 -40 54q-6 -6 -13 -12q-9 -9 -20 -18q52 -21 88 -62q22 -25 31.5 -56.5t-8.5 -62.5q-19 -28 -51 -40t-65 -15q-47 -5 -93 -4q120 -53 231 -125q4 -3 9 -7.5t5.5 -8.5t-7.5 -7q-13 -3 -28.5 3
t-25.5 13q-135 88 -286 144q-8 2 -18.5 7.5t-13.5 13.5q-3 7 1.5 9.5t11.5 1.5q68 -8 135 -3q28 2 55 8t49 24q43 43 12 97q-9 16 -22 29q3 -39 -8.5 -72.5t-51.5 -48.5q-46 -15 -98 -4.5t-84 47.5q-13 17 -10 35t17 32q23 20 53 30q12 4 24 10q44 21 81 52q17 13 32 31
t11 41q-6 17 -22 29t-32 19q-33 13 -68 14q5 -32 9 -65l8 -64q0 -7 -10.5 -7.5t-25 4t-26.5 11.5t-15 15q-13 39 -41 70q-6 7 -2 10t11 3t11 -1q6 -1 11 -2q-4 28 -7 57q-1 6 3.5 7t9.5 1h1q117 0 212 -67q12 -8 24 -19q23 35 59 53q64 29 131 5q29 -10 54.5 -31.5
t20.5 -55.5q-10 -32 -39 -43q35 -18 50 -55zM114 88q1 0 1.5 -0.5l0.5 -0.5l-0.5 0.5t-1.5 0.5zM159 99q26 12 36.5 33.5t10.5 47.5q-14 -6 -29 -12q-18 -8 -36 -17q-19 -9 -29 -27q-4 -8 -5 -17q1 -6 3 -10l2 -4q1 0 3 -1h8q19 0 36 7zM503 218q4 26 -14 45v1h-2.5t-2 0.5
l-0.5 0.5l-22 2h-4q-28 2 -51 19q-3 2 -7 6.5t-4 8.5t7 5q23 0 44.5 5.5t34.5 25.5q11 17 4 36q-1 4 -3 6q-45 0 -77.5 -27.5t-48.5 -67.5v-1q0 -1 1 -2q3 -7 7 -15q13 -30 31 -57q5 -6 10.5 -12t10.5 -10q1 0 2 -0.5t2 -1.5q1 0 1.5 -0.5t0 0t-1.5 0.5q2 -1 3 -1l2 -1
q1 0 5.5 -1.5t8.5 -1.5q19 -2 38.5 8.5t24.5 29.5z" />
    <glyph glyph-name="bn_ny_ja" horiz-adv-x="644" 
d="M562 296q25 -7 49 -25.5t15 -47.5q-7 -17 -22.5 -29t-33.5 -19q16 -7 27.5 -15.5t8.5 -13.5q-39 -52 -33 -114t29 -119q2 -5 -2 -7t-10.5 -1.5t-12.5 1.5t-8 2q-11 3 -24.5 9.5t-18.5 17.5q-21 52 -29 108.5t15 106.5q-60 13 -113 45q-37 23 -68 52q-9 -20 -22 -37
t-28 -30l-16 -16q-12 -13 -20 -29q-5 -10 -5.5 -17.5t5.5 -16.5v-1q1 -1 2 -3.5t3 -5.5h2q9 1 17 3q36 10 57 41q4 7 6 15q3 10 8 18q8 8 19 8.5t21 -1.5q47 -11 82 -45q25 -27 27.5 -59.5t-22.5 -59.5q-26 -25 -60.5 -32.5t-69.5 -6.5q-176 3 -321 103q-4 3 -9 7.5t-5.5 9
t7.5 6.5q13 3 28.5 -3t25.5 -13q56 -40 122 -59q55 -14 112 -12q29 0 58 9.5t47 34.5q16 25 9 54l-4 10q-1 -3 -1 -5q-4 -9 -6 -13q-12 -17 -30 -29q-37 -23 -81 -21q-54 4 -96 36q-14 12 -24 30t-5 36q11 32 38 55q30 26 48 60q22 39 9 80q-8 18 -24.5 27.5t-33.5 15.5
l-16 4q-3 1 -5 1q-1 0 -1 1q0 -2 -1 -4v-3q0 -12 3 -25q2 -9 3 -18t1 -18q2 -31 7 -61q1 -7 -9 -7t-25 4.5t-27 11t-15 14.5l-2 6q-5 16 -13 30q-9 14 -21 26l-4 4q-4 5 -2.5 7.5t6 4t9.5 1t8 -0.5q5 -1 11 -3q-1 6 -1 11q-1 8 -3 16q-4 14 -3 27q1 10 9 13.5t17 2.5
q53 -4 102 -27q48 -18 85 -52q22 31 54 51q61 34 128 10q29 -9 57.5 -32t26.5 -57q-4 -21 -21 -32h1q1 0 2 -1zM360 281q30 -40 70 -69q8 -5 16 -9q23 -5 47.5 5.5t41.5 24.5q6 5 11 12.5t6 15.5l-0.5 2t-1.5 4v2q-8 1 -15 1q-20 0 -40 -3q-13 -1 -26 3.5t-24 10.5
q-2 1 -6 4t-8 6.5t-5.5 7t2.5 6.5q12 6 25 10q23 8 40 23q16 19 6 41q-1 3 -5 6q-2 2 -3 4q-5 -1 -9 -2q-14 -2 -27 -7q-22 -10 -39 -25q-33 -31 -52 -71q-2 -2 -4 -3z" />
    <glyph glyph-name="bn_ny_jha" horiz-adv-x="542" 
d="M522 185q6 -15 4.5 -30.5t-12.5 -26.5q-23 -21 -54 -24h-8v-243q1 -6 -6 -7.5t-15.5 0t-11.5 2.5q-11 3 -25.5 10t-18.5 18q-10 32 -36 54q-7 7 -14 13v-85q0 -2 -4 -3q-3 -2 -11 -2q-68 0 -132 24q-27 10 -54.5 29t-34.5 49q-4 28 15 48t41 34q26 17 53 32q16 9 31 19
q-78 40 -169 43q-14 1 -29 6.5t-25 14.5q-16 17 7 18q125 -5 235 -60v210q1 32 -26 47q-19 10 -38 15v-123q2 -13 2 -26q0 -7 -6 -8.5t-14 0t-12 3.5h-1q-15 4 -29 13q-2 1 -5 3.5t-6 5.5t-4 5v1q0 14 -3 28q-3 11 -9 21l-2 4q-3 4 1 5.5t11 1.5v104q0 5 15 4q7 0 12 -1
q68 -12 129 -45q28 -15 49 -39l14 8q61 25 122 -1q27 -10 49 -30.5t16 -52.5q-9 -28 -34 -38q30 -17 43 -48zM374 300q-28 -26 -41 -62v-1l1 -1q3 -7 6 -15q11 -26 26 -50q7 -19 29 -26q16 -1 32 9.5t20 26.5q1 9 -1 15.5t-6 13.5q-2 4 -4 10q-4 0 -9 1q-5 0 -9 1
q-29 2 -53 19q-3 3 -7 7.5t-4 9t8 4.5q18 0 36 4.5t29 21.5t5 36q0 1 -1 2h-6q-10 -2 -20 -6q-17 -7 -31 -20zM171 -32q-9 -16 -4.5 -32.5t20.5 -24.5q29 -12 61 -11v129q-6 -3 -11 -7q-3 -1 -6 -3q-17 -10 -33 -22t-27 -29zM325 -8q13 -6 23 -14q14 -10 27 -21v165
q-27 11 -50 29v-159z" />
    <glyph glyph-name="bn_tt_tta" horiz-adv-x="387" 
d="M417 397q16 -18 -7 -18h-297v-321q29 9 56 22q56 24 95 70q18 22 28.5 52t-3.5 57q-5 8 -13 14t-15 10l-6 4q-2 -8 -2 -16v-7q-2 -18 -6 -36q-9 -37 -27 -71q-4 -7 -17 -5.5t-27.5 7.5t-24.5 14t-7 14q20 41 16 87q0 8 15 8v3q1 6 1 13q0 8 1 16t6 14q9 9 25 6.5t26 -6.5
q34 -14 65 -33q34 -17 59 -46q23 -35 11.5 -73.5t-37.5 -66.5q-10 -11 -20 -20q22 -21 37.5 -48t8.5 -58q-8 -27 -31.5 -41.5t-49.5 -20.5q-68 -15 -137 1.5t-126 55.5q-4 3 -9 7t-5.5 8.5t7.5 7.5q13 2 28.5 -3.5t26.5 -13.5q76 -48 163 -21q22 6 38.5 20.5t19.5 37.5
q1 22 -10 41q-35 -21 -73 -35q-3 -1 -5 -2q-32 -13 -65 -17q-23 -2 -48 7.5t-40 28.5q-6 5 -6 11v324h-14q-13 0 -28.5 6t-25.5 15q-15 18 7 18h299q0 1 1 2q5 29 -13 53t-41 43q-6 5 -11 10q-50 47 -105 87q-10 8 -7 13t14 5q30 -2 54 -21q63 -47 119 -101q5 -4 9 -8
q19 -18 36.5 -38t22.5 -45h10q13 0 28.5 -6t25.5 -15z" />
    <glyph glyph-name="bn_tt_ba" horiz-adv-x="387" 
d="M417 397q15 -18 -7 -18h-297v-321q29 9 56 22q55 24 95 70q18 22 28 52t-4 57q-5 8 -12.5 14t-14.5 10q-4 2 -7 4q-1 -8 -1 -16v-7q-2 -18 -7 -36q-8 -37 -26 -71q-4 -7 -17 -5.5t-28 7.5t-24.5 14t-7.5 14q21 41 16 87q1 8 15 8l1 1v2q1 6 1 13q0 8 1 16t5 14
q9 9 25 6.5t27 -6.5q34 -14 65 -33q34 -17 58 -46q24 -35 12.5 -73.5t-38.5 -66.5q-3 -4 -6 -7v-275q7 -11 -12 -12q-60 0 -116 22q-26 10 -51 28.5t-32 46.5q-4 26 13 45t37 32q22 16 45 30q18 11 36 23v2q1 2 1 3q-23 -11 -47 -20q-2 -1 -5 -2q-31 -13 -64 -17
q-24 -2 -48.5 7.5t-39.5 28.5q-6 5 -6 11v324h-14q-13 0 -28.5 6t-25.5 15q-16 18 7 18h299v2q6 29 -12.5 53t-40.5 43q-6 5 -11 10q-51 47 -106 87q-9 8 -6 13t14 5q30 -2 54 -21q63 -47 119 -101q4 -4 9 -8q19 -18 36 -38t22 -45h10q14 0 29 -6t26 -15zM198 -81
q-9 -14 -7 -31t18 -26q18 -8 40 -8v109q-30 -17 -51 -44z" />
    <glyph glyph-name="bn_tt_ma" horiz-adv-x="520" 
d="M553 397q16 -18 -7 -18h-54v-492q0 -5 -11.5 -4t-26.5 5.5t-27 12t-12 16.5v12q-26 25 -56 33q-19 5 -38 8v-7q-1 -5 -1 -10v-8q1 -7 0 -14.5t-4 -13.5q-8 -13 -25 -11.5t-34 9.5t-26 15q-29 27 -39 65q-5 15 2.5 20.5t20 4.5t23.5 -3q3 -1 6 -1v5q1 3 1 7v18
q-22 -11 -45 -19q-2 -1 -5 -2q-31 -13 -64 -17q-24 -2 -48.5 7.5t-39.5 28.5q-6 5 -6 11v324h-15q-13 0 -28.5 6t-25.5 15q-16 18 7 18h300v2q6 29 -12.5 53t-41.5 43q-5 5 -11 10q-50 47 -105 87q-9 8 -6 13t13 5q31 -2 55 -21q62 -47 119 -101q4 -4 9 -8q19 -18 36 -38
t22 -45h146q13 0 28.5 -6t25.5 -15zM415 -33v412h-301v-321q28 9 56 22q55 24 95 70q18 22 28 52t-4 57q-5 8 -13 14t-15 10l-6 4q-1 -8 -1 -16v-7q-2 -18 -7 -36q-8 -37 -26 -71q-5 -7 -17.5 -5.5t-27.5 7.5t-24.5 14t-7.5 14q21 41 16 87q0 8 15 8v1q1 1 1 2q0 6 1 13
q0 8 1 16t5 14q9 9 25 6.5t27 -6.5q33 -14 65 -33q34 -17 58 -46q23 -35 12 -73.5t-38 -66.5q-5 -6 -10 -11v-1q0 -48 -1 -96q10 -2 19 -5q40 -10 75 -29z" />
    <glyph glyph-name="bn_dd_dda" horiz-adv-x="789" 
d="M839 397q16 -18 -7 -18h-288v-179q11 11 19 26q4 6 7 13q23 42 46 85q0 1 2 2q1 3 7 5q13 2 28 -3.5t26 -12.5q74 -47 94 -131q13 -74 -38 -129q-55 -48 -130 -45q-82 5 -158 38q-44 17 -88 37q-11 -7 -24 -12q-43 -17 -89 -11.5t-89 20.5q-70 23 -135 56q-3 2 -10 6
t-11 9.5t1 10.5q6 5 15.5 3t19.5 -6l15 -6q45 -24 95 -41q27 -10 59 -13t63 9q48 24 60.5 70t-8.5 91l-10 -20l-8 -14q-7 -16 -16 -30q-31 -38 -80 -42q-10 -1 -26.5 3t-30.5 12.5t-14 18.5v180h-113q-13 0 -28.5 6t-25.5 15q-15 18 7 18h809q13 0 28.5 -6t25.5 -15z
M539 132q-9 -2 -26 2t-31.5 12.5t-14.5 18.5v214h-255v-138l6 10q23 42 46 85q0 1 2 2q1 3 7 4q12 3 27.5 -3t26.5 -13q35 -23 59 -56.5t26 -77.5q2 -51 -30 -87q42 -21 89 -37q34 -13 73 -17t76 11q61 29 74 87.5t-19 112.5l-2 -4q-7 -12 -13 -24q-5 -9 -9 -18
q-9 -19 -20 -35q-35 -45 -92 -49z" />
    <glyph glyph-name="bn_nn_tta" horiz-adv-x="650" 
d="M679 397q15 -18 -7 -18h-297v-321q29 9 56 22q55 24 95 70q18 22 28.5 52t-4.5 57q-5 8 -12.5 14t-14.5 10q-4 2 -7 4q-1 -8 -1 -16v-7q-2 -18 -7 -36q-8 -37 -26 -71q-4 -7 -17 -5.5t-28 7.5t-24.5 14t-7.5 14q21 41 17 87q0 8 14 8l1 1v2q1 6 1 13q0 8 1 16t5 14
q9 10 25 7t27 -7q34 -14 65 -33q34 -17 58 -46q24 -35 12.5 -73.5t-38.5 -66.5q-55 -57 -132 -82q-2 -1 -5 -2q-31 -13 -64 -17q-24 -2 -48.5 7.5t-39.5 28.5q-6 5 -6 11v187q-5 55 -40 97q-16 20 -38 33q-16 9 -34 3q-3 -1 -6 -1q-45 -14 -64.5 -58t-10.5 -88q4 -18 14 -33
q5 0 10 1q14 6 21.5 22t9.5 34q-3 18 -5 36q0 8 14.5 7.5t32 -7t25.5 -15.5q11 -7 11 -14q1 -16 -1 -31q4 -20 9 -40q1 -5 -2.5 -7t-10 -1.5t-11.5 1.5q-13 -22 -41 -25q-38 -5 -76 10.5t-61 46.5q-35 59 -9 123.5t94 78.5h2q44 7 89 -11.5t78 -46.5v63q0 5 12.5 4t27.5 -6
h198v2q6 29 -12.5 53t-40.5 43q-6 5 -11 10q-51 47 -105 88q-10 7 -7 12t14 5q30 -2 54 -21q63 -47 119 -101q4 -4 9 -8q19 -17 36 -37.5t22 -45.5h10q14 0 29 -6t26 -15z" />
    <glyph glyph-name="bn_nn_ttha" horiz-adv-x="501" 
d="M536 397q16 -18 -7 -18h-117q51 -57 68 -132q9 -45 6.5 -94.5t-25.5 -89.5q-27 -43 -73 -52.5t-93 -0.5q-51 10 -97 36t-71 73q-1 3 0.5 4.5t3.5 2.5l4 2q103 23 161 112q7 12 13 24q-2 2 -2 5q-16 62 -68 98q-1 0 -2 1q-15 10 -37 12q-32 -2 -57 -22q-25 -19 -37 -50.5
t1 -61.5q1 -3 4 -6q1 -2 3 -5q2 1 3 2l1 1q17 11 28 29q3 16 8 32q2 5 13.5 4.5t25.5 -5t25 -12t13 -14.5q6 -6 4 -12q-5 -12 -12 -24q-4 -18 -6 -37q-2 -5 -12 -5t-23 4q-21 -7 -44 -2t-42 14q-39 17 -59 48t-9 74q11 36 40.5 59t66.5 27q41 3 82.5 -12t75.5 -37
q16 -10 29 -22q-5 32 -14 63q-8 17 -20 31q-10 11 -20 21q-19 16 -33 37q-36 69 4 136q5 6 18.5 4.5t28 -8t23.5 -14.5t6 -13q-19 -29 -20 -65t20 -66q12 -15 26 -27t26 -28h115q13 0 28.5 -6t25.5 -15zM403 140q16 68 -2 139q-7 -40 -32 -73q-59 -89 -162 -115
q34 -55 101 -46q78 15 95 95z" />
    <glyph glyph-name="bn_nn_dda" horiz-adv-x="493" 
d="M449 156v0q30 -19 30 -53q-5 -30 -27 -51q-53 -42 -122 -41q-142 1 -274 58q-3 2 -11.5 6t-15 9.5t-4.5 11.5q2 5 10.5 4.5t17.5 -3t13 -4.5q114 -52 238 -43q31 4 59.5 20.5t39.5 47.5q5 14 1 27v1q-1 1 -1.5 2t-1.5 2t-2 1q-27 -1 -52 -10q-14 -4 -27 -6
q-11 -2 -24 2.5t-23 9.5q-3 2 -8.5 6t-8.5 8.5t2 8.5q61 44 101 109q11 16 13.5 32.5t-9.5 33.5q-4 4 -7 8q-10 -28 -31 -54q-13 -17 -23 -35q-1 -3 -3 -6q-4 -6 -16 -5t-26 6.5t-23 13t-7 13.5l2 6q7 20 -4.5 39.5t-28.5 32.5q-16 10 -33 3.5t-30 -19.5
q-20 -22 -29.5 -51.5t-1.5 -58.5v-2q1 -2 1.5 -3.5t1.5 -3t2 -4.5q1 -2 2 -3t2 -1t2 0.5l1 0.5q12 9 16.5 22.5t7.5 28.5v1v1v0q0 1 1 1v2q1 5 12.5 4.5t25.5 -5.5t24.5 -12.5t9.5 -15.5q-3 -29 -3 -59v-2q-1 -4 -8.5 -4t-19.5 3q-7 -5 -17 -7q-26 -5 -54.5 6t-48.5 27
q-37 34 -34 80.5t35 82.5q34 35 78.5 31t84.5 -27q20 -11 44 -32q22 30 15 65q-1 7 6.5 7.5t19 -2.5t21 -7t12.5 -5q44 -29 81 -66q34 -33 17 -76q-21 -38 -51 -71q-4 -4 -8 -9q37 -7 68 -28z" />
    <glyph glyph-name="bn_nn_ddha" horiz-adv-x="652" 
d="M681 397q15 -18 -7 -18h-297v-321q29 9 56 22q56 24 95 70q18 22 28.5 52t-4.5 57q-5 8 -12.5 14t-14.5 10q-3 2 -7 4q-1 -8 -1 -16v-7q-2 -18 -6 -36q-9 -37 -27 -71q-4 -7 -17 -5.5t-28 7.5t-24.5 14t-7.5 14q21 41 17 87q0 8 14 8l1 1v2q1 6 1 13q0 8 1 16t5 14
q10 10 25.5 7t26.5 -7q34 -14 65 -33q34 -17 58 -46q24 -35 12.5 -73.5t-37.5 -66.5q-56 -57 -133 -82l-4 -2q-32 -13 -65 -17q-23 -2 -48 7.5t-40 28.5q-6 5 -6 11v187q-5 55 -40 97q-16 20 -37 33q-17 9 -35 3q-3 -1 -6 -1q-45 -14 -64.5 -58t-10.5 -88q4 -18 14 -33
q5 0 10 1q14 6 21.5 22t9.5 34q-3 18 -5 36q0 8 14.5 7.5t32 -7t26.5 -15.5q10 -7 10 -14q1 -16 -1 -31q4 -20 9 -40q1 -5 -2.5 -7t-9.5 -1.5t-12 1.5q-13 -22 -41 -25q-38 -5 -76 10.5t-61 46.5q-35 59 -9 123.5t94 78.5h3q43 7 88 -11.5t78 -46.5v57q0 3 7 4h320
q13 0 28.5 -6t25.5 -15z" />
    <glyph glyph-name="bn_nn_nna" horiz-adv-x="402" 
d="M296 271q-7 36 -37 67q-15 17 -37 29q-17 8 -44 2q-45 -13 -63.5 -48.5t-9.5 -69.5q2 -14 12 -25q8 0 13 1q15 5 21 17.5t9 24.5q-4 13 -6 30q0 14 14 13.5t31 -6t26 -12.5q11 -7 13 -17q1 -16 -1 -29q3 -14 9 -31q2 -13 -3 -15t-10 -1.5t-14 1.5q-13 -20 -39 -22
q-36 -4 -74 9t-60 40q-39 56 -11 115.5t95 71.5h1q43 6 87 -9q43 -15 82 -43zM298 242l-2 14v103l2 -2v93q0 4 11.5 3.5t26.5 -5t26.5 -12t11.5 -16.5v-2q28 -4 49 -21q1 -1 3 -3.5t3.5 -5t0.5 -4.5q-1 -4 -5.5 -4.5t-8.5 -0.5h-42v-450q0 -4 -11.5 -3.5t-26.5 5t-26.5 12
t-11.5 16.5v283zM299 29q-7 36 -37 67q-15 17 -37 29q-17 8 -44 2q-45 -13 -63.5 -48.5t-9.5 -69.5q2 -14 12 -25q8 0 13 1q15 5 21 17.5t9 24.5q-4 13 -6 30q0 14 14 13.5t31 -6t26 -12.5q11 -7 13 -17q1 -16 -1 -29q3 -14 9 -31q2 -13 -3 -15t-10 -1.5t-14 1.5
q-13 -20 -39 -22q-36 -4 -74 9t-60 40q-39 56 -11 115.5t95 71.5h1q43 6 87 -9q43 -15 78 -40v-96z" />
    <glyph glyph-name="bn_nn_ba" horiz-adv-x="402" 
d="M296 271q-7 36 -37 67q-15 17 -37 29q-17 8 -44 2q-45 -13 -63.5 -48.5t-9.5 -69.5q2 -14 12 -25q8 0 13 1q15 5 21 17.5t9 24.5q-4 13 -6 30q0 14 14 13.5t31 -6t26 -12.5q11 -7 13 -17q1 -16 -1 -29q3 -14 9 -31q2 -13 -3 -15t-10 -1.5t-14 1.5q-13 -20 -39 -22
q-36 -4 -74 9t-60 40q-39 56 -11 115.5t95 71.5h1q43 6 87 -9q43 -15 82 -43zM298 201v41l-2 14v103l2 -2v93q0 4 11.5 3.5t26.5 -5t26.5 -12t11.5 -16.5v-2q28 -4 49 -21q1 -1 3 -3.5t3.5 -5t0.5 -4.5q-1 -4 -5.5 -4.5t-8.5 -0.5h-42v-178h-76zM374 215v-237q0 -2 -2 -4
q4 -11 -16 -11q-77 -1 -163 23q-6 2 -15 3q-21 6 -47.5 14.5t-43.5 23t-10 35.5q8 13 21 24t27 19q29 16 60 29q20 8 40 15q37 13 73 29v37h76zM187 21q55 -13 111 -13v96q-53 -18 -99 -47q-14 -8 -24 -20q-3 -4 -4 -10l-1 -1q8 -3 17 -5z" />
    <glyph glyph-name="bn_nn_ma" horiz-adv-x="549" 
d="M595 397q16 -18 -7 -18h-67v-413q1 -2 0 -4v-2q0 -4 -11.5 -3.5t-26 4.5t-26 11.5t-13.5 16.5q-18 45 -65 67v-50q-1 -6 -2.5 -11.5t-6.5 -9.5q-8 -5 -19 -3.5t-20 4.5q-24 6 -44 23q-21 24 -28 56q-1 5 -2 9q-2 3 -3 7q-6 14 -5.5 26t19.5 14q15 0 30 -4v125
q-5 55 -40 97q-16 20 -38 33q-16 9 -34 3q-3 -1 -6 -1q-45 -14 -64.5 -58t-10.5 -88q4 -18 14 -33q5 0 10 1q14 6 21.5 22t9.5 34q-3 18 -5 36q0 8 14.5 7.5t32 -7t26.5 -15.5q10 -7 10 -14q1 -16 -1 -31q4 -20 9 -40q1 -5 -2.5 -7t-9.5 -1.5t-12 1.5q-13 -22 -41 -25
q-38 -5 -76 10.5t-61 46.5q-35 59 -9 123.5t94 78.5h3q43 7 88 -11.5t78 -46.5v93q0 4 12 3.5t26.5 -5t26.5 -12t12 -16.5v-2h166q13 0 28.5 -6t25.5 -15zM444 51v328h-69v-290q25 -12 48 -25q11 -6 21 -13z" />
    <glyph glyph-name="bn_nn_ra" horiz-adv-x="399" 
d="M419 397q1 -1 3.5 -3t3.5 -5t0 -6t-5.5 -3.5t-7.5 -0.5h-42v-384q0 -4 -11.5 -3.5t-26.5 5t-26.5 12t-11.5 16.5v218q-5 55 -40 97q-15 19 -37 32q-16 9 -34 2h-6q-44 -14 -63.5 -57.5t-10.5 -86.5q4 -18 14 -33q5 0 10 1q13 6 20.5 21.5t9.5 33.5q-3 18 -5 36
q0 8 14.5 7.5t31.5 -7.5t26 -16q10 -6 11 -13q1 -16 -1 -30q3 -20 8 -40q1 -6 -2.5 -8t-9.5 -1.5t-11 1.5q-13 -22 -40 -24q-38 -5 -76.5 10t-60.5 47q-34 58 -8.5 122t93.5 78h2q43 7 87.5 -11.5t77.5 -46.5v92q0 4 11.5 3.5t26.5 -5t26.5 -11.5t11.5 -16v-2q28 -4 48 -21z
M338 3q-5 -6 -9 -5q-12 4 -18 8q-123 59 -257 27q-13 -2 -28.5 3.5t-26.5 13.5q-5 2 -9.5 7t-5.5 9.5t8 6.5q156 32 303 -29v45h43v-86z" />
    <glyph glyph-name="bn_t_ta" horiz-adv-x="353" 
d="M388 397v0q15 -18 -7 -18h-254q15 -6 25 -14q13 -8 26 -17l52 -36q17 -10 31 -24.5t18 -34.5q3 -39 -18 -73q-2 -3 -3 -5q12 -6 23 -13q17 -9 32.5 -24t22.5 -34q4 -17 -2.5 -31.5t-18.5 -25.5q-68 -54 -147.5 -38.5t-147.5 55.5q-3 2 -9.5 6.5t-9.5 9.5t1 9q6 4 14 2
t16.5 -6t14.5 -7h1q3 -2 5 -3q7 -4 15 -8q1 -1 3 -2q-1 1 -2 1v0h1q1 -1 2.5 -1t1.5 -1q1 0 2 -1l10 -4q13 -5 26 -8q60 -17 113 14q21 12 36.5 32t-0.5 44q-12 13 -22.5 5.5t-19.5 -20.5q-3 -4 -6 -7q-5 -6 -17 -3.5t-25 9t-21 14t-5 12.5q11 16 24 31q16 19 28.5 39.5
t13.5 46.5q0 18 -9 28t-23 18q-1 1 -3 2l-8 6q-5 3 -9 6q-4 -20 -8 -39q-6 -27 -11 -54v-1v0q0 -15 -3 -30q-1 -4 -11.5 -3t-24 6.5t-23 13t-9.5 15.5v1q2 14 2 28q-2 11 -6 21q-1 2 -2 5q-2 5 3 6t12 0q2 12 5 24q6 27 11 54q0 2 2 3l1 1h-5h-88q-14 0 -29 6.5t-25 14.5
q-16 18 7 18h377q13 0 28 -6t26 -15z" />
    <glyph glyph-name="bn_t_tha" horiz-adv-x="461" 
d="M490 397v0q2 -1 4 -3.5t3.5 -5t0.5 -5.5q-2 -3 -6 -3.5t-8 -0.5h-1h-50v-384q0 -3 -4.5 -3.5t-11.5 -0.5v0h-2q-98 -5 -190 31q-39 16 -72 42q-13 10 -23.5 24t-11.5 31q1 16 11.5 28t22.5 21q2 1 3 3q20 15 42 28q7 4 13 8q49 29 54 86q1 20 -8 40q-6 -14 -13 -28
q-6 -14 -13 -28q-4 -7 -19.5 -5t-31.5 10q-19 8 -24 18q-3 4 -1 7v8q1 17 -5 33q-3 5 -7 9t-6 7q-2 -1 -5 -1.5t-5.5 -1t-2.5 -1.5q-13 -6 -19 -19q-8 -26 7 -49q3 -5 -1 -6.5t-11 -1.5t-13 1t-7 2q-13 3 -25 9.5t-19 17.5q-11 19 -10.5 39.5t17.5 35.5q16 14 37.5 15
t41.5 -4q33 -9 63 -28l4 10q2 4 5 9q3 6 11.5 5.5t18 -3t13.5 -4.5q35 -14 66.5 -39t37.5 -66q5 -66 -48 -106q-8 -6 -21 -13q-21 -12 -42 -27t-30 -33t8 -38q28 -27 69 -33t80 -4v380v4v43q0 5 12 4t27 -5.5t26.5 -12t11.5 -16.5v-9h3q14 0 29 -6t25 -15z" />
    <glyph glyph-name="bn_t_na" horiz-adv-x="355" 
d="M130 74q7 -23 6 -46q4 -11 1 -25q-1 -9 -12 -8.5t-23 4.5t-21.5 10.5t-11.5 13.5v24q-1 2 -3 3q-3 3 -7.5 7t-5 10.5t9.5 8.5q4 1 3 1q-1 5 -5 15q-2 5 -3 8t-1 7q3 13 19 12t32.5 -5.5t44.5 -12.5t58 -27v98h74v-156q2 -5 0 -6v-31q0 -8 -11 -7.5t-23.5 4t-26 10.5
t-13.5 16v16q-9 24 -27 35.5t-32 15zM223 379l22 -10q34 -17 58 -42q53 -53 28 -119q-31 -55 -106 -68q-93 -12 -181 15h-1q-6 2 -15.5 5t-18 7t-9.5 14q-1 12 5.5 13.5t14 0t11.5 -2.5q70 -22 142 -9q65 16 85 60q15 45 -24 84q-20 19 -49 30v-78q3 -11 3 -25
q0 -12 -6 -12.5t-13.5 0.5t-11.5 2q-15 3 -28 9l-5 2.5t-7 4.5t-5 9v2q0 11 -3 21q-3 9 -10 17q-1 1 -2 4q-10 13 -2 15.5t14 2.5v48h-82q-13 0 -27.5 4t-24.5 10q-30 25 6 25h352q13 0 27.5 -4.5t34.5 -19.5t-16 -15h-156z" />
    <glyph glyph-name="bn_t_ba" horiz-adv-x="353" 
d="M223 379l22 -10q34 -17 58 -42q53 -53 28 -119q-31 -55 -106 -68q-93 -12 -181 15h-1q-6 2 -15.5 5t-18 7t-9.5 14q-1 12 5.5 13.5t14 0t11.5 -2.5q70 -22 142 -9q65 16 85 60q15 45 -24 84q-20 19 -49 30v-78q3 -11 3 -25q0 -12 -6 -12.5t-13.5 0.5t-11.5 2q-15 3 -28 9
l-5 2.5t-7 4.5t-5 9v2q0 11 -3 21q-3 9 -10 17q-1 1 -2 4q-10 13 -2 15.5t14 2.5v48h-84q-13 0 -27.5 4t-24.5 10q-30 25 6 25h354q13 0 27.5 -4.5t34.5 -19.5t-16 -15h-156zM131 23q46 -12 93 -12v84q-44 -16 -83 -41q-11 -7 -20 -17q-2 -4 -3 -9l-1 -1q7 -3 14 -4z
M259 192h40v-207v-7.5t-15 -5.5q-76 -1 -148 20q-5 2 -12 3q-18 5 -40 12.5t-36 20t-8 30.5q6 12 17 21.5t23 16.5q24 14 50 25q16 7 33 13q31 12 61 26v15h2q15 0 26 9q4 3 7 8z" />
    <glyph glyph-name="bn_t_la" horiz-adv-x="353" 
d="M300 202v-211l2 -8q0 -10 -11 -10.5t-24 3t-23 10t-11 14.5q-5 34 -30 52q-3 -16 -11 -39q-4 -9 -6 -18q0 -6 -4 -14q-7 -9 -23.5 -5.5t-31 12.5t-13.5 20q1 5 2 9q0 6 -5.5 14l-5.5 8q-3 -21 -14 -50q-5 -7 -16.5 -6.5t-24 5.5t-21.5 12.5t-6 15.5l4 12v1q1 2 1 4v5
l-1 2l-7 7q-6 9 -1.5 12.5t11.5 4l7 0.5q-1 -2 -1 0q2 8 3 16.5t0 13.5h2l-4 3q-8 9 -3.5 14t14.5 5q27 -1 50.5 -14.5t35.5 -27.5q3 11 -1 30q-2 10 7 10.5t19 -2t18.5 -6t10.5 -4.5q7 -4 13 -9q21 -13 33 -22v131h66zM223 379l22 -10q34 -17 58 -42q53 -53 28 -119
q-31 -55 -106 -68q-93 -12 -181 15h-1q-6 2 -15.5 5t-18 7t-9.5 14q-1 12 5.5 13.5t14 0t11.5 -2.5q70 -22 142 -9q65 16 85 60q15 45 -24 84q-20 19 -49 30v-78q3 -11 3 -25q0 -12 -6 -12.5t-13.5 0.5t-11.5 2q-15 3 -28 9l-5 2.5t-7 4.5t-5 9v2q0 11 -3 21q-3 9 -10 17
q-1 1 -2 4q-10 13 -2 15.5t14 2.5v48h-83q-13 0 -27.5 4t-24.5 10q-30 25 6 25h353q13 0 27.5 -4.5t34.5 -19.5t-16 -15h-156z" />
    <glyph glyph-name="bn_t_ma" horiz-adv-x="490" 
d="M386 37q-27 16 -60 22q-13 3 -27 5q1 -17 -2 -31q-6 -19 -25 -19t-34 5q-49 12 -63 58v2q-1 6 -1 13t7 11q5 3 12.5 3.5t14.5 -0.5h13v74l77 50v-134q45 -9 88 -27v-32zM386 220h76v-215q0 -3 -5 -4q-1 0 -2 -1q-13 -2 -28 3t-27.5 13t-13.5 13v191zM386 191v188h-107v39
h208q13 0 28.5 -6t25.5 -15q15 -18 -7 -18h-72v-188h-76zM223 379l22 -10q34 -17 58 -42q53 -53 28 -119q-31 -55 -106 -68q-93 -12 -181 15h-1q-6 2 -15.5 5t-18 7t-9.5 14q-1 12 5.5 13.5t14 0t11.5 -2.5q70 -22 142 -9q65 16 85 60q15 45 -24 84q-20 19 -49 30v-78
q3 -11 3 -25q0 -12 -6 -12.5t-13.5 0.5t-11.5 2q-15 3 -28 9l-5 2.5t-7 4.5t-5 9v2q0 11 -3 21q-3 9 -10 17q-1 1 -2 4q-10 13 -2 15.5t14 2.5v48h-84q-13 0 -27.5 4t-24.5 10q-30 25 6 25h354q13 0 27.5 -4.5t34.5 -19.5t-16 -15h-156z" />
    <glyph glyph-name="bn_t_ra" horiz-adv-x="442" 
d="M488 397q16 -18 -7 -18h-179q23 -10 44 -21q34 -17 57 -47q13 -23 11 -48v-271q5 -6 0.5 -8.5t-11.5 -3t-10 0.5q-30 5 -51 25q-55 55 -127 70.5t-146 -4.5q-13 -3 -28.5 3t-26.5 13q-4 3 -8.5 7.5t-5 8.5t6.5 7q84 22 170 5.5t160 -62.5v235q2 40 -32 58q-26 14 -54 20
q-2 -31 -5 -62q-5 -36 -6 -71q3 -15 3 -30q0 -7 -6 -8t-13.5 0.5l-12.5 2.5h-1q-15 4 -29 13q-2 1 -5 3.5t-6 5.5t-3 6q-1 16 -4 32q-4 14 -11 25q-2 2 -3 4q-2 5 3 6.5t13 1.5q2 19 4 39l4 44h-151q-13 0 -28.5 6t-25.5 15q-15 18 7 18h459q13 0 28.5 -6t25.5 -15z" />
    <glyph glyph-name="bn_th_ba" horiz-adv-x="365" 
d="M208 100q8 5 16 9q19 12 38 23v281q0 3 6 4q2 0 4.5 0.5t3.5 0.5h73q13 0 27.5 -6t25.5 -15q1 -1 3.5 -3t3.5 -5t1 -5q-2 -3 -6.5 -4t-7.5 -1h-59v-455q7 -12 -12 -13q-57 0 -113 22q-24 9 -49 27t-31 46q-4 25 13 43.5t36 32.5zM214 13q-9 -14 -7.5 -30t17.5 -26
q18 -8 39 -7v105q-29 -16 -49 -42zM163 42q-12 3 -23 8q-34 14 -58.5 31t-32 40t2.5 48q8 16 21.5 29t27.5 23l20 16q1 0 1 1l12 10q28 27 28.5 62t-21.5 67h-1q-14 -6 -23 -18q-13 -18 -15.5 -39t-1.5 -42q-1 -8 -12 -8.5t-26 4t-26 11.5t-12 15v2q-1 24 2 47.5t18 43.5
q31 33 76 23q93 -18 118 -109q7 -41 -12 -69q-20 -28 -52 -50q-21 -16 -38 -36q-34 -38 1 -67q17 -14 38 -18z" />
    <glyph glyph-name="bn_th_ra" horiz-adv-x="370" 
d="M325 -5h-23q-95 0 -182 40q-61 32 -82 67q-9 14 -9 28q0 25 26 49q7 7 47 39q60 39 61 87q0 35 -22 67h-1q-34 -15 -38 -57q-2 -16 -2 -42q-1 -8 -16 -8q-24 0 -48 15q-12 8 -12 17q0 30 2.5 50.5t17.5 40.5q24 25 56 25q10 0 20 -2q93 -18 118 -109q2 -11 2 -20
q0 -54 -66.5 -98.5t-66.5 -79.5q0 -20 21 -37q28 -24 65 -29q27 -4 72 -4v423q0 3 8 3q15 0 30 -4q38 -13 38 -29v-9q28 0 57 -21l4 -3q4 -6 4 -8l-1 -2q-1 -5 -13 -5h-51v-380q0 -4 -16 -4zM341 7v-102q0 -4 -9 -4q-17 0 -35.5 6.5t-27.5 17.5h-2q-29 14 -60 23
q-42 9 -101 9q-24 0 -63 -5q-34 2 -58 29q-4 5 -4 9q0 3 7 5q39 5 77 5q32 0 101 -8q35 -6 98 -35v50h77z" />
    <glyph glyph-name="bn_th_la" horiz-adv-x="365" 
d="M341 98v-211l2 -8q0 -10 -11 -10.5t-24 3t-23 10t-11 14.5q-5 34 -30 52q-3 -16 -11 -39q-4 -9 -6 -18q0 -6 -4 -14q-7 -9 -23.5 -5.5t-31 12.5t-13.5 20q1 5 2 9q0 6 -5.5 14l-5.5 8q-3 -21 -14 -50q-5 -7 -16.5 -6.5t-24 5.5t-21.5 12.5t-6 15.5l4 12v1q1 2 1 4v5l-1 2
l-7 7q-6 9 -1.5 12.5t11.5 4l7 0.5q-1 -2 -1 0q2 8 3 16.5t0 13.5h2l-4 3q-8 9 -3.5 14t14.5 5q27 -1 50.5 -14.5t35.5 -27.5q3 11 -1 30q-2 10 7 10.5t19 -2t18.5 -6t10.5 -4.5q7 -4 37 -25v131zM265 164v246q-1 2 0 3v44q0 4 11.5 3.5t26.5 -5t26.5 -12t11.5 -16.5v-9h3
q14 0 28.5 -6.5t25.5 -14.5l3.5 -3.5t3.5 -5t0 -4.5q-1 -4 -5.5 -4.5t-7.5 -0.5h-51v-215h-76zM265 74v130h76v-165q0 -3 -4.5 -3.5t-11.5 -0.5h-2q-67 -9 -108.5 -6.5t-75 16.5t-58 31t-32 40t2.5 48q8 16 21.5 29t27.5 23l20 16q1 0 1 1l12 10q28 27 28.5 62t-21.5 67h-1
q-14 -6 -23 -18q-13 -18 -15.5 -39t-1.5 -42q-1 -8 -12 -8.5t-26 4t-26 11.5t-12 15v2q-1 24 2 47.5t18 43.5q31 33 76 23q93 -18 118 -109q7 -41 -12 -69q-20 -28 -52 -50q-21 -16 -38 -36q-34 -38 1 -67q27 -22 62 -19t66 13z" />
    <glyph glyph-name="bn_d_u" horiz-adv-x="366" 
d="M327 -21q-27 0 -52 15q-20 12 -20 133q0 30 1 59q-64 -52 -139 -84q-5 -2 -11 -2q-13 0 -28 6q-42 13 -42 30v243h-14q-13 0 -28.5 6t-23.5 14t-8 13q0 6 13 6h359q14 0 29 -6q33 -13 33 -27q0 -6 -14 -6h-270q1 -2 1 -207q35 22 67 47q56 49 89 115q3 5 6.5 10.5
t14.5 5.5q5 0 17 -2.5t28 -12t16 -20.5v-1q-19 -103 -19 -207q0 -60 6 -120q0 -8 -11 -8zM211 -175v0q49 41 51 110q-7 2 -14 2q-20 2 -41 -4t-35 -22q-13 -18 -12.5 -40t10.5 -41q5 -9 11 -17q1 0 3 1q4 0 8 2q10 3 19 9zM258 98l80 -111q1 -20 1 -59q25 -16 46 -35
q39 -34 69 -77q15 -21 27 -43q1 -2 3 -5q5 -8 8.5 -17.5t0.5 -19.5q-3 -7 -15.5 -6t-27.5 7t-25.5 14t-8.5 15q2 8 -2.5 18t-10.5 19l-4 6q-12 21 -27 40q-17 22 -36 41q-8 -72 -69 -105q-52 -19 -104.5 6.5t-73.5 76.5q-18 46 11 84q35 32 83 30q40 1 79 -12l-6 127
q2 1 2 6z" />
    <glyph glyph-name="bn_d_da" horiz-adv-x="553" 
d="M485 -35q-11 0 -26 4t-27 11q-20 12 -20 114l1 19q-56 -49 -105 -68q-6 -2 -12 -2q-7 0 -17 3q-17 5 -29 14q-17 12 -17 17q-2 3 -2 6q-7 65 -7 73l1 15q-56 -49 -108 -69q-5 -2 -12 -2q-11 0 -28 7q-41 10 -41 29v243q-27 0 -42 6q-33 12 -33 27q0 6 14 6h567
q13 0 29 -6q31 -12 31 -27q0 -6 -13 -6h-476v-203q80 52 123 146q3 6 7 12t15 6q4 0 16.5 -2.5t29 -12.5t16.5 -21q-19 -104 -19 -150q0 -20 2 -36q79 54 121 146q3 6 7 12t14 6q5 0 17.5 -2.5t29 -12.5t16.5 -21q-19 -105 -19 -188q0 -46 6 -85v-1q0 -6 -10 -7z" />
    <glyph glyph-name="bn_d_d_ba" horiz-adv-x="544" 
d="M362 -63q-9 -15 -7.5 -31.5t17.5 -26.5q18 -8 40 -7v108q-30 -17 -50 -43zM489 81v-236q6 -12 -12 -13q-61 1 -117 23q-25 10 -50.5 28t-32.5 46q-3 26 13.5 45t37.5 33q21 15 44 29q19 11 40 23v22h77zM489 -34q-2 -1 -4 -1q-11 0 -26 4t-27 11q-20 12 -20 114l1 19
q-56 -49 -105 -68q-6 -2 -12 -2q-7 0 -17 3q-17 5 -29 14q-17 12 -17 17q-2 3 -2 6q-7 65 -7 73l1 15q-56 -49 -108 -69q-5 -2 -12 -2q-11 0 -28 7q-41 10 -41 29v243q-27 0 -42 6q-33 12 -33 27q0 6 14 6h547q13 0 29 -6q31 -12 31 -27q0 -6 -13 -6h-456v-203
q80 52 123 146q3 6 7 12t15 6q4 0 16.5 -2.5t29 -12.5t16.5 -21q-19 -104 -19 -150q0 -20 2 -36q79 54 121 146q3 6 7 12t14 6q5 0 17.5 -2.5t29 -12.5t16.5 -21q-17 -93 -19 -168v-112z" />
    <glyph glyph-name="bn_d_dha" horiz-adv-x="481" 
d="M465 -75q-26 2 -46 18q-29 19 -48 48q-19 34 -19 78q0 31 9 62v-1l-31 -12v59q30 11 57 22q6 2 12 2q15 0 39 -12q16 -9 16 -18q0 -8 -13 -37q-19 -47 -19 -91q0 -62 51 -97q8 -6 8 -11q0 -10 -16 -10zM254 -31v108q-57 -33 -57 -68q0 -3 0.5 -13t16.5 -20q16 -7 35 -7h5
zM319 -71q-98 2 -167 51q-33 23 -33 54q0 36 51 70q28 20 84 52q0 55 2 74q-65 -42 -140 -66q-5 -2 -10 -2q-13 0 -27 5q-43 10 -43 27v185q-26 0 -41 5q-34 11 -34 25q0 9 14 9h479q13 0 29 -5q32 -10 32 -25q0 -9 -13 -9h-389v-153q36 18 69 37q55 38 88 89q8 13 19 13
q5 0 17 -2t28.5 -9.5t16.5 -20.5q-20 -81 -20 -161v-230l2 -5q0 -7 -14 -8z" />
    <glyph glyph-name="bn_d_na" horiz-adv-x="376" 
d="M324 -28q-15 0 -30 5q-39 11 -39 28v8q-13 35 -43 51q-35 18 -95 33q4 -4 4 -10q9 -18 9 -58v-6q3 -9 3 -20q0 -5 -1.5 -10.5t-9.5 -5.5q-14 0 -29 5q-36 12 -37.5 25.5t-1.5 26t-6 16.5q-14 7 -14 17q0 6 14 6h3q-2 15 -8 30q-1 2 -2 4.5t-2 5.5t-1 6q3 10 18 10
q33 0 77 -17l5 -1q58 -16 117 -46l-1 113q0 23 2 42q-65 -42 -140 -66q-5 -2 -10 -2q-13 0 -27 5q-43 10 -43 27v185q-26 0 -41 5q-34 11 -34 25q0 9 14 9h359q13 0 29 -5q32 -10 32 -25q0 -9 -13 -9h-267q-2 0 -2 -153q36 18 69 37q55 38 88 89q8 13 19 13q5 0 17 -2
t28.5 -9.5t16.5 -20.5q-20 -81 -20 -161l1 -150v-2v-45q0 -3 -8 -3z" />
    <glyph glyph-name="bn_d_ba" horiz-adv-x="361" 
d="M204 34q-9 -15 -7.5 -31.5t17.5 -26.5q18 -8 40 -7v108q-30 -17 -50 -43zM331 -58q6 -12 -12 -13q-61 1 -117 23q-25 10 -50.5 28t-32.5 46q-3 26 13.5 45t37.5 33q21 15 44 29q19 11 40 23v32q0 23 2 42q-65 -42 -140 -66q-5 -2 -10 -2q-13 0 -27 5q-43 10 -43 27v185
q-26 0 -41 5q-34 11 -34 25q0 9 14 9h359q13 0 29 -5q32 -10 32 -25q0 -9 -13 -9h-267q-2 0 -2 -153q36 18 69 37q55 38 88 89q8 13 19 13q5 0 17 -2t28.5 -9.5t16.5 -20.5q-20 -81 -20 -161v-230z" />
    <glyph glyph-name="bn_d_bha" horiz-adv-x="417" 
d="M255 110l-1 94q0 21 2 37q-66 -39 -141 -62q-4 -1 -9 -1q-13 0 -27 4q-43 10 -43 27v170q-26 0 -40 4q-35 11 -35 25q0 10 14 10h406q13 0 29 -5q32 -9 32 -24q0 -10 -13 -10h-314q-2 0 -2 -138q37 17 70 34q55 36 88 83q8 12 18 12q5 0 17 -2t28.5 -9t16.5 -21
q-20 -75 -20 -149v-79h-76zM331 113q65 -46 65 -90q0 -41 -29 -80q-37 -52 -136 -52q-84 0 -182 45h-1q-22 11 -22 21t15 10q13 0 38 -12q3 -2 7 -2l15 -6q45 -16 78 -16q77 0 110 38q27 39 30 78q-20 -60 -78 -60l-26 2q-43 5 -86 38q-30 24 -30 51q0 10 11 32q4 5 8 14
q16 47 38 47l10 -1q21 -5 36 -16q21 -11 25 -31q0 -21 -11 -42q-3 -5 -14 -5q-6 0 -14 2q-11 -18 -11 -25q0 -4 2 -9q4 -10 13 -16q27 4 38 27q21 34 23 72q1 6 8 6q-13 26 24.5 17t45.5 -37z" />
    <glyph glyph-name="bn_d_bh_ra" horiz-adv-x="376" 
d="M339 79q2 -4 5 -7q10 -14 15 -31q0 -3 -1 -5v-92q-1 -46 -1 -92q-1 -5 -15 -3.5t-31 7.5t-25 15q0 1 -1 1q-91 69 -242 32q-13 -2 -28 3.5t-26 12.5q-4 3 -8.5 7.5t-5.5 9t7 6.5q179 38 299 -39q1 43 1 85q-24 -14 -55.5 -10.5t-54.5 14.5q-23 10 -44 28t-29 43
q-2 10 2 21t9 21q3 6 6 11q2 5 3 10q8 23 24 41q6 5 18.5 2.5t24 -8t16.5 -9.5q9 -5 16 -12.5t8 -18.5q1 -22 -10 -43q-3 -5 -10.5 -5.5t-18.5 2.5q-5 -11 -9 -23q-3 -9 0.5 -16.5t8.5 -14.5l4 -4h1q6 1 11 3q18 8 27 26q20 36 22 76zM255 110l-1 94q0 21 2 37
q-66 -39 -141 -62q-4 -1 -9 -1q-13 0 -27 4q-43 10 -43 27v170q-26 0 -40 4q-35 11 -35 25q0 10 14 10h406q13 0 29 -5q32 -9 32 -24q0 -10 -13 -10h-314q-2 0 -2 -138q37 17 70 34q55 36 88 83q8 12 18 12q5 0 17 -2t28.5 -9t16.5 -21q-20 -75 -20 -149v-110z" />
    <glyph glyph-name="bn_d_ma" horiz-adv-x="511" 
d="M255 84l-1 90q0 21 2 37q-66 -39 -141 -62q-4 -1 -9 -1q-13 0 -27 4q-43 10 -43 27v200q-26 0 -40 4q-35 11 -35 25q0 10 14 10h406q13 0 29 -5q32 -9 32 -24q0 -10 -13 -10h-314q-2 0 -2 -168q37 17 70 34q55 36 88 83q8 12 18 12q5 0 17 -2t28.5 -9t16.5 -21
q-20 -75 -20 -149v-106zM407 379h-108v39h182q13 0 28.5 -6t25.5 -15q15 -18 -7 -18h-45v-404q0 -4 -11.5 -3.5t-26.5 5t-26.5 12t-11.5 16.5v20q-26 39 -67 50q15 -36 9 -70q-4 -13 -17 -16t-27.5 -1.5t-24.5 4.5q-22 5 -40.5 17.5t-24.5 35.5l-2 8q-5 19 -7 37
q-2 9 1 13.5t11 7.5q16 6 37 7l67 -3l2 -6q20 -6 38 -13q23 -9 45 -21v304z" />
    <glyph glyph-name="bn_d_ra" horiz-adv-x="365" 
d="M280 -9q-32 15 -66 24q-80 15 -166 2q-13 -1 -27.5 5.5t-24.5 14.5q-4 3 -8.5 8t-5 9.5t7.5 6.5q83 10 161 -1q11 -2 23 -4q59 -16 90 -28zM327 -21q-28 0 -52 15q-21 12 -21 133q0 30 2 59q-64 -52 -139 -84q-5 -2 -11 -2q-13 0 -28 6q-42 13 -42 30v243h-14
q-13 0 -28.5 6t-24 14t-8.5 13q0 6 14 6h359q14 0 29 -6q32 -13 32 -27q0 -6 -13 -6h-270q1 -2 1 -207q35 22 67 47q56 49 89 115q3 5 6.5 10.5t13.5 5.5q5 0 17.5 -2.5t28.5 -12t16 -20.5v-1q-20 -103 -20 -207q0 -60 7 -120q0 -8 -11 -8z" />
    <glyph glyph-name="bn_dh_na" horiz-adv-x="340" 
d="M359 397q1 -1 3.5 -3t3.5 -5t1 -5q-2 -3 -6.5 -4t-6.5 -1h-42v-338q1 -2 0 -4v-95q1 -3 0 -5v-42q0 -4 -11 -3.5t-26 5t-27 11.5t-12 17v6q-13 35 -42 51t-61 24q-7 2 -15 4.5t-15 4.5q1 -3 2 -5.5t2 -5.5q0 -1 1 -2q9 -29 8 -60q4 -13 1 -31q-1 -5 -12.5 -4.5t-26 5.5
t-26 11.5t-12.5 13.5q-1 14 -1 27v6q-2 6 -5 8q-5 2 -9 7t-5 9t7 7q4 1 9 1q-2 15 -8 28q-1 2 -1 4l-2 6t-1 7q2 10 20.5 9.5t39.5 -6.5t33 -10q3 -1 5 -2q57 -15 114 -45v42q-60 8 -115 34q-36 16 -66 46t-31 72q2 35 27.5 62t54.5 48h-2q-28 8 -53 25t-25 47q0 15 6.5 27
t15.5 23q12 17 25 30v1q1 2 3 3q6 6 12 13q6 4 16 2.5t19.5 -6t14.5 -6.5q4 -2 11 -6t10.5 -9t-0.5 -10l-10 -10q-7 -14 -6 -28q-1 -3 -3.5 -4t-6 -1h-5.5q-4 0 -8 1q-10 -15 -16 -31q-4 -8 -3 -18q0 -1 0.5 -3t1.5 -4l3 -6q34 1 66 16q33 20 64 44h1v26q0 4 7 4q5 1 8 1h55
q12 0 27 -6.5t25 -14.5zM110 195q-16 -30 -6.5 -59t37.5 -46q44 -21 96 -20v234q-19 -12 -36 -25q-3 -2 -5 -3q-53 -32 -86 -81z" />
    <glyph glyph-name="bn_dh_ma" horiz-adv-x="496" 
d="M527 397q16 -18 -7 -18h-52v-485q0 -4 -12 -3.5t-27.5 5t-27 12.5t-11.5 18v9h-1q-1 1 -3 2q-31 25 -67 37q-2 -27 -12 -50t-38 -23q-44 3 -76 33q-10 10 -16.5 26t-1.5 29q5 10 16 15q-37 10 -70 27q-38 19 -67.5 51.5t-29.5 78.5q3 39 29.5 69.5t57.5 53.5q-7 2 -14 5
q-27 9 -49 27t-23 49q2 27 19.5 52t36.5 45q3 4 6 7q7 6 20.5 4t27.5 -9t22.5 -14.5t6.5 -10.5l-12 -14q-8 -15 -7 -32q0 -2 -3 -3t-6 -1.5t-5 -0.5h-1q-3 0 -6 1q-8 -12 -14 -24q-11 -20 -6 -41l4 -8h6q11 0 22 3q19 5 36 13q1 1 2 1t2 1q34 24 66 50v30q0 4 11 4h220
q13 0 28.5 -6t25.5 -15zM111 171q-15 -32 -6 -64.5t38 -53.5q45 -26 99 -25v266q-19 -14 -37 -29q-2 0 -3 -1q-27 -19 -51.5 -41.5t-39.5 -51.5zM390 -28v407h-71v-372q2 -2 2 -4q36 -12 69 -31z" />
    <glyph glyph-name="bn_dh_ra" horiz-adv-x="349" 
d="M370 397l4 -4t3.5 -4.5t0.5 -5.5t-5.5 -3.5t-8.5 -0.5h-43v-373q1 -1 1 -2v-8q1 -3 0 -6v-3q-1 -16 -1 -33v-10q-1 -9 -1 -17.5t3 -14.5q2 -3 0.5 -5t-4.5 -2.5t-6 -0.5h-5q-20 1 -38 11q-122 59 -254 28q-13 -3 -28.5 3t-26.5 13q-4 2 -9 7t-5.5 9t7.5 7q148 30 289 -24
v8q1 7 1 12v13q-64 8 -122 38q-38 19 -68 52t-30 78q3 40 29.5 70.5t58.5 54.5q-7 2 -14 5q-27 9 -49.5 27t-23.5 49q2 27 19.5 52t36.5 46l7 7q7 6 20.5 4t27.5 -9t23.5 -15t5.5 -11l-12 -14q-8 -15 -7 -32q0 -2 -2.5 -3t-6 -1.5t-5.5 -0.5h-1q-3 0 -6 1q-8 -12 -14 -24
q-11 -20 -5 -41q0 -2 1 -4l2 -4h7q10 0 21 3q19 5 38 13q1 1 2 1l1 1q33 23 65 50h1v30q0 3 8 4h63q14 0 29.5 -6t25.5 -15zM112 169q-15 -32 -6 -64.5t38 -53.5q45 -26 100 -25v268q-19 -14 -38 -30q-1 0 -3 -1q-26 -19 -51 -41.5t-40 -52.5z" />
    <glyph glyph-name="bn_n_jha" horiz-adv-x="628" 
d="M21 379q-13 0 -28 6t-25 15q-15 18 7 18h632q13 0 28 -6.5t25 -14.5q16 -18 -6 -18h-633zM625 -9h1q3 -2 10 -6t10.5 -9.5t-1.5 -9.5q-6 -4 -15.5 -2.5t-19 5t-15.5 6.5q-90 50 -105 151q-8 85 28 163q-45 1 -89 15q-24 7 -52 20t-49 33q-25 -22 -42 -51
q-17 -25 -26.5 -55.5t-0.5 -60.5q2 -6 5 -11q23 11 41 29q21 19 34 44q1 2 2 5q2 3 4 7t6 6q6 4 14 3.5t15 -2.5q66 -13 91 -74q15 -55 -17 -102q-30 -39 -81.5 -51.5t-98.5 -9.5q-102 9 -194 58q-3 1 -10 5.5t-11 10t1 9.5q6 5 15 3.5t18.5 -5.5t15 -6.5t10.5 -4.5
q5 -3 10 -5l6 -3q2 -1 18.5 -7.5t27.5 -9.5q53 -14 107 -3q42 8 77 33q19 16 28.5 41t6.5 50q-2 -2 -4 -5q-15 -18 -34.5 -34.5t-43.5 -22.5q-30 -6 -61.5 7t-52.5 34q-34 41 -21 93q10 43 38.5 82t67.5 61q8 4 18.5 2t20.5 -6q17 -3 33 -11t18 -18q6 -35 36.5 -46.5
t68 -8.5t62.5 11q11 2 23.5 -2t21.5 -9q3 -2 9 -5.5t11 -8.5t3 -9q-22 -43 -37 -89.5t-14 -95.5q2 -34 16.5 -71.5t45.5 -56.5zM244 220q-13 33 -42 48q-31 16 -63 24q-16 5 -32 9q2 -2 3 -5t1 -5q1 -2 1 -3q9 -30 8 -61q4 -14 2 -31q-2 -6 -13 -5.5t-26 5.5t-26 12t-12 14
q-1 13 -1 27v6q-2 6 -6 9q-4 2 -9 6.5t-5.5 9t7.5 6.5q5 2 10 1q-2 15 -8 30q-1 2 -1 3q-2 4 -3 7t-1 6q3 11 21 10t39.5 -6.5t34.5 -10.5q3 -1 5 -1q58 -16 116 -45v-60z" />
    <glyph glyph-name="bn_n_ttha" horiz-adv-x="464" 
d="M489 397q15 -18 -7 -18h-106q50 -56 67 -130q9 -44 6.5 -92t-24.5 -88q-27 -42 -72 -51.5t-91 -0.5q-51 9 -96 35t-69 72q-1 3 0 4.5t3.5 2.5t3.5 1q98 22 154 105q2 16 -15 25.5t-33 14.5l-8 2q-36 16 -77 20q14 -25 10 -52.5t-20 -53.5q-6 -8 -24.5 -4.5t-35 13.5
t-15.5 21q4 22 -13 38q-4 5 -3 8t6 4t9.5 1t7.5 -1q6 -1 12 -3q7 29 -13 55q-3 4 -1.5 7.5t6.5 4.5q47 3 92 -11q41 -10 80 -26q29 -12 56 -26q13 27 11 56q-1 20 -7 39l-4 10h-258q-13 0 -28 6t-25 15q-15 18 7 18h295q-6 12 -15 22q-10 11 -20 21q-19 15 -32 36
q-36 68 3 133q5 7 18 5t27.5 -8.5t23.5 -14t7 -12.5q-20 -29 -20.5 -64.5t19.5 -64.5q11 -14 25 -26t26 -27h104q12 0 27.5 -6t25.5 -15zM367 144q16 67 -1 135q-5 -27 -20 -50q-6 -11 -13 -22q0 -2 -1 -3q-59 -83 -157 -107q34 -54 99 -46q77 15 93 93z" />
    <glyph glyph-name="bn_n_dda" horiz-adv-x="531" 
d="M563 397q15 -18 -7 -18h-267v-175q11 10 19 25q3 6 7 13q22 41 44 83l2 2q1 3 7 5q13 3 28 -3t25 -13q73 -45 93 -128q13 -73 -37 -126q-55 -48 -128 -44q-70 2 -138.5 28t-129.5 59q-3 1 -10 5.5t-11 10t1 10.5q6 4 15.5 2.5t19 -5.5t15.5 -7q51 -27 106 -47
q34 -13 72.5 -17t74.5 11q60 29 72 86.5t-18 110.5q-1 -3 -2 -5q-7 -11 -13 -23q-5 -8 -9 -18q-9 -18 -20 -34q-34 -44 -90 -48q-9 -2 -25.5 2t-30.5 12t-14 19v69q-3 1 -4 3q-34 29 -73 51q9 -68 -37 -122q-6 -7 -19 -5t-27 9t-23 14.5t-6 10.5l10 14l1 1q0 1 1 2
q3 5 4.5 9t1.5 9q0 6 -1 11l-1 1q-4 3 -8.5 7.5t-4.5 8.5t8 6q11 2 24 -2q9 40 -7 82q-2 4 2 6t9 2h7q23 -4 42 -16l44 -26q29 -16 57 -34v98h-192q-13 0 -28 6t-25 15q-15 18 7 18h534q13 0 28 -6t25 -15z" />
    <glyph glyph-name="bn_n_ta" horiz-adv-x="446" 
d="M480 397q15 -18 -7 -18h-132q45 -34 23 -91q-19 -39 -58 -58q60 -24 101 -77q24 -35 24.5 -75.5t-28.5 -73.5q-32 -32 -75.5 -42t-87.5 -5q-105 12 -202 57h-1q-5 2 -13.5 6.5t-15 10t-4.5 11.5q3 6 12 6t18.5 -3t13.5 -5q64 -31 143 -43.5t136 41.5q23 27 25 61.5
t-17 64.5q-22 33 -55 48v-99q2 -13 3 -27q0 -7 -6.5 -8.5t-14.5 0t-13 3.5q-16 4 -30 13q-2 1 -5.5 3.5t-6.5 5.5t-3 6q0 28 -14 51q-5 8 -0.5 10.5t11.5 2.5v76q-30 25 -64 44q9 -68 -37 -122q-6 -7 -19.5 -5t-27 9t-22.5 14.5t-6 10.5l10 14v1l2 2q3 5 4.5 9t1.5 9
q0 6 -2 11v1q-4 3 -8.5 7.5t-4.5 8.5t7 6q12 2 24 -2q10 40 -7 82q-1 4 2.5 6t9 2h7.5q23 -4 42 -16l44 -26q41 -23 80 -50q26 13 43 37q13 19 16 42q2 12 -3 23q-1 4 -4 8q-1 2 -2 2q-1 1 -3 2h-261q-13 0 -28 6t-25 15q-16 18 6 18h450q13 0 28.5 -6t25.5 -15z" />
    <glyph glyph-name="bn_n_t_ra" horiz-adv-x="440" 
d="M467 397q15 -18 -7 -18h-120q20 -13 28 -33t-4 -45q-15 -27 -40 -42q15 -7 29 -15q29 -15 49 -40q12 -19 10 -41v-216q5 -6 0.5 -8.5t-11.5 -2.5h-10q-29 5 -50 25q-42 42 -96.5 53t-111.5 -5q-12 -2 -27.5 3.5t-25.5 12.5q-4 3 -9 7t-5.5 8.5t7.5 6.5q139 32 264 -42
v185q1 29 -24 43q-11 6 -23 10q-5 -1 -9 -3q-2 -21 -4 -43q-4 -28 -5 -56q3 -12 3 -24q0 -7 -6 -8t-13.5 0t-12.5 3q-16 4 -29 13q-2 1 -5 3t-6 5t-3 6q-1 13 -3 26q-3 11 -9 20q-1 2 -2 3q-3 5 1.5 6.5t10.5 1.5q2 15 3 30q3 19 4 38l-2 2q-32 23 -67 40q8 -48 -21 -87
q-1 -3 -3 -5q-1 -2 -2 -3l-2 -2q-5 -7 -12 -13q-5 -4 -15 -2.5t-20 5.5t-14 7q-4 1 -11 5.5t-10.5 9.5t0.5 10q4 4 8 9v1l2 2q3 4 4.5 7.5t1.5 8.5q0 3 -1 7q-5 3 -9 6.5t-5.5 7.5t2.5 6q5 3 11 2.5t10 -1.5l8 -2q10 34 -7 70q-1 4 2 6t7 2.5t6 0.5q20 -2 38 -12
q22 -11 43 -22q41 -20 80 -43q3 0 6 -1h3q1 -1 2 -1q23 10 39 29q15 16 18 36q2 9 -1 17q-2 4 -3.5 6.5t-2.5 2.5q-2 2 -5 3h-261q-13 0 -28 6t-25 15q-15 18 7 18h437q13 0 28.5 -6t25.5 -15z" />
    <glyph glyph-name="bn_n_tha" horiz-adv-x="491" 
d="M521 397q16 -18 -6 -18h-175q19 -13 27.5 -33t-3.5 -45q-12 -22 -31 -36q46 -13 85 -40q29 -18 48.5 -47t3.5 -64q-17 -27 -43.5 -43t-54.5 -27l-1 -1l-14 -6q-21 -8 -42 -19q-14 -7 -29 -18t-20 -26q-3 -15 6.5 -28t21.5 -24l6 -6q29 -30 62 -55q10 -8 7 -13t-14 -5
q-29 3 -53 21q-38 30 -72 65q-3 2 -5 5q-14 13 -25.5 29t-10.5 34q3 19 19 32t32 22q23 12 48 22q7 3 15 6q1 1 3 2q32 12 65.5 35.5t29.5 61.5q-9 37 -45.5 50.5t-70.5 12.5h-4v-90q3 -11 3 -23q0 -7 -6 -8t-14 0.5t-12 2.5q-16 4 -29 13q-2 1 -5 3.5l-6 5t-3 5.5
q-1 12 -4 24q-3 9 -10 16q-1 2 -3 4q-4 5 -2.5 7.5t6 3.5t9.5 1v57q-1 2 -2 3q-32 23 -67 40q7 -48 -21 -87q-1 -3 -3 -5q-1 -2 -2 -3l-2 -2q-6 -7 -12 -13q-5 -4 -15 -2.5t-20 5.5t-15 7q-4 1 -10.5 5.5t-10 9.5t0.5 10q4 4 8 9v1l2 2q3 4 4.5 7.5t1.5 8.5q0 3 -1 7
q-5 3 -9 6.5t-5.5 7.5t2.5 6q4 3 10 2.5t10 -1.5q5 -1 9 -2q10 34 -7 70q-2 4 1 6t7.5 2.5t6.5 0.5q20 -2 38 -12q21 -11 43 -22q44 -21 86 -47q26 10 44 31q14 16 18 36q1 9 -1 17q-2 4 -3.5 6.5t-2.5 2.5q-3 2 -6 3h-260q-13 0 -28.5 6t-25.5 15q-15 18 7 18h493
q13 0 28 -6t25 -15z" />
    <glyph glyph-name="bn_n_dha" horiz-adv-x="474" 
d="M534 397q15 -18 -7 -18h-206q1 -2 1 -4v-164q23 12 45 24q17 7 39 -2.5t32 -21.5q7 -8 8 -18.5t0 -20.5v-174q0 -4 -11 -3.5t-26 5t-26 12.5t-12 17v136q-24 -11 -48 -20h-1v-179q0 -3 -8 -4q-3 -1 -7 -1q-78 0 -152 22q-5 1 -13 3q-18 5 -39 12.5t-34 20.5t-6 32
q12 25 34 42.5t45 30.5l4 2q18 12 37 23q27 18 55 34q-40 59 -101 98q9 -79 -37 -147q-6 -7 -19.5 -5t-27.5 8.5t-23 14t-6 12.5l10 16v1l2 4q5 8 6 19q0 8 -1 15q-1 2 -1 3q-1 1 -1 3q0 1 -1 2q1 -1 3 -2q-1 1 -3 2q-1 0 -1 0.5v0.5q-4 3 -7.5 7t-3 7.5t7.5 4.5q12 2 24 -2
q10 51 -7 101q-1 6 3.5 7.5t10.5 1t9 -0.5q26 -5 46 -20q22 -16 44 -31q37 -24 69 -51q6 -5 12 -11v138h-223q-13 0 -28.5 6.5t-25.5 15.5q-15 17 7 17h506q13 0 28 -6t25 -15zM150 14q47 -13 95 -14v109q-5 -4 -11 -8l-19 -12q-29 -15 -54 -37q-9 -10 -16 -21l-4 -8l-2 -6
q5 -2 11 -3z" />
    <glyph glyph-name="bn_n_na" horiz-adv-x="365" 
d="M384 397q15 -18 -7 -18h-40v-444q0 -4 -12 -3.5t-26.5 5.5t-26 12.5t-11.5 16.5v1q-8 23 -28 41t-40 31l-2 2q-26 18 -57 33q13 -66 -36 -118q-6 -5 -18 -3t-25 8t-21 12.5t-6 10.5q6 6 11 12v1q1 1 2 3q2 3 3.5 6.5t1.5 8.5q1 5 -1 10v2q-4 2 -8 5.5t-5.5 7t2.5 6.5
q3 2 9 1.5t10 -1.5q5 -1 11 -2q10 37 -7 77q-1 3 0.5 5t5 2.5t7 0.5t4.5 -1q21 -3 39 -14q21 -13 45 -25q50 -24 97 -57q0 -1 1 -1q2 -2 5 -4v107q0 37 -22 65t-49 50q-24 21 -52 37q11 -73 -37 -135q-6 -7 -19 -5t-27.5 9t-23.5 14.5t-6 11.5q6 7 10 14q0 1 1 1q1 2 1 4
q3 5 4.5 9t1.5 9q1 7 -1 14q-1 3 -2 4q-4 3 -8 7t-4 8t8 5q11 2 25 -2q10 46 -7 91q-2 5 2 6.5t9 1.5h7q23 -3 43 -15q22 -16 47 -30q52 -31 98 -70v-1h1v142h-240q-13 0 -28 6.5t-25 15.5q-16 17 7 17h356q13 0 28 -6t25 -15zM51 24q-2 0 -3 1q0 -1 1 -1h2z" />
    <glyph glyph-name="bn_n_ba" horiz-adv-x="396" 
d="M431 397q15 -18 -7 -18h-63q27 -31 19 -76q-6 -28 -19 -53q1 -2 1 -5v-155q-1 -74 -1 -149q10 -13 -10 -14q-89 -1 -172 30q-20 7 -45 21.5t-40 35.5t-6 46q26 48 73 74q11 6 19 12q38 26 72 57q-36 33 -74 64q-5 3 -9.5 6.5t-7.5 5.5h-1l-2 2l-2 1q-4 2 -7 4l-7 3
q-1 1 -2 1q-1 1 -2 1q9 -67 -37 -123q-6 -6 -19.5 -4t-27.5 9t-23 14t-6 11q5 8 10 14q0 1 1 1q0 2 1 3q3 4 4.5 8t1.5 10t-1 11q-1 0 -1 1q-4 3 -8.5 7.5t-4.5 8.5t8 6q11 1 24 -3q10 41 -7 83q-2 5 2 6.5t9.5 1.5h7.5q23 -3 42 -15q20 -13 41 -24q42 -22 80 -51
q15 -12 31 -25q17 31 30 65q10 24 9 50q-1 9 -4 19l-2 4h-277q-13 0 -28.5 6.5t-25.5 15.5q-15 17 7 17h402q14 0 29 -6t25 -15zM160 20q-1 -13 8.5 -23t19.5 -15q45 -17 97 -16v170l-3 -3q-5 -4 -11 -8q-14 -11 -31 -21q-32 -18 -56 -44q-8 -8 -14.5 -18.5t-9.5 -21.5z" />
    <glyph glyph-name="bn_n_ma" horiz-adv-x="499" 
d="M537 397q15 -18 -7 -18h-59v-436l2 -10q1 -6 -10 -6.5t-26 3.5t-26.5 10.5t-13.5 14.5q-4 20 -18 32t-32 21q-5 3 -9 6q-3 -29 -22 -49q-18 -13 -42 -7t-42 18q-31 23 -39 64q0 2 -2 6q-5 14 -6 30t14 21q29 5 61 -8v4q0 42 -22.5 73.5t-51.5 59.5q-22 22 -49 40
q10 -82 -37 -150q-5 -6 -18 -4.5t-28 8t-24 14t-6 12.5l10 16q0 1 1 1q0 2 1 4q5 8 6 18q0 8 -1 17q0 1 -1 2q0 2 -1 4q0 1 -1 2l-1 1q-4 3 -7 7t-2.5 7t6.5 5q12 1 25 -2q11 50 -8 102q-1 5 3.5 6.5t11 1.5t9.5 -1q25 -5 45 -20q22 -16 46 -33q50 -32 94 -73v168h-238
q-13 0 -28 6.5t-26 15.5q-16 17 7 17h507q13 0 28.5 -6t26.5 -15zM366 33q8 -5 18 -11q5 -2 10 -6v363h-59v-328l18 -10q6 -4 13 -8zM38 210q-1 0 -1 0.5v0.5q0 -1 1 -1z" />
    <glyph glyph-name="bn_n_ra" horiz-adv-x="364" 
d="M375 379h-354q-13 0 -28 7q-31 13 -31 26q0 6 13 6h354q13 0 28 -6q31 -12 31 -27q0 -6 -13 -6zM328 -5q-12 0 -31 6q-38 11 -38 27v43q0 94 -121 185l1 -27q0 -70 -39 -131q-4 -4 -12 -4q-16 0 -33 8q-31 13 -31 23q0 2 10 21t10 33q0 13 -8 19.5t-8 10.5q0 8 14 8
q9 0 17 -3q4 21 4 42q0 34 -11 70q0 7 14 7q30 -3 53.5 -20.5t46.5 -35.5q49 -36 93 -79v210q0 4 8 4q11 0 30 -5q39 -10 39 -29v-379q0 -4 -8 -4zM327 -52q-17 0 -35.5 6.5t-27.5 17.5h-2q-29 14 -60 23q-42 9 -86 9q-35 0 -74 -5q-34 2 -58 29q-4 5 -4 9q0 3 7 5
q39 5 77 5q43 0 97 -8q35 -6 98 -35v117q0 4 12 4q12 -1 26.5 -5.5t26.5 -12.5t12 -17v-138q0 -4 -9 -4z" />
    <glyph glyph-name="bn_n_sa" horiz-adv-x="512" 
d="M543 379h-522q-13 0 -28 6q-32 13 -32 26q0 7 14 7h521q14 0 29 -6q31 -14 31 -27q0 -6 -13 -6zM476 -6q-13 0 -30 6q-38 13 -38 28v85q-4 58 -35 107q-8 12 -18 22v-24q0 -36 -2 -73q-1 -54 -47 -85l-3 -2q-20 -11 -53 -11q-52 0 -103 25q-22 10 -22 21v1q3 6 12 6
q9 -1 40 -9q12 -4 26 -4q25 0 36 11q16 16 16 39q0 47 -54 124q-48 61 -48 103q0 20 10 42q4 6 15 6q10 0 30 -8q32 -14 32 -26v-2q-9 -18 -9 -37q0 -38 34 -83q4 -7 14 -21v24q0 24 -1 47q0 8 8 9q8 0 20 -3q36 -9 102 -63v158q0 4 8 4q11 0 30 -5q38 -12 38 -28v-380
q0 -4 -8 -4zM40 251q-3 18 -9 31q0 2 -1 4t-2 6v7q4 8 30 8q17 -2 62 -17q157 -39 192 -133l1 -3q0 -5 -9 -5q-17 0 -24 3q-38 10 -44 27q-20 56 -99 76l-31 9q1 -1 2 -3l1 -3q10 -33 10 -67q2 -9 2 -18q0 -7 -1 -12.5t-9 -5.5q-15 0 -29 5q-36 12 -38 27.5t-2 32.5v1
q-1 4 -4 6q-5 3 -9.5 7.5t-4.5 10.5t16 6z" />
    <glyph glyph-name="bn_p_tta" horiz-adv-x="679" 
d="M709 397v0q15 -18 -7 -18h-297v-321v0v0q29 9 56 22q56 24 95 70q18 21 28.5 51.5t-3.5 57.5q-6 8 -13.5 14t-14.5 10q-3 2 -7 4q-1 -8 -1 -16v-7q-2 -18 -6 -36q-9 -38 -27 -71q-4 -7 -17 -5.5t-28 7.5t-24.5 14t-7.5 14q21 41 17 87q0 8 14 7q1 1 1 2v2q1 6 1 13
q0 8 1 16t5 14q10 9 25.5 6.5t26.5 -7.5q34 -14 65 -32q34 -17 58 -46q24 -35 12.5 -73.5t-37.5 -66.5q-56 -57 -132 -82q-3 -1 -5 -2q-32 -13 -65 -18q-23 -1 -48 8.5t-40 28.5q-6 5 -6 11v229q-5 6 -11 12q-17 -26 -31 -54q-4 -8 -7 -15q-31 -58 -57 -119
q-5 -8 -22.5 -4.5t-33.5 12.5t-18 17v11q1 44 -12 86q-1 1 -2 3q-20 -4 -36 -17q-2 -3 -7 -4q-8 -1 -18 1q-19 5 -34.5 14.5t-14.5 18.5q14 49 46.5 90.5t83.5 53.5q38 6 74 -6t68 -31q16 -9 32 -20v78q0 2 2 3q2 4 13 4h223v2q6 29 -12.5 53t-40.5 43q-6 5 -11 10
q-50 46 -105 87q-10 8 -7 13t14 5q30 -2 54 -21q63 -47 119 -101l9 -9q19 -17 36 -37.5t22 -44.5h11q13 0 28.5 -6t25.5 -15zM204 256v0q4 8 8 15q19 38 43 73v0v0q-10 6 -17 9l1 -1h-1t-2 1h-1.5h-1.5q-22 2 -42 -9q-47 -25 -71 -74q32 -6 59 -24q8 -5 14 -12q6 11 11 22z
" />
    <glyph glyph-name="bn_p_ta" horiz-adv-x="578" 
d="M542 106v0q22 -40 21.5 -87t-30.5 -83q-31 -35 -74.5 -47t-88.5 -7q-114 16 -215 70q-3 2 -10 6.5t-11.5 10t0.5 9.5q6 5 16 3.5t20 -5.5t15 -7q43 -23 96 -38.5t102.5 -7.5t82.5 56q41 71 2 145q-23 38 -59 57v-116q3 -16 3 -32q0 -7 -6.5 -8t-14 0.5l-12.5 2.5
q-15 4 -29 13q-1 1 -4.5 3.5t-6.5 5.5t-3 5v1q-1 17 -4 34q-4 15 -11 27q-1 2 -3 4q-2 5 2.5 6.5t12.5 0.5v101q-3 5 0 8v1q0 3 5 3.5t13 -0.5q3 0 6 -1q8 -2 17 -5v63v1h-1q-10 11 -22 21q-21 -30 -38 -62q-5 -8 -9 -15q-34 -61 -63 -124q-5 -8 -23 -4.5t-35 12.5t-19 18
v14q2 49 -16 92h-2q-26 -4 -46 -19q-4 -4 -14 -4v0v0q-12 1 -27.5 6.5t-26 13.5t-8.5 16q16 52 52.5 95t92.5 55q39 6 78 -4.5t73 -29.5q28 -15 54 -34v110q0 4 11.5 3.5t26.5 -5t27 -12t12 -16.5v-8h112q23 -7 41 -21q2 -1 4 -3.5t3.5 -5t0.5 -5.5q-2 -3 -6.5 -3.5
t-7.5 -0.5h-1h-146v-187q16 -9 32 -20q36 -27 59 -66zM227 273v0q5 7 9 15q22 41 50 78q-7 3 -11.5 5t-9.5 4q1 0 1 -0.5v-0.5l-0.5 0.5t-1 0.5h-1t-1 0.5t0 0.5h0.5h-3h-1q-1 0 -4 1q-25 1 -48 -9q-53 -26 -82 -79q36 -5 67 -24q12 -8 21 -19q7 14 14 27z" />
    <glyph glyph-name="bn_p_t_ra" horiz-adv-x="571" 
d="M227 273q5 7 9 15q22 41 50 78q-7 3 -11.5 5t-9.5 4q1 0 1 -0.5v-0.5l-0.5 0.5t-1 0.5h-1t-1 0.5t0 0.5h0.5h-4q-1 0 -4 1q-25 1 -48 -9q-53 -26 -82 -79q36 -5 67 -24q12 -8 21 -19q7 14 14 27zM542 -43q5 -6 0.5 -8.5t-11.5 -2.5h-10q-29 5 -50 25q-42 42 -96.5 53
t-111.5 -5q-12 -2 -27.5 3.5t-25.5 12.5q-4 3 -9 7t-5.5 8.5t7.5 6.5q139 32 264 -42v175q1 29 -24 43q-11 6 -23 10q-5 -1 -9 -3q-2 -21 -4 -43q-4 -28 -5 -56q3 -12 3 -24q0 -7 -6 -8t-13.5 0t-12.5 3q-16 4 -29 13q-2 1 -5 3t-6 5t-3 6q-1 13 -3 26q-3 11 -9 20
q-1 2 -2 3q-3 5 1.5 6.5t10.5 1.5q2 15 3 30q3 19 4 38q32 21 33 21q13 6 86 -26q15 -7 29 -15q29 -15 49 -40q12 -19 10 -41v-206zM374 255v44h-1q-10 11 -22 21q-21 -30 -38 -62q-5 -8 -9 -15q-34 -61 -63 -124q-5 -8 -23 -4.5t-35 12.5t-19 18v14q2 49 -16 92h-2
q-26 -4 -46 -19q-4 -4 -14 -4q-12 1 -27.5 6.5t-26 13.5t-8.5 16q16 52 52.5 95t92.5 55q39 6 78 -4.5t73 -29.5q28 -15 54 -34v110q0 4 11.5 3.5t26.5 -5t27 -12t12 -16.5v-8h112q23 -7 41 -21q2 -1 4 -3.5t3.5 -5t0.5 -5.5q-2 -3 -6.5 -3.5t-7.5 -0.5h-147v-124h-77z" />
    <glyph glyph-name="bn_p_na" horiz-adv-x="480" 
d="M499 397v0q2 -1 4 -3.5t3.5 -5t0.5 -5.5q-2 -3 -6.5 -3.5t-7.5 -0.5h-1h-40v-197v-38v-145q1 -3 0 -4v-25q0 -4 -12 -3.5t-26.5 5t-26.5 12t-12 16.5v22q-13 35 -43.5 51t-62.5 24q-16 5 -32 9q2 -2 3 -5t1 -5q1 -2 1 -3q9 -30 8 -61q4 -14 2 -31q-2 -6 -13 -5.5t-26 5.5
t-26 12t-12 14q-1 13 -1 27v6q-2 6 -6 9q-4 2 -9 6.5t-5.5 9t7.5 6.5q5 2 10 1q-2 15 -8 30q-1 2 -1 3q-2 4 -3 7t-1 6q3 11 21 10t39.5 -6.5t34.5 -10.5q3 -1 5 -1q58 -16 117 -46v90v38v105q-10 8 -21 16q-22 -25 -40 -53q-5 -8 -10 -15q-33 -48 -62 -99q-6 -8 -24 -4.5
t-34.5 13t-17.5 18.5q0 2 -1 4q0 22 -3 44q-2 11 -5 22q0 1 -1.5 3t-2.5 4t-2 3v0h-7q-24 -3 -44 -15q-7 -6 -24.5 -2t-33.5 13t-18 18q0 2 1 4q19 47 57 81t89 42q80 7 151 -30q27 -12 53 -28v100q0 4 12 3.5t26.5 -5t26.5 -12t12 -16.5v-8q27 -5 47 -21zM212 274v0
q32 52 71 97q-33 12 -72 0q-49 -17 -81 -60q29 -4 54 -17q17 -8 28 -20z" />
    <glyph glyph-name="bn_p_pa" horiz-adv-x="479" 
d="M499 397v0l3.5 -3.5t3.5 -5t0 -5.5t-5.5 -3.5t-7.5 -0.5h-1h-41v-445q0 -4 -11.5 -3.5t-26.5 5t-26.5 12t-11.5 16.5v142q-6 5 -13 10q-18 -22 -33 -45l-8 -12q-30 -43 -55 -88q-6 -8 -24 -4.5t-34.5 12.5t-18.5 18v5q0 17 -2 35q-2 10 -5 20q-1 4 -3 8h-1h-1
q-20 -3 -36 -13q-7 -6 -24.5 -2t-33.5 13t-18 18q-1 2 0 4q30 73 102 102q-2 3 -2 6v4q-1 22 -4 44q-1 11 -5 22q0 1 -1 3l-2 4t-2 3h-1h-7q-23 -3 -43 -15q-7 -6 -24.5 -2t-33.5 13t-18 18q-1 2 1 4q19 47 57 81t89 42q79 7 150 -30q28 -12 54 -28v100q0 4 11.5 3.5
t26.5 -5t26.5 -12t11.5 -16.5v-8q27 -5 48 -21zM130 311v0q28 -4 53 -17q17 -8 28 -20q32 52 72 97q-33 12 -73 0q-49 -17 -80 -60zM233 73v0q26 43 59 80q-25 7 -54 -2q-42 -15 -69 -50q22 -4 41 -14q12 -5 23 -14zM336 165v0q20 -9 39 -20v172l-22 16q-21 -25 -40 -53
q-5 -8 -10 -15q-25 -36 -46 -73q41 -9 79 -27z" />
    <glyph glyph-name="bn_p_ra" horiz-adv-x="490" 
d="M510 397v0q2 -1 4 -3.5t3.5 -5t0.5 -5.5t-5.5 -4t-8.5 0h-1h-41v-394q0 -3 -6.5 -3.5t-16.5 1.5q-11 0 -22.5 4.5t-17.5 8.5q-123 59 -257 27q-13 -2 -28.5 3.5t-26.5 13.5q-5 2 -9.5 7t-5.5 9.5t8 6.5q156 32 303 -29v258v1v0q-11 12 -23 23q-21 -32 -39 -65
q-4 -9 -9 -17q-35 -64 -65 -131q-5 -9 -23.5 -5t-36 13t-18.5 19v13q2 51 -16 97q-1 2 -1 3q-28 -4 -49 -20q-3 -4 -10 -4q-5 -1 -11 0q-13 2 -27 8t-23 13.5t-7 14.5q16 55 53 100.5t94 58.5q41 7 81 -4t75 -32q29 -15 55 -35v114q0 5 12 4.5t27.5 -5.5t27.5 -12.5
t12 -17.5v-8q28 -4 48 -21zM234 265v0q4 9 9 17q22 43 50 82v0v0q-7 4 -11.5 6t-10.5 5l2 -1v0h-0.5h-1t-1.5 0.5l-1 0.5v0h1h-1q-1 1 -2 1h-1.5h-2.5h-1q-27 2 -51 -10q-54 -27 -83 -84q39 -5 71 -26q12 -8 20 -19q7 14 15 28z" />
    <glyph glyph-name="bn_p_la" horiz-adv-x="480" 
d="M451 215v-244l2 -10q0 -8 -11.5 -8.5t-27.5 4t-28 12t-13 15.5q-7 48 -49 77q-4 -29 -15 -58q-5 -13 -8 -25q0 -8 -5 -17q-6 -8 -26 -4t-37 14.5t-16 21.5q1 6 3 12q-1 11 -8.5 22t-15.5 21q-5 -39 -20 -76q-4 -7 -17 -6t-29 7t-26 14.5t-8 15.5q3 8 6 17v1q1 3 1 6v8
q-1 2 -1 4l-10 10q-5 7 -1.5 9.5t11 3t11.5 -0.5q1 3 1 6q3 10 4 22t0 23h-1l-3 3q-7 8 -3.5 12t13.5 4q35 -1 64.5 -18.5t51.5 -42.5q7 25 2 51q-2 8 6.5 8.5t21 -2.5t23 -7.5t13.5 -6.5q9 -5 17 -11q27 -17 52 -36v149h76zM234 154q-2 -1 -3 -1q-41 -1 -64 34q-2 3 -2 6v4
q-1 22 -4 44q-1 11 -5 22q0 1 -1 3l-2 4t-2 3h-8q-23 -3 -43 -15q-7 -6 -24.5 -2t-33.5 13t-18 18q-1 2 1 4q19 47 57 81t89 42q79 7 150 -30q28 -12 54 -28v100q0 4 11.5 3.5t26.5 -5t26.5 -12t11.5 -16.5v-8q27 -5 48 -21l3.5 -3.5t3.5 -5t0 -5.5t-5.5 -3.5t-7.5 -0.5h-42
v-182h-76v120l-22 16q-21 -25 -40 -53q-5 -8 -10 -15q-25 -36 -46 -73zM130 311q28 -4 53 -17q17 -8 28 -20q32 52 72 97q-33 12 -73 0q-49 -17 -80 -60z" />
    <glyph glyph-name="bn_p_sa" horiz-adv-x="625" 
d="M644 397v0q16 -18 -7 -18h-41v0v-1v-291v0h1q0 -1 -1 -1v0v-90q0 -5 -11.5 -4t-26.5 5.5t-26.5 12t-11.5 16.5v85q-4 59 -35 109q-8 11 -18 22q0 -49 -2 -98q-1 -55 -47 -86q-1 -1 -3 -1q-11 -7 -24 -10q-63 -8 -122 17q-3 1 -12 5.5t-16 10.5t-5 12q3 6 11.5 5.5
t17.5 -3.5t14 -4v-1q-3 1 -3 1.5t1.5 0t3.5 -1.5q2 0 3.5 -0.5t2.5 -1.5q12 -2 24 -3q19 -1 35 10h1v0q1 1 3 2v1q2 1 4 3q17 22 9.5 54t-18.5 54t-27 43q-4 3 -8 7t-8 9q-14 -22 -26 -46q-4 -6 -7 -12q-29 -53 -53 -107q-5 -9 -23.5 -5t-35 13t-18.5 18v9q1 38 -11 75
q-15 -5 -28 -14q-3 -4 -10 -5q-5 0 -10 1q-13 2 -26.5 7.5t-22.5 13t-7 14.5q13 45 43.5 81.5t77.5 46.5q66 7 125 -27q-9 24 -6 49h-36h-205q-13 0 -28.5 6t-25.5 15q-16 18 7 18h76h330h208q13 0 28.5 -6t25.5 -15zM192 239v0q3 6 7 12q17 34 39 64q-2 1 -3 1l-1 1h-1
l-1 0.5t-1.5 1l-0.5 0.5h-1h-1.5t-0.5 0.5v0.5h-4h-4q-19 -1 -36 -9q-39 -21 -61 -62q28 -6 52 -21q4 -3 8 -7zM452 298v0q35 -22 68 -51v132h-169q0 -1 -1 -2q-15 -33 -4.5 -64.5t30.5 -57.5q1 -2 2 -3q6 -9 12 -17q1 35 0 71q0 8 8 8.5t19.5 -2.5t21 -7.5t13.5 -6.5z" />
    <glyph glyph-name="bn_ph_tta" horiz-adv-x="605" 
d="M628 379h-606q-13 0 -28.5 6.5t-24 14.5t-8.5 12q0 6 14 6h607q13 0 28 -6q31 -12 31 -27q0 -6 -13 -6zM273 14l-3 1q-60 19 -129 52q-116 55 -116 92q0 29 45 46q85 40 85 79q0 10 -10 23q-28 37 -94 62q-4 1 -12 6q-21 11 -21 22q3 6 12 6q8 -1 17 -4t14 -4
q47 -19 90 -47q38 -22 66 -55q14 -17 14 -35q0 -15 -10 -31q-32 -36 -77 -56q-40 -16 -42 -38q1 -8 7 -13q21 -22 164 -77v-29zM366 -109q-59 0 -88 35q-5 6 -5 12v86h76v-84q100 28 130 57t33 39t3 20q0 5 -2 14.5t-26 29.5q-1 -32 -6 -48q-13 -37 -28 -37q-14 0 -31 7
q-32 13 -32 25q5 15 5 20l-1 20q0 8 14 8l1 1v2q1 6 1 13.5t1 15t6.5 14t17.5 6.5q28 0 96 -39q15 -9 39 -40q13 -17 13 -36q0 -17 -27 -47.5t-73 -53.5q-64 -33 -117 -40zM349 16h-76q0 320 0.5 321.5t4.5 4.5t12 3q16 0 70 -30l50 -21q45 -16 72 -34q17 -16 17 -33
q0 -7 -2 -14q15 -5 15 -10q0 -3 -43 -32q-18 -12 -25 -12q-13 0 -33 8q-29 10 -29 16q39 27 39 60q0 17 -29 26l-43 15v-268zM551 385q-12 0 -29 6q-35 12 -35 28l2 15q0 35 -59 84q-55 51 -109 91q-8 6 -8 11q0 7 15 7q51 -5 175 -124q61 -56 61 -98q0 -20 -13 -20z" />
    <glyph glyph-name="bn_ph_ra" horiz-adv-x="518" 
d="M535 397v0q15 -18 -7 -18h-435q28 -13 54 -30q37 -22 66 -55q26 -32 3 -65q-26 -29 -61 -48l-14 -7q-15 -6 -28 -15t-14 -23q0 -8 6 -13.5t13 -9.5h1q17 -11 36 -20q43 -21 88 -36l26 -10v289q0 1 1 2q0 2 2 4q6 4 15.5 2.5t19 -5.5t15.5 -6q42 -22 82 -48q8 -5 17 -11
q31 -17 54 -40q23 -31 14 -70q7 -4 12.5 -9.5t0.5 -11.5q-14 -14 -27 -28t-27 -27q-5 -6 -17.5 -3t-26.5 10t-22.5 14t-5.5 11q24 25 33 57q5 15 6 33t-7 32q-7 10 -18 15l-6 4q-4 3 -8 5q-10 7 -21 14q-5 3 -10 7h-1v-320q0 -3 -3 -6q-6 -4 -15.5 -2.5t-19 5.5t-15.5 7
q-117 57 -245 26q-13 -2 -28 3.5t-25 12.5q-4 2 -9 6.5t-5.5 9t7.5 6.5q145 30 283 -24v7h-2q0 1 -1 1q-22 7 -44 16q-43 16 -85 36q-41 19 -80 45q-14 9 -26 25t-5 35q6 11 17.5 18.5t24.5 12.5q9 5 17 9q2 1 3 2q16 9 33 21t26 29q10 21 -2 36.5t-29 27.5q-31 24 -68 38
q-2 1 -7.5 3.5t-11.5 5.5q-9 0 -7 0q-13 0 -28.5 6.5t-25.5 14.5q-15 18 7 18h248.5h258.5q13 0 28 -6t25 -15z" />
    <glyph glyph-name="bn_ph_la" horiz-adv-x="518" 
d="M535 397v0q15 -18 -7 -18h-431q65 -27 113 -74q12 -13 16 -29t-6 -32q-26 -30 -62 -47q-6 -3 -15 -7q-15 -5 -29.5 -14t-14.5 -22q1 -7 6 -11t11 -7q1 0 2 -1q18 -10 37 -18q43 -19 88 -33q13 -4 26 -9v261q0 1 1 2q0 2 2 4q6 4 15.5 2.5t19.5 -5.5l15 -6q42 -22 82 -48
q8 -5 17 -11q31 -17 54 -40q23 -31 14 -70q8 -4 13 -9.5t0 -11.5q-14 -14 -28 -29q-12 -13 -25 -26q-6 -6 -18.5 -3t-26 10t-22 14t-6.5 11q24 25 34 57q4 15 5 33t-6 32q-8 10 -19 15l-6 4q-4 2 -7 5l-22 14q-5 4 -11 7v0v-372q4 -11 5 -22q0 -8 -11.5 -8.5t-27 4t-27.5 12
t-13 15.5q-7 46 -49 76q-4 -29 -15 -58q-4 -12 -8 -25q1 -8 -4 -16q-6 -9 -26 -5t-37 14.5t-16 21.5q1 6 3 12q-1 11 -8 22t-15 21q-5 -39 -20 -76q-4 -7 -17 -6t-28.5 7.5t-26 14.5t-7.5 15q3 8 6 17v0v1q1 3 1 6q0 4 -1 7v5v0q-1 0 -1 1v0q-1 0 -1 1q-4 3 -8 7
q-5 7 -1.5 10t10.5 3h12v0v0q0 2 1 5q2 11 3.5 22.5t-0.5 22.5v0q-2 1 -3 3q-8 8 -4 12t14 4q34 -1 63.5 -18.5t51.5 -42.5q7 25 1 51q-1 8 7 8.5t20.5 -2.5t23 -7.5t13.5 -6.5q8 -5 16 -11q25 -16 49 -33v47q-7 3 -15 5l-32 10q-43 16 -85 34q-40 17 -77 40q-15 9 -28 24.5
t-6 34.5q6 11 18.5 17.5t25.5 12.5q10 4 18 8q2 1 4 3q16 8 32.5 19t24.5 27q7 18 -5 31.5t-27 22.5q0 1 -1 1q-31 21 -67 34q-3 1 -8.5 3.5t-11.5 5.5q-9 0 -7 0q-13 0 -28 6.5t-25 14.5q-16 18 7 18h506q13 0 28 -6t25 -15zM48 30v0v0v0v0z" />
    <glyph glyph-name="bn_b_ja" horiz-adv-x="603" 
d="M635 397v0q15 -18 -7 -18h-274q8 -33 38.5 -43.5t67 -8t61.5 10.5q10 2 22.5 -2t21.5 -9q3 -1 9.5 -5t11 -8.5t2.5 -9.5q-22 -43 -37 -89.5t-13 -94.5q1 -35 15.5 -72t45.5 -56h1q4 -2 10.5 -6.5t10 -9.5t-1.5 -10q-5 -4 -15 -2.5t-19.5 5.5t-14.5 7q-90 49 -106 150
q-7 85 29 163q-46 2 -89 15q-25 8 -52.5 21t-48.5 33q-25 -23 -42 -51q-17 -26 -26.5 -56.5t-0.5 -60.5q2 -6 5 -11v0q22 12 40 29q21 20 35 45l2 4q1 4 3.5 7.5t5.5 6.5q7 3 15 2.5t14 -1.5q67 -14 92 -75q15 -55 -17 -102q-31 -38 -82 -51t-98 -10q-103 9 -194 58
q-3 2 -10 6t-11 9.5t1 10.5q5 4 14.5 2.5t19 -5t14.5 -6.5q1 0 1 -1l10 -4t10 -5l2 -1t4 -1q2 -2 4 -2.5t2.5 -1t-1.5 0.5q12 -5 21 -8.5t20 -6.5q53 -13 106 -2q43 8 77 33q20 16 29 41t7 50q-2 -3 -4 -5q-15 -18 -35 -34.5t-43 -22.5q-30 -6 -62 6.5t-53 33.5
q-12 13 -18 29q-40 11 -78 29q-21 9 -41.5 24.5t-14.5 41.5q6 18 25.5 30.5t39.5 20.5q6 3 12 5q23 11 47 20h-128q-13 0 -28 6.5t-25 14.5q-15 18 7 18h606q13 0 28 -6t25 -15zM105 256v0q24 -11 49 -17q0 17 4 33q6 28 21 55q-26 -12 -51 -26q-8 -4 -15.5 -10t-11.5 -15
q-3 -9 -2 -13t6 -7z" />
    <glyph glyph-name="bn_b_da" horiz-adv-x="548" 
d="M263 113q-12 2 -24 8q-20 9 -20 22v6q-52 4 -102 22q-27 9 -57.5 28.5t-36.5 50.5q-1 28 22 46.5t46 30.5q3 1 5 3q26 14 53 26q23 11 47 23h-173q-13 0 -28.5 6.5t-25.5 14.5q-15 18 7 18h287v-305zM219 185v136l-2 -1q-15 -7 -31 -15l-8 -4q-41 -17 -70 -48
q-12 -16 -8 -31.5t22 -24.5q45 -14 93 -12h4zM510 -21q-28 0 -52 15q-21 12 -21 133q0 30 2 59q-64 -52 -139 -84q-5 -2 -11 -2q-13 0 -28 6q-42 13 -42 30v243h-14q-13 0 -28.5 6t-24 14t-8.5 13q0 6 14 6h359q14 0 29 -6q32 -13 32 -27q0 -6 -13 -6h-270q1 -2 1 -207
q35 22 67 47q56 49 89 115q3 5 6.5 10.5t13.5 5.5q5 0 17.5 -2.5t28.5 -12t16 -20.5v-1q-20 -103 -20 -207q0 -60 7 -120q0 -8 -11 -8z" />
    <glyph glyph-name="bn_b_dha" horiz-adv-x="483" 
d="M243 -68v164l-48 -24q-22 -11 -44 -25q-44 -28 -44 -58q0 -29 34 -42q46 -15 96 -15h6zM309 -110h-6q-80 0 -157 24q-108 34 -121 96v5q0 45 77 85l5 3q25 14 51 27l-12 4q-108 31 -121 96v5q0 44 77 84q4 4 72 38l45 22h-197q-13 0 -28 7q-32 13 -32 26q0 6 13 6h494
q13 0 29 -6q31 -12 31 -27q0 -6 -13 -6h-192v-484q0 -5 -15 -5zM205 153l32 17l6 2v143l-48 -24q-22 -11 -44 -25q-44 -28 -44 -58q0 -29 34 -42q30 -11 64 -13zM466 -55q-26 2 -46 18q-29 19 -48 48q-19 34 -19 78q0 31 9 62v-1l-48 -19v59q47 18 74 29q6 2 12 2
q15 0 39 -12q16 -9 16 -18q0 -8 -13 -37q-19 -47 -19 -91q0 -62 51 -97q8 -6 8 -11q0 -10 -16 -10z" />
    <glyph glyph-name="bn_b_ra" horiz-adv-x="342" 
d="M360 397v0q15 -18 -7 -18h-39h-1v0v0v-355q2 -3 2 -6v-23v-23q0 -4 -1 -10q-1 -8 -0.5 -16t2.5 -13q2 -3 0.5 -4.5t-4.5 -2.5t-6 -1h-4q-20 1 -38 11q-118 57 -246 26q-12 -2 -27 3.5t-26 12.5q-4 3 -8.5 7.5t-5 8.5t6.5 6q144 30 280 -23q1 4 1 8v10v4v5q-62 8 -119 36
q-37 19 -66 50t-29 74q3 40 30.5 69.5t57.5 52.5t61 43q33 22 64 46v0v0v4h-217q-13 0 -28 6.5t-25 14.5q-15 18 7 18h39h293q13 0 28 -6t25 -15zM110 173v0q-15 -31 -6 -61.5t37 -50.5q44 -24 97 -23v252q-19 -13 -37 -26q-26 -18 -51 -40t-40 -51z" />
    <glyph glyph-name="bn_b_la" horiz-adv-x="349" 
d="M246 -50v83q-63 7 -121 33q-36 16 -67.5 44.5t-33.5 70.5q2 37 29.5 65t57.5 47l2 2q30 21 61 39q32 20 63 42q4 3 9 3h-225q-13 0 -28 6.5t-25 14.5q-15 18 7 18h340q13 0 28.5 -6t25.5 -15q15 -18 -7 -18h-41v-429h-75zM145 88q47 -21 101 -18v227q-19 -12 -39 -25
q-1 -1 -3 -2q-25 -16 -50 -36t-41 -46q-14 -28 -5 -56t37 -44zM257 102l64 -8v-211l2 -8q0 -10 -9 -10h-4q-8 0 -18 3t-25.5 9.5t-16.5 14.5q-5 34 -20 52q-3 -16 -4 -39q-1 -9 -2 -16.5t-4.5 -14.5t-11.5 -7q-17 0 -35 13q-12 8 -12 19l2 10q0 6 -4 14l-5 8q-7 -56 -24 -56
q-12 0 -23 5q-25 11 -25 24l1 4q4 15 4 20v4q-9 10 -9 15q0 7 11 9h6q0 -1 -1 -1v1q4 16 4 24q0 4 -1 6q-6 7 -6 13q0 9 14 9q44 -2 74 -42v11q0 8 -1 19q0 10 7 11q11 0 31 -8q14 -8 20 -14l21 -14v131z" />
    <glyph glyph-name="bn_bh_ra" horiz-adv-x="415" 
d="M457 396v0q15 -17 -7 -17h-51h-377q-13 0 -28.5 6t-25.5 15q-15 18 7 18h51h377q13 0 28.5 -6.5t25.5 -15.5zM387 2v0v-1v-2q0 -2 -3 -2q-6 -5 -15.5 -3.5t-19.5 6t-15 6.5q-134 62 -279 32q-14 -2 -29 3.5t-25 12.5q-4 3 -9 7.5t-6 9t8 6.5q162 29 316 -31v139
q-7 -12 -18 -22q-23 -19 -57.5 -17.5t-60.5 13.5q-29 11 -52 33q-9 9 -18.5 22t-12.5 26q-2 10 2.5 22t10.5 23q4 8 6 14q3 5 5 10q7 24 25 43q6 5 18 2.5t23.5 -8t16.5 -8.5q10 -6 17 -14t8 -20q0 -24 -11 -46q-3 -6 -11.5 -6t-20.5 3l-10 -24q-2 -7 -2.5 -11.5t2.5 -11.5
q5 -9 12 -17q1 -2 4 -5h1q10 -1 20 2q20 10 29 30q23 41 26 87q1 6 8.5 6t17 -3t17.5 -6t10 -3q33 -17 62 -42q5 -4 6 -8q4 -4 4 -9v-238z" />
    <glyph glyph-name="bn_bh_la" horiz-adv-x="389" 
d="M207 68q-84 0 -182 47q-23 11 -23 22q0 10 15 10q13 0 38 -12q3 -3 7 -3q55 -22 93 -22q77 0 110 39q27 41 30 81q-20 -62 -78 -62l-26 2q-43 5 -86 39q-30 25 -30 53q0 11 11 34q4 5 8 14q16 49 38 49q26 -3 46 -18q21 -11 25 -32q0 -22 -11 -44q-3 -5 -14 -5
q-6 0 -14 2q-11 -18 -11 -26q0 -15 15 -26q27 5 38 28q21 36 23 75q1 7 8 7q40 0 70 -21q65 -48 65 -94q0 -42 -29 -83q-37 -54 -136 -54zM428 379h-406q-13 0 -28 7q-32 13 -32 26q0 6 13 6h406q13 0 29 -6q31 -12 31 -27q0 -6 -13 -6zM331 -108h-4q-10 0 -21.5 3t-25 9.5
t-14.5 14.5q-5 34 -23 52q-3 -16 -11 -39q-4 -9 -5 -16.5t-5.5 -14.5t-13.5 -7q-20 0 -40 13q-14 8 -14 19l2 10q0 6 -5 14l-6 8q-8 -56 -27 -56q-15 0 -27 5q-29 11 -29 24l1 4q5 15 5 20l-1 4q-10 10 -10 15q0 7 13 9h7q0 -1 -1 -1v1q4 16 4 24q0 4 -1 6h2q-9 7 -9 13
q0 9 16 9q52 -2 86 -42q1 5 1 11q0 8 -2 19q0 10 8 11q13 0 37 -8q16 -8 23 -14l22 -14v131l77 -8v-211l2 -8q0 -10 -11 -10z" />
    <glyph glyph-name="bn_m_na" horiz-adv-x="378" 
d="M71 379h-53q-12 0 -27.5 9t-22 15.5t-6.5 9.5q0 5 13 5h96v-39zM295 242q14 0 14 44q0 38 -8.5 51.5t-17 23.5t-16.5 18h-112q46 -33 47 -85q27 -12 81 -47q7 -5 12 -5zM89 223q26 10 27 26v8h-1q-14 6 -37 6q-4 0 -9.5 -1.5t-5.5 -13.5q0 -10 7 -20q10 -5 17 -5h2z
M314 150l-7 1q-44 11 -98 64q-13 11 -19 14q-24 -52 -64 -52q-31 0 -60.5 18t-40.5 54q-2 9 -2 17q0 34 48 34q24 0 46 -4l1 17q0 48 -25 66h-22v39h291q12 0 28 -9q28 -16 28 -25q0 -5 -13 -5h-93q47 -30 47 -107q0 -45 -19 -98q-8 -24 -26 -24zM327 -28q-15 0 -30 5
q-39 11 -39 28v22q-13 35 -43 51q-35 18 -95 33q4 -4 4 -10q9 -18 9 -58v-6q3 -9 3 -20q0 -5 -1.5 -10.5t-9.5 -5.5q-14 0 -29 5q-36 12 -37.5 25.5t-1.5 26t-6 16.5q-14 7 -14 17q0 6 14 6h3q-2 15 -8 30q-1 2 -2 4.5t-2 5.5t-1 6q3 10 18 10q33 0 77 -17l5 -1
q58 -16 117 -46v114h77v-179v-49q0 -3 -8 -3z" />
    <glyph glyph-name="bn_m_pha" horiz-adv-x="654" 
d="M672 397v0q15 -18 -7 -18h-123h-225q19 -15 37 -33q14 -15 16.5 -33.5t-0.5 -38.5q-2 -19 -12 -36v0v0q-9 -17 -26 -29.5t-34 -21.5l-10 -6q-4 -3 -10 -6q-12 -6 -24 -13.5t-17.5 -17.5t2.5 -21q6 -8 15.5 -13.5t19.5 -9.5q6 -3 11 -5q26 -14 53 -25q24 -10 49 -18
q9 -3 17 -6v290q0 1 1 2q0 2 3 4q6 4 15.5 2.5t19 -5.5t15.5 -7q42 -21 82 -47q8 -6 17 -11q31 -17 54 -41q23 -30 14 -69q8 -5 13 -10.5t0 -11.5q-13 -14 -27 -28q-13 -14 -26 -27q-6 -6 -18.5 -3t-26.5 10t-22.5 14.5t-5.5 10.5q24 25 34 58q4 14 5 32.5t-7 32.5
q-7 9 -18 15l-6 4l-8 4q-10 8 -21 15q-6 3 -11 7v0v-284q0 -5 -13 -4q-8 -1 -19 2t-16 5q-8 4 -12 5.5t-10 3.5q-17 5 -34 12q-33 12 -65 26q-37 15 -73 35q-4 2 -7 3q-30 15 -54 36q-11 10 -16.5 23t1.5 27q4 7 12 13t17 10l10 6q9 5 19 11q19 10 37 22q-24 12 -46 27h-1
q0 1 -1 1.5l-1 0.5q-1 0 -2 0.5t-1.5 1l-0.5 0.5q-6 3 -11 5q-1 1 -2 1h-1v-1l-1 -1q-22 -36 -65 -34q-27 0 -56.5 12t-41.5 38q-6 19 8.5 26.5t38.5 8t47 -3.5q2 18 -4 34.5t-21 23.5h-74q-13 0 -28 6.5t-25 14.5q-15 18 7 18h109h534q13 0 28.5 -6t25.5 -15zM273 259v0v0
q-2 1 -3 1t-0.5 -0.5t1 -0.5h1h1.5zM279 364v0l-1 1q-7 7 -16 14h-112q46 -29 47 -77q23 -8 44 -20q11 -6 21 -13q7 -4 13 -8l3 3q1 1 2.5 2l1.5 1v0v0l1 1v0q1 2 3 5q4 8 6 17q4 17 4 36q0 12 -4 20.5t-13 17.5zM117 289v0v5v0h-1q-13 3 -27 4q-11 0 -17.5 -1t-7.5 -6
q-2 -9 7 -17q3 -2 6 -3l1 -1h2q3 0 6 0.5t4 0.5q8 2 15 5q11 5 12 13z" />
    <glyph glyph-name="bn_m_ba" horiz-adv-x="399" 
d="M434 397v0q15 -18 -7 -18h-60h-50q19 -15 36 -33q15 -15 17.5 -33.5t-1.5 -38.5q0 -5 -1 -11q3 -4 3 -9v-250q2 -2 2 -5q0 -7 -6.5 -8t-15 0.5t-12.5 2.5q-61 20 -120 44q-8 3 -15 6q-57 18 -98 56q-21 24 -9 54q8 13 20 22t25 16q2 1 3 2q49 29 100 51q-17 10 -34 21h-1
q0 1 -1 1.5t-2 0.5l-1 0.5l-2 1l-1 0.5q-5 3 -11 5q0 1 -1 1h-1v-1q-1 0 -1 -1q-22 -36 -66 -34q-26 0 -55.5 12t-41.5 38q-7 19 7.5 26.5t39 8t46.5 -3.5q3 18 -3 34.5t-21 23.5h-73q-13 0 -28 6.5t-25 14.5q-16 18 6 18h61h345q13 0 28 -6t25 -15zM272 259v0v0q-1 1 -2 1
t-1 -0.5t1 -0.5h1.5h0.5zM242 59v0q24 -10 48 -18v0l6 -2v159q-30 -14 -58 -29q-4 -2 -8 -5q-22 -10 -43.5 -28t-12.5 -42q3 -6 9 -9.5t13 -6.5q3 -1 6 -3q8 -3 19 -7.5t21 -8.5zM279 364v0q-1 0 -1 1l-16 14h-112q46 -29 47 -77q23 -8 44 -20q11 -6 21 -13q6 -4 13 -8
q1 1 2 3q2 1 3.5 2l1.5 1q2 3 3 5v1q4 8 6 17q5 17 5 36q0 12 -4 20.5t-13 17.5zM116 287v0v5v0h-1q-13 3 -27 4q-11 0 -17.5 -1t-7.5 -6q-2 -9 7 -17q3 -2 6 -3l1 -1h2q3 0 6 0.5t4 0.5q8 2 15 5q11 5 12 13z" />
    <glyph glyph-name="bn_m_bha" horiz-adv-x="452" 
d="M96 -17v0v0v0v0v0v0v0zM96 -17v0v0q-1 0 -1 0.5t0.5 0t1.5 -1l2 -1l1 -0.5l-0.5 0.5t-3.5 1.5zM474 379v0h-61h-97q20 -15 37 -33q14 -15 16.5 -33.5t-0.5 -38.5q-2 -14 -7.5 -27.5t-17.5 -21.5q-4 -2 -9 -3q8 -3 14 -6t7 -4q36 -20 63 -52q9 -12 12.5 -27t4.5 -30
q8 -71 -31 -130q-23 -31 -58.5 -43t-72.5 -12q-59 -2 -116 15q-55 14 -105 41q-4 3 -8.5 7t-5 8.5t6.5 6.5q12 3 25.5 -2t24.5 -11h-1v0h1q2 -1 4 -3q-3 2 -4 3q2 -1 3 -2l6 -2q5 -2 11 -4q2 -1 3 -1l4 -2q27 -8 51 -13q13 -3 24 -3.5t26 0.5q40 2 75 19q35 22 48 61
q16 36 16 74q-1 4 -1 8q-1 6 -1 14q-6 -25 -16 -48q-11 -26 -35 -42q-14 -8 -30 -9t-32 1q-79 8 -121 76q-4 6 -6.5 13t-0.5 15q3 13 10 26q3 6 5 11l6 14q8 28 27 49q6 5 18 2t23.5 -8.5t16.5 -8.5q10 -6 17 -14t8 -19q0 -25 -11 -46q-3 -6 -11.5 -6t-20.5 3v0
q-6 -11 -10 -23t-1 -21q6 -11 14 -20l5 -5q8 -1 16 2q21 8 31.5 28.5t16.5 40.5q12 40 15 81q-11 3 -21 7q-34 14 -64 35v0q-1 1 -1.5 1t-1.5 1q-1 0 -2 0.5t-1.5 1l-0.5 0.5q-6 3 -11 5q-1 1 -2 1v0q-1 0 -1 -1v-1q-22 -36 -66 -34q-26 0 -56 12t-41 38q-7 19 7.5 26.5
t38.5 8t47 -3.5q3 18 -3 34.5t-22 23.5h-73q-13 0 -28 6.5t-25 14.5q-15 18 7 18h60h392q13 0 28 -6t26 -15q15 -18 -7 -18zM272 259v0v0q-2 1 -2.5 1t-0.5 -0.5t0.5 -0.5h1.5h1zM278 364v0l-1 1q-7 7 -16 14h-111q45 -29 46 -77q23 -8 44 -20q11 -6 22 -13l12 -8l3 3
q1 1 2.5 2t2.5 1q1 3 2 5q1 0 1 1q4 8 6 17q4 17 4 36q0 12 -4 20.5t-13 17.5zM117 289v0v5v0h-1q-13 3 -27 4q-11 0 -17.5 -1t-7.5 -6q-2 -9 7 -17q3 -2 6 -3l1 -1h2q3 0 6 0.5t4 0.5q8 2 15 5q11 5 12 13z" />
    <glyph glyph-name="bn_m_bh_ra" horiz-adv-x="522" 
d="M495 -89v0v-2v-1q0 -2 -3 -3q-6 -5 -15.5 -3t-19.5 6t-15 7q-133 60 -278 31q-13 -2 -28 3.5t-26 12.5q-4 3 -8.5 7.5t-5.5 9t8 6.5q162 29 315 -31v138q-8 -12 -18 -22q-24 -19 -58 -17t-60 13q-29 12 -52 33q-9 9 -18.5 22t-12.5 26q-2 10 2.5 22t10.5 23q4 7 7 13
l4 10q8 25 25 43q6 6 18 3t23.5 -8.5t16.5 -8.5q10 -6 17 -14t8 -19q0 -25 -12 -47q-2 -5 -11 -5t-20 3l-10 -24q-2 -7 -2.5 -11.5t2.5 -11.5q5 -9 11 -17q2 -2 5 -4l1 -1q10 -1 20 3q19 9 29 29q23 41 25 87q1 5 8.5 5t17.5 -2.5t17.5 -5.5t9.5 -4q34 -17 62 -41q5 -4 6 -8
q4 -4 4 -9v-236zM550 397v0q15 -18 -7 -18h-60h-166q19 -15 37 -33q14 -15 16.5 -33.5t-0.5 -38.5q-2 -14 -7.5 -27.5t-17.5 -21.5q-16 -8 -35.5 -4.5t-34.5 10.5q-34 14 -64 35h-1q0 1 -1 1t-1 1q-1 0 -2 0.5l-2 1l-1 0.5q-5 3 -10 5q-1 1 -2 1h-1v-1l-1 -1
q-22 -36 -65 -34q-27 0 -56.5 12t-41.5 38q-6 19 8.5 26.5t38.5 8t46 -3.5q3 18 -3 34.5t-21 23.5h-74q-13 0 -28 6.5t-25 14.5q-15 18 7 18h60h462q13 0 28 -6t25 -15zM273 259v0v0q-2 1 -3 1t-0.5 -0.5t1 -0.5h1h1.5zM279 364v0l-1 1q-7 7 -16 14h-112q46 -29 47 -77
q23 -8 44 -20q11 -6 21 -13q7 -4 13 -8l3 3q1 1 2.5 2l1.5 1q2 3 3 5l1 1q4 8 6 17q4 17 4 36q0 12 -4 20.5t-13 17.5zM117 289v0v5v0h-1q-13 3 -27 4q-11 0 -17.5 -1t-7.5 -6q-2 -9 7 -17q3 -2 6 -3l1 -1h2q3 0 6 0.5t4 0.5q8 2 15 5q11 5 12 13z" />
    <glyph glyph-name="bn_m_ma" horiz-adv-x="518" 
d="M538 397v0q15 -18 -7 -18h-41v-3v-368q1 -2 0 -4v-4q0 -5 -11.5 -4t-26 5.5t-26 11.5t-11.5 16v1v0v0q-15 43 -52 71q-14 11 -32 22v-21q-1 -14 -11 -18t-23 -2.5t-23 4.5q-44 12 -71 48q-9 13 -12 27t14 20q25 6 50 0q0 9 1 17q-26 16 -49 35q-2 1 -4 3q-6 5 -14 10v-1
q-1 -1 -2 -3q-21 -43 -71 -40q-28 2 -58.5 18.5t-33.5 47.5q-1 14 10 20.5t25 8t25 1.5q17 0 35 -3q3 22 -3 42q-3 12 -10.5 23.5t-17.5 18.5h-67q-13 0 -28 6.5t-25 14.5q-15 18 7 18h73h436q13 0 28.5 -6t25.5 -15zM196 274v0q38 -17 71 -44q4 -3 10 -7l1 -1q3 5 5 9
q9 20 11.5 44.5t-0.5 45.5q-5 22 -21 38q-1 1 -2 3q-7 9 -15 17h-113q54 -40 53 -105zM291 213v0l3 -3q-1 2 -3 3zM380 126v0q18 -10 35 -22v275h-103q26 -23 45 -51q13 -19 14 -41t-3 -45q-1 -16 -6 -32t-18 -26q-6 -5 -13 -6v-1v0v-25q25 -12 49 -26zM117 257v0v6v0
q-1 0 -1 1q-13 3 -27 4q-11 0 -17.5 -1t-7.5 -7q-2 -10 7 -19l6 -4l1 -1h2q3 0 6 0.5t4 0.5q8 3 15 6q11 6 12 14z" />
    <glyph glyph-name="bn_m_ra" horiz-adv-x="381" 
d="M110 100v0h1h-1zM159 149v0v14v0h-1q-14 8 -30 10q-12 1 -19.5 -1.5t-8.5 -15.5q-2 -22 8 -43q3 -5 6 -9l2 -2h2q3 1 6.5 2t4.5 1q9 5 17 13q12 13 13 31zM233 152v0q23 -14 44 -32v259h-157q-9 -3 -13.5 -13.5t-5.5 -17.5q-1 -12 5 -19.5t16 -13.5q47 -29 84 -70
q29 -41 27 -92v-1zM353 -8q0 -1 1 -39q2 -3 0.5 -5t-4.5 -2.5l-6 -1t-4 -0.5q-21 2 -38 12q-118 57 -247 26q-13 -2 -28 3.5t-25 12.5q-4 2 -9 6.5t-5.5 9t7.5 6.5q144 30 282 -24v38q-11 44 -46 77q-4 -20 -26 -36q-26 -17 -57 -13t-57 18q-53 25 -65 81q-3 11 -2 25t12 20
q11 5 25 5.5t26 -0.5q37 -4 72 -18q-2 17 -6 33q-8 26 -27.5 44t-42.5 33q-18 12 -34 25q-26 21 -22 51h-5q-13 0 -28.5 6t-25.5 15q-15 18 7 18h382q13 0 28.5 -6t25.5 -15q15 -18 -7 -18h-51v-387z" />
    <glyph glyph-name="bn_m_la" horiz-adv-x="373" 
d="M71 379h-53q-12 0 -27.5 9t-22 15.5t-6.5 9.5q0 5 13 5h96v-39zM295 242q14 0 14 44q0 38 -8.5 51.5t-17 23.5t-16.5 18h-112q46 -33 47 -85q27 -12 81 -47q7 -5 12 -5zM89 223q26 10 27 26v8h-1q-14 6 -37 6q-4 0 -9.5 -1.5t-5.5 -13.5q0 -10 7 -20q10 -5 17 -5h2z
M322 1h-4q-10 0 -21.5 3t-21.5 9.5t-11 14.5q-5 34 -30 52q-3 -16 -11 -39q-4 -9 -5 -16.5t-5.5 -14.5t-13.5 -7q-4 0 -15 2t-25 10.5t-14 19.5q0 5 2 10q0 6 -5 14l-6 8q-8 -56 -27 -56q-15 0 -27 5q-29 11 -29 24l1 4l4.5 13.5t0.5 8.5l-1 2q-10 10 -10 15q0 3 3 5.5
t10 3.5h7l-1 -1v1q4 14 4 24l-1 6h2q-9 7 -9 13q0 9 16 9q27 -1 50.5 -14.5t35.5 -27.5q1 5 1 11q0 8 -2 19v3q0 7 8 8q8 0 18 -2q16 -4 29 -11q20 -11 46 -31v131h66v-211l2 -8q0 -10 -11 -10zM314 150l-7 1q-44 11 -98 64q-13 11 -19 14q-24 -52 -64 -52q-31 0 -60.5 18
t-40.5 54q-2 9 -2 17q0 34 48 34q24 0 46 -4l1 17q0 48 -25 66h-22v39h291q12 0 28 -9q28 -16 28 -25q0 -5 -13 -5h-93q47 -30 47 -107q0 -45 -19 -98q-8 -24 -26 -24z" />
    <glyph glyph-name="bn_y_ra" horiz-adv-x="352" 
d="M21 379q-13 0 -28 6.5t-25 15.5q-15 17 7 17h342q13 0 29 -6t26 -15q15 -18 -7 -18h-344zM324 1q0 -1 -1 -2q-2 -5 -13 -4q-91 11 -172 54q-38 21 -72 49q-14 11 -27 25t-15 32q-1 18 9.5 31t24.5 23l1 1q36 27 65 63q22 35 -12 61q-35 27 -75 50q-4 2 -8.5 7t-5 9.5
t7.5 6.5q13 3 28 -3t26 -13q37 -23 73 -49q30 -19 48 -49q7 -18 2.5 -32t-15.5 -27q-26 -29 -57 -54q-3 -3 -6 -5q-13 -9 -22.5 -21t-6.5 -28q4 -14 15.5 -24t23.5 -19q2 -1 3 -2q48 -33 104 -45v372q0 5 12 4t27 -5t26.5 -12t11.5 -17v-377zM315 -78q-17 0 -35.5 6.5
t-27.5 17.5h-2q-29 14 -60 23q-42 9 -86 9q-24 0 -63 -5q-34 2 -58 29q-4 5 -4 9q0 3 7 5q39 5 77 5q32 0 86 -8q35 -6 98 -35v117q0 4 12 4q12 -1 26.5 -5.5t26.5 -12.5t12 -17v-138q0 -4 -9 -4z" />
    <glyph glyph-name="bn_l_ka" horiz-adv-x="592" 
d="M639 397v0q16 -18 -6 -18h-76h-142q1 -1 1 -2v-197q21 -5 42 -13q45 -14 84 -40q17 -12 26.5 -28t3.5 -37q-2 -8 -7 -16q5 -3 8.5 -7t4.5 -7t-4 -4q-8 -4 -14 -10q-5 -5 -11 -9q-18 -8 -39 -7q-4 0 -15.5 3.5t-23.5 9.5t-18.5 12t-0.5 12q10 8 25 22.5t21.5 31t-7.5 30.5
q-7 6 -16 9.5t-18 6.5l-6 2q-17 6 -33 7v-254q0 -1 -2 -2q-3 -3 -12 -3q-85 -1 -166 28q-33 11 -67.5 34.5t-41.5 60.5q-3 34 22.5 58t52.5 39q34 21 70 40q32 17 62 35l1 1v0q-11 47 -43 84q-7 -24 -20 -47q-8 -16 -14 -32q0 -9 -6 -17q-7 -8 -25.5 -4.5t-34.5 13.5t-15 20
q2 8 4 15q-1 14 -12 28.5t-23 26.5q-4 3 -7 6l-6 6v-5v-5q-4 -58 -28 -111q-3 -6 -16 -5t-27.5 7t-24 13.5t-7.5 14.5l8 20v0v1q2 7 1 14v2q-1 2 -1 5v1l-1 2q-1 0 -2 1l-1 1q-5 4 -10 9q-5 7 -1.5 9.5t11 3t11.5 -0.5q3 0 7 -1v1v1q3 17 5 35q1 8 1 16q0 4 -1 7v4h-1l-2 2
q-16 16 7 18q73 -6 127 -57q9 -9 18 -19q17 31 10 67q-1 7 7 7.5t19.5 -3t21.5 -7t13 -5.5q32 -20 61 -47v99h-115h-203q-13 0 -28.5 6t-25.5 15q-15 18 7 18h76h328h207q13 0 28 -6t25 -15zM210 17v0q-11 -25 0.5 -45t35.5 -29q46 -16 96 -16v186q-22 -12 -45 -25
q-4 -2 -8 -5q-23 -12 -45 -28t-34 -38z" />
    <glyph glyph-name="bn_l_ga" horiz-adv-x="441" 
d="M340 37q-7 77 -65 109l-1 1q-7 4 -16 4q-7 0 -13 -3t-10 -6.5t-7 -5.5q-22 -15 -42 -32q24 0 62 -14q45 -18 45 -49q0 -23 -28 -49q-34 -32 -77 -32q-10 0 -21 4q-19 5 -31 16q-6 5 -6 8t7 4q57 10 79 57q3 7 3 12q0 6 -2 12h-2q-37 0 -72 -3q-23 0 -44 10l-5 3
q-18 8 -18 14l1 1q34 32 62 52q39 35 74 35q11 0 34 -5.5t48 -15.5q23 -9 45 -24v-103zM339 203q-1 2 -1 4q-8 48 -56 77q-5 -29 -17 -58q-6 -13 -10 -25q0 -22 -21 -22q-6 0 -21.5 2.5t-34.5 12.5t-19 21q0 6 4 13q-1 15 -28 43q-12 -82 -38 -82q-15 0 -35 6.5t-30.5 14.5
t-10.5 14v2l7 17l1 15l-1 4l-2 2q-13 11 -13 15q0 5 15 6l12 -1q7 17 7 40l-1 11h-1q-8 7 -8 12q0 7 16 7q73 -2 133 -61q4 15 4 30q0 10 -2 21v3q0 5 8 6q9 0 24 -3q27 -6 41 -14q31 -15 78 -46v-87zM338 212v252q0 4 8 4q11 0 30 -5q38 -10 38 -28v-17q18 0 33 -6
q32 -13 32 -27q0 -6 -14 -6h-51q0 -405 2 -415q0 -8 -12 -8h-4q-10 0 -23 4t-25 12q-9 5 -12 11zM22 379q-12 0 -28 6.5t-26 14.5q-15 18 7 18h430q13 0 28.5 -6t26.5 -15q15 -18 -7 -18h-431z" />
    <glyph glyph-name="bn_l_dda" horiz-adv-x="663" 
d="M702 397v0q15 -18 -7 -18h-122h-155v-173q11 10 19 25q3 7 7 13q23 42 45 84q0 1 2 2q0 3 7 5q12 2 27.5 -3.5t25.5 -12.5q73 -46 93 -129q13 -73 -38 -126q-54 -48 -128 -44q-80 4 -155 36q-58 22 -113 50q-3 2 -10 6t-11 9.5t1 10.5q5 4 15 2.5t19.5 -5.5t14.5 -7
q51 -26 107 -46q34 -13 72.5 -17t74.5 11q60 29 72.5 86.5t-18.5 110.5l-2 -4q-6 -12 -13 -23q-5 -9 -9 -18q-8 -18 -19 -35q-35 -44 -91 -48q-8 -1 -24 2.5t-30 11t-16 17.5q-2 2 -2 5q-5 58 -46 97q-6 -26 -19 -50q-9 -16 -15 -32q0 -9 -6 -17t-25 -4.5t-35 13.5t-15 20
q2 8 4 15q-1 14 -12 28.5t-23 26.5q-4 3 -7 6t-5 6q-1 -3 -1 -6v-4q-4 -58 -28 -111q-3 -6 -16 -5t-27.5 7t-24 13.5t-7.5 14.5l8 20v0v1q2 7 1 14v2q-1 2 -1 5v1l-1 2q-1 0 -1 1q-1 0 -2 1q-5 4 -10 9q-5 7 -1.5 9.5t11 3t11.5 -0.5q3 0 7 -1v1v1q4 17 5 35q1 8 1 16
q0 4 -1 7v4h-1l-2 2q-16 16 7 18q73 -6 127 -57q9 -9 18 -19q17 31 10 67q-1 7 7 7.5t19.5 -3t21.5 -7t13 -5.5q32 -20 63 -45v97h-322q-13 0 -28 6t-25 15q-15 18 7 18h133h540q13 0 28 -6t26 -15z" />
    <glyph glyph-name="bn_l_pa" horiz-adv-x="449" 
d="M422 143v-184q0 -9 -11 -8.5t-25.5 3.5t-27 8.5t-12.5 18.5v89l-16 11q-21 -20 -38 -39q-4 -4 -7 -8q-31 -35 -58 -73q-5 -6 -22 -3.5t-33 9t-19 17.5v4q1 27 -11 50h-5q-22 -2 -41 -11q-4 -3 -11 -3h-1v1h-6q-17 2 -34.5 9t-20.5 19v6q19 36 53.5 61t82.5 31
q73 5 138 -20q24 -9 49 -20v32h76zM213 68l8 9q20 23 33 35h-11q-25 2 -47 -4q-46 -13 -63 -32q16 -2 38 -10q15 -6 28 -15q7 9 14 17zM346 143v19q-5 62 -46 107q-7 -24 -19 -47q-8 -16 -15 -32q0 -9 -6 -17t-25 -4.5t-35 13.5t-15 20q2 8 4 15q0 14 -11.5 28.5t-23.5 26.5
q-4 3 -7 6q-2 3 -5 6q0 -3 -1 -5v-5q-4 -58 -28 -111q-3 -6 -15.5 -5t-27.5 7t-24.5 13.5t-7.5 14.5l8 20v1q2 7 1 14v2q0 2 -1 5v1l-1 2q-1 0 -1 1q-1 0 -2 1q-5 4 -9 9q-6 7 -2 9.5t11 3t11 -0.5q3 0 7 -1v2q4 17 5 35q1 8 1 16v7q-1 2 -1 4h-1l-2 2q-16 16 7 18
q73 -6 127 -57q9 -9 18 -19q17 31 11 67q-2 7 6 7.5t19.5 -3t22 -7t12.5 -5.5q32 -20 61 -47v99h-324q-13 0 -28.5 6t-25.5 15q-15 18 7 18h463q13 0 28 -6t25 -15q16 -18 -6 -18h-64q1 -1 1 -2v-234h-76z" />
    <glyph glyph-name="bn_l_pha" horiz-adv-x="790" 
d="M812 397q15 -18 -7 -18h-415q14 -7 27 -16q37 -22 66 -55q26 -32 3 -65q-26 -30 -61 -49q-6 -3 -15 -7q-15 -6 -28 -15t-14 -22q1 -9 6.5 -14.5t12.5 -9.5h1q18 -11 37 -20q43 -21 88 -36l26 -10v290q0 1 1 2q0 2 2 4q6 4 16 2.5t19.5 -5.5t14.5 -6q43 -22 83 -48
q8 -6 17 -11q31 -17 54 -41q23 -30 14 -69q8 -4 13 -10t0 -12q-19 -19 -37 -38q-8 -9 -17 -17q-5 -6 -18 -3t-26.5 10t-22 14.5t-5.5 10.5q23 25 33 58q5 14 6 32.5t-7 32.5q-7 9 -18 15q-4 2 -7 4l-6 4q-11 8 -23 15q-5 3 -11 7v-285q0 -4 -12 -3q-9 -1 -19.5 2t-15.5 5
q-8 4 -13.5 6t-12.5 4q-2 1 -5 2q-22 7 -44 15q-43 17 -85 37q-42 19 -80 45q-15 10 -27 25.5t-5 34.5q6 12 18 19t24 13q2 0 3 1q-10 38 -43 63q-4 -33 -21 -63q-9 -16 -15 -32q0 -9 -6 -17t-25 -4.5t-35 13.5t-15 20q2 8 4 15q0 14 -11.5 28.5t-23.5 26.5q-4 3 -7 6t-5 6
q-1 -3 -1 -5v-5q-4 -58 -28 -111q-3 -6 -15.5 -5t-27.5 7t-24.5 13.5t-7.5 14.5l8 20v1q2 7 1 14v2l-1 5v1l-1 2q-1 0 -1 1q-1 0 -2 1l-10 9q-5 7 -1 9.5t11 3t11 -0.5l7 -1v2q4 17 5 35q1 8 1 16q0 4 -1 7v4h-1l-2 2q-16 16 7 18q73 -6 127 -57q9 -9 18 -19q17 31 10 67
q-1 6 4.5 7t14 0t15.5 -3t9 -3q32 -13 67 -34t61 -50q17 12 27 29q10 21 -2 37t-29 28q-27 20 -57 33h-307q-13 0 -28.5 6t-25.5 15q-15 18 7 18h783q13 0 28 -6t26 -15zM41 237q0 -1 1 -1q-1 0 -1 1z" />
    <glyph glyph-name="bn_l_ba" horiz-adv-x="444" 
d="M416 -59q0 -1 -2 -2q-3 -3 -12 -3q-85 -1 -166 28q-33 11 -67 35q-24 15 -34 37q-6 12 -1 30q6 11 16 21q25 24 52 39q34 21 70 40q31 17 62 35q-13 38 -39 68q-7 -24 -20 -47q-8 -16 -14 -32q0 -9 -6 -17q-7 -8 -25.5 -4.5t-34.5 13.5t-15 20q1 8 4 15q-1 14 -12 28.5
t-23 26.5q-4 3 -7 6l-6 6v-10q-4 -58 -28 -111q-3 -6 -16 -5t-27.5 7t-24 13.5t-7.5 14.5l8 20v1q2 7 1 14v2q-1 2 -1 5v1l-1 2q-1 0 -2 1l-1 1q-5 4 -10 9q-5 7 -1.5 9.5t11 3t11.5 -0.5q3 0 7 -1v2q3 17 5 35q1 8 1 16q0 4 -1 7v4h-1l-2 2q-16 16 7 18q73 -6 127 -57
q9 -9 18 -19q17 31 10 67q-1 7 7 7.5t19.5 -3t21.5 -7t13 -5.5q32 -20 61 -47v99h-319q-13 0 -28.5 6t-25.5 15q-15 18 7 18h458q13 0 28 -6t25 -15q15 -18 -7 -18h-63v-438zM340 130q-23 -12 -45 -25q-4 -2 -8 -5q-23 -12 -45 -28q-21 -15 -33 -36q-3 -8 0 -17
q11 -20 34 -29q47 -16 97 -16v156z" />
    <glyph glyph-name="bn_l_ma" horiz-adv-x="607" 
d="M634 397q15 -18 -7 -18h-49q1 -2 1 -4v-369q2 -5 -1 -7q-1 -1 -3 -2q-4 -1 -9 -1t-9 1q-9 2 -20 5.5t-20 9.5q-10 6 -13 14q-28 38 -64 68q-9 7 -18 13q0 -8 1 -16q1 -14 0.5 -26.5t-8.5 -23.5q-15 -18 -38.5 -15.5t-41.5 12.5q-36 16 -44 53q-5 20 -6 41v5q-1 7 -0.5 14
t7.5 12q21 12 49 6q-7 57 -46 100q-6 -24 -19 -47q-8 -16 -15 -32q1 -9 -5 -17q-7 -8 -25.5 -4.5t-35 13.5t-14.5 20q1 8 4 15q-1 14 -12.5 28.5t-23.5 26.5l-12 12v-10q-4 -58 -28 -111q-4 -6 -16.5 -5t-27 7t-24.5 13.5t-7 14.5l8 20v1q2 7 1 14q-1 1 -1 2v6q-2 2 -1 2
q-1 0 -2 1l-1 1q-5 4 -10 9q-6 7 -2 9.5t11 3t11 -0.5q4 0 7 -1l1 1v1q3 17 5 35q0 8 1 16q-1 4 -1 7v4h-1l-2 2q-16 16 7 18q73 -6 126 -57q10 -9 19 -19q17 31 10 67q-1 7 6.5 7.5t19.5 -3t22 -7t13 -5.5q32 -20 61 -47v99h-321q-13 0 -28 6t-25 15q-15 18 7 18h605
q13 0 28.5 -6t25.5 -15zM458 120q24 -14 45 -32v291h-86v-236q21 -10 41 -23z" />
    <glyph glyph-name="bn_l_ra" horiz-adv-x="439" 
d="M453 379h-431q-12 0 -28 7q-32 13 -32 26q0 6 13 6h430q13 0 29 -6q32 -13 32 -27q0 -6 -13 -6zM403 -6q-14 0 -29 5q-38 11 -38 29v82q-4 77 -46 140q-3 -20 -28 -122q0 -30 -18 -30q-5 0 -17.5 2t-29.5 12t-17 21l5 23q-6 37 -56 106q0 -61 -27 -143q-3 -5 -12 -5
q-14 0 -31 7q-33 12 -33 26q9 35 9 47q0 16 -8.5 26t-8.5 13q0 7 12 7q8 0 17 -3q7 28 7 76l-1 16h-1q-9 9 -9 13q0 6 14 7q45 -1 79.5 -28.5t70.5 -83.5q10 33 10 67q0 17 -3 36q0 8 14 8q50 -6 108 -76v132q0 4 8 4q11 0 30 -5q37 -10 37 -28v-377q0 -4 -8 -4zM402 -51
q-16 0 -34 6.5t-27 17.5h-2q-63 31 -129 41q-23 2 -53 2q-47 0 -99 -11q-33 0 -58 25q-5 5 -5 9q0 3 7 5q56 12 110 12q115 0 224 -51v117q0 4 12 4q12 -1 26 -5.5t25.5 -12.5t11.5 -17v-138q0 -4 -9 -4z" />
    <glyph glyph-name="bn_l_la" horiz-adv-x="444" 
d="M486 397q15 -18 -7 -18h-63v-408q0 -5 -11.5 -4t-26 5t-26 11.5t-11.5 16.5v4q-6 55 -46 93q-7 -23 -20 -44q-8 -13 -15 -28q0 -7 -5 -15q-7 -7 -26 -3.5t-35 13.5t-15 20q2 6 5 12q-1 13 -12 25t-22 21q-4 3 -6 5q-4 4 -8 7v-7q-4 -53 -28 -101q-4 -7 -17 -5.5
t-27.5 7.5t-24 13.5t-7.5 14.5q5 8 8 17q0 1 1 1q1 6 0 12v2l-1 4h1l-2 2h-1l-1 1q-3 2 -5 4l-1 1q-3 3 -5.5 6t-1.5 6q2 4 6 4.5t8 0.5h1q7 0 15 -3v1q0 1 1 1q3 16 4 31q1 8 1 16v5l-3 3q-16 16 7 17q71 -5 126 -53q9 -7 18 -15q18 28 11 60q-2 6 5 7t17.5 -1t19 -5
t10.5 -4q36 -20 70 -47v86q-6 54 -46 92q-7 -22 -20 -43q-8 -14 -15 -28q0 -8 -5 -16q-7 -7 -26 -3t-35 13.5t-15 19.5q2 6 5 12q-1 13 -12 25t-22 22q-4 2 -6 5q-4 3 -8 7v-8q-4 -53 -28 -101q-4 -7 -17 -5.5t-27.5 7.5t-24 14t-7.5 14q5 9 8 17v1h1q1 6 0 13v2q-1 1 -1 3
h1v1q-1 0 -2 1q-1 0 -1 1h-1q-3 2 -5 5q-1 0 -1 1q-3 2 -5.5 5t-1.5 7q2 3 6 4t8 0h1q7 0 15 -2v1l1 1q3 15 4 31q1 7 1 15v5q0 1 -1 1l-2 2q-16 17 7 18q71 -5 126 -53q9 -7 18 -15q18 27 11 59q-2 7 5 8t17.5 -1.5t19 -5.5t10.5 -4q36 -19 70 -46v85h-320q-13 0 -28 6
t-25 15q-15 18 7 18h457q13 0 28.5 -6t25.5 -15z" />
    <glyph glyph-name="bn_l_sa" horiz-adv-x="552" 
d="M591 379h-570q-13 0 -28 6q-32 13 -32 26q0 7 14 7h569q14 0 29 -6q31 -14 31 -27q0 -6 -13 -6zM516 -6q-13 0 -30 6q-38 13 -38 28v85q-4 58 -35 107q-8 12 -18 22v-24q0 -36 -2 -73q-1 -54 -47 -85l-3 -2q-20 -11 -53 -11q-52 0 -103 25q-22 10 -22 21v1q3 6 12 6
q9 -1 40 -9q12 -4 26 -4q25 0 36 11q16 16 16 39q0 47 -54 124q-48 61 -48 103q0 20 10 42q4 6 15 6q10 0 30 -8q32 -14 32 -26v-2q-9 -18 -9 -37q0 -38 34 -83q4 -7 14 -21v24q0 24 -1 47q0 8 8 9q8 0 20 -3q36 -9 102 -63v158q0 4 8 4q11 0 30 -5q38 -12 38 -28v-380
q0 -4 -8 -4zM284 189q-49 34 -74 52q-3 -16 -11 -39q-4 -9 -5 -16.5t-5.5 -14.5t-13.5 -7q-4 0 -15 2t-25 10.5t-14 19.5q0 5 2 10q0 6 -5 14l-6 8q-8 -56 -27 -56q-15 0 -27 5q-29 11 -29 24l1 4l4.5 13.5t0.5 8.5l-1 2q-10 10 -10 15q0 3 3 5.5t10 3.5h6q4 14 4 24l-1 6h2
q-9 7 -9 13q0 9 16 9q27 -1 50.5 -14.5t35.5 -27.5q1 5 1 11q0 8 -2 19v3q0 7 8 8q8 0 18 -2q16 -4 29 -11q19 -10 44 -29l2 -2v1h43v-72z" />
    <glyph glyph-name="bn_sha_ukaar" horiz-adv-x="524" 
d="M304 356q16 27 10 57q-1 7 6.5 7.5t19 -2.5t21 -7t12.5 -5q44 -29 81 -66q34 -33 17 -76q-21 -38 -51 -71q-4 -4 -8 -9q37 -7 68 -28q30 -19 30 -53q-5 -30 -27 -51q-53 -42 -122 -41q-142 1 -274 58q-3 2 -11.5 6t-15 9.5t-4.5 11.5q2 5 10.5 4.5t17.5 -3t13 -4.5
q114 -52 238 -43q31 4 59.5 20.5t39.5 47.5q5 14 1 27v1q-1 1 -1.5 2t-1.5 2t-2 1q-27 -1 -52 -10q-14 -4 -27 -6q-11 -2 -24 2.5t-23 9.5q-3 2 -8.5 6t-8.5 8.5t2 8.5q61 44 101 109q11 16 13.5 32.5t-9.5 33.5q-4 4 -7 8q-10 -28 -31 -54q-13 -17 -23 -35q-1 -3 -3 -6
q-4 -6 -16 -5q-4 0 -7 1q-12 5 -17 9q-16 10 -16 20q1 9 2 14q2 9 2 18q-12 32 -29 47q-10 -22 -21 -45q-9 -21 -19 -42q4 -2 7 -4q11 -7 22 -16t18 -21q4 -9 2.5 -16.5t-5.5 -15.5q-3 -6 -5 -12q-3 -13 -9 -18t-21 -4q-38 6 -66 33q-4 3 -8 7l-14 -20q-1 -1 -1 -2
q-7 -11 -14.5 -19t-20.5 -10q-10 -2 -20.5 1.5t-19.5 7.5q-4 1 -10 4.5t-11.5 7.5t-6.5 9q-4 50 0 100q1 7 11.5 6t24 -6.5t24.5 -11.5q11 30 4 61q-4 11 -11 21t-16 15l-8 4q3 -2 -1 0q-1 0 -2 0.5t-2 0.5q-12 3 -24 2q-29 0 -53 16q-3 2 -5 5.5t-4.5 7t-2 6.5t7.5 4
q51 2 102 -20q47 -17 80 -56q1 3 3 7l30 64q2 5 10 6q10 2 24 -3t21 -9q26 -15 65 -51z" />
    <glyph glyph-name="bn_sh_ca" horiz-adv-x="609" 
d="M642 397q15 -18 -7 -18h-259v-25q8 -3 13 -6q71 -33 136 -78q27 -18 48.5 -45.5t17.5 -61.5q-3 -15 -13 -26.5t-22 -21.5v-1q-26 -23 -53 -45q-53 -44 -118 -67q-11 -3 -23 0q-12 1 -26 5.5t-25 11.5t-11 16v212q-1 3 -1 5q1 66 -50 111q-10 -22 -21 -45q-9 -21 -19 -42
q4 -2 7 -4q11 -7 22 -16t18 -21q4 -9 2.5 -16.5t-5.5 -15.5q-3 -6 -5 -12q-3 -13 -9 -18t-21 -4q-38 6 -66 33q-4 3 -8 7l-14 -20q-1 -1 -1 -2q-7 -11 -14.5 -19t-20.5 -10q-10 -2 -20.5 1.5t-19.5 7.5q-4 1 -10 4.5t-11.5 7.5t-6.5 9q-4 50 0 100q1 7 11.5 6t24 -6.5
t24.5 -11.5q11 30 4 61q-4 11 -11 21t-16 15l-8 4q3 -2 -1 0q-1 0 -2 0.5t-2 0.5q-12 3 -24 2q-29 0 -53 16q-3 2 -6.5 5.5t-5 7t-1 6.5t7.5 4q52 2 103 -20q47 -17 80 -56q1 3 3 7l30 64q2 5 10 6q10 2 24 -3t21 -9q32 -17 61 -41v46q0 4 7 4q3 1 8 1h273q13 0 28.5 -6
t25.5 -15zM470 270q-45 30 -94 54v-259q23 14 45 30q23 18 45 37l8 7q19 15 33 34q16 28 1.5 54t-38.5 43z" />
    <glyph glyph-name="bn_sh_cha" horiz-adv-x="593" 
d="M624 397q15 -18 -7 -18h-243v-17q9 -2 16 -5t11 -6q15 -7 29 -14l58 -30q12 -6 24 -13q13 -5 20 -13q12 -9 23 -20q23 -26 22 -59t-22 -60q-26 -29 -62 -40.5t-74 -16.5q-4 0 -9 -1q-15 -1 -31 -6t-17 -21q1 -15 13.5 -27.5t25.5 -21.5l6 -4q46 -34 95 -64q19 -13 39 -25
q4 -3 8.5 -7.5t5 -8.5t-7.5 -7q-12 -2 -27.5 3.5t-25.5 12.5q-21 14 -43 28q-69 40 -128 91q-15 13 -29 32.5t-4 39.5q10 13 28.5 18t36.5 6q8 1 14 2q45 5 85.5 27t46.5 71q-10 -6 -20 -11l-6 -4q-48 -26 -101 -40q-5 -4 -23 -1t-35 12t-17 20v49q-1 2 0 4q0 66 -51 111
q-9 -21 -19 -42l-21 -45q4 -2 7 -4q11 -7 22 -16t18 -21q4 -9 2.5 -16.5t-5.5 -15.5q-3 -6 -5 -12q-3 -13 -9 -18t-21 -4q-38 6 -66 33q-4 3 -8 7l-14 -20q0 -1 -1 -2q-7 -11 -14.5 -19t-20.5 -10q-10 -2 -20.5 1.5t-19.5 7.5q-4 1 -10 4.5t-11.5 7.5t-5.5 9q-5 50 -1 100
q1 7 11.5 6t24 -6.5t24.5 -11.5q11 30 4 61q-4 11 -11 21t-16 15l-8 4q3 -2 -1 0q-1 0 -2 0.5t-2 0.5q-12 3 -24 2q-29 0 -53 16q-2 2 -6 5.5t-5 7t-0.5 6.5t7.5 4q51 2 102 -20q47 -17 80 -56q16 36 33 71q3 5 10 6q11 2 24.5 -3t20.5 -9q32 -17 61 -41v46q0 3 5 3
q4 2 10 2h257q13 0 28 -6t25 -15zM460 291q-29 15 -58 29l-28 14v-106q13 6 25 13q4 1 8 4q16 7 32.5 18.5t20.5 27.5z" />
    <glyph glyph-name="bn_sh_na" horiz-adv-x="403" 
d="M375 158v-143q1 -2 0 -4v-36q0 -4 -11.5 -3.5t-26.5 5t-26.5 12t-11.5 16.5v7q-13 34 -42.5 50.5t-61.5 24.5q-16 5 -31 9q1 -2 2 -5l2 -6q0 -1 1 -2q8 -30 8 -60q3 -14 1 -31q-2 -6 -13 -5t-25.5 6t-25 11.5t-12.5 13.5l-1 26v6q-1 6 -5 9q-5 3 -9.5 7t-5 8.5t7.5 6.5
q5 1 10 1q-3 15 -8 29l-2 4l-2 6t-1 6q3 11 20.5 10t38.5 -6.5t34 -9.5q3 -1 5 -2q58 -15 115 -46v85h76zM299 138v125q-5 59 -50 99q-10 -22 -21 -45q-10 -21 -19 -42l6 -4q12 -7 23 -16t17 -21q5 -9 3.5 -16.5t-5.5 -15.5q-3 -6 -5 -12q-4 -13 -9.5 -18t-20.5 -4
q-38 6 -66 33q-4 3 -9 7q-6 -10 -13 -20l-2 -2q-6 -11 -14 -19t-20 -10q-10 -2 -20.5 1.5t-19.5 7.5q-4 1 -10.5 4.5t-11.5 7.5t-6 9q-4 50 0 100q1 7 11.5 6t24 -6.5t24.5 -11.5q11 30 3 61q-3 11 -10.5 21t-15.5 15l-8 4q3 -2 -1 0q-1 0 -2 0.5t-2 0.5q-12 3 -24 2
q-29 0 -54 16l-5.5 5.5t-5 7t-0.5 6.5t5 4q54 2 104 -20q48 -17 80 -56l34 71q2 5 10 6q10 2 24 -3t21 -9q31 -17 60 -41v87q0 5 11.5 4t26.5 -5t26.5 -11.5t11.5 -16.5v-7q13 -2 26 -7.5t22 -13.5l3.5 -3.5t3.5 -5t0 -4.5q-1 -4 -5.5 -4.5t-7.5 -0.5h-42v-240h-76z" />
    <glyph glyph-name="bn_sh_ba" horiz-adv-x="403" 
d="M423 396l3.5 -3.5t3.5 -5t1 -4.5q-2 -4 -6.5 -4.5t-7.5 -0.5h-42v-447q0 -2 -3 -3q-4 -2 -10 -1.5t-11.5 1.5t-8.5 2q-65 20 -129 44q-6 2 -14 5q-27 9 -54.5 23t-41.5 37q-11 22 -0.5 38t30.5 27.5t36 18.5q53 24 107 42q9 3 19 6l4 2v90q-4 59 -50 99q-10 -21 -19 -42
q-11 -23 -21 -45l6 -4q12 -7 23 -16t18 -21q4 -9 2.5 -16.5t-5.5 -15.5q-3 -6 -5 -12q-3 -13 -9 -18t-21 -4q-38 6 -66 33q-4 3 -9 7q-6 -10 -13 -20q-1 -1 -1 -2q-7 -11 -14.5 -19t-20.5 -10q-10 -2 -20.5 1.5t-19.5 7.5q-4 1 -10.5 4.5t-11.5 7.5t-6 9q-4 50 0 100
q1 7 11.5 6t24 -6.5t24.5 -11.5q11 30 3 61q-3 11 -10.5 21t-15.5 15l-9 4q-1 0 -4 1q-12 3 -24 2q-29 0 -54 16l-5.5 5.5t-5 7t-0.5 6.5t5 4q54 2 104 -20q48 -17 80 -56q9 18 17 36t17 35q2 5 10 6q10 2 24 -3t21 -9q31 -17 60 -41v87q0 5 11.5 4t26.5 -5t26.5 -11.5
t11.5 -16.5v-7q13 -2 26 -7.5t22 -13.5zM186 14q25 -11 51 -20q31 -12 62 -22v141q-21 -8 -41 -17q-5 -2 -11 -4q-22 -8 -45 -21.5t-28 -34.5q-2 -10 2 -15t10 -7z" />
    <glyph glyph-name="bn_sh_ma" horiz-adv-x="561" 
d="M592 396q15 -18 -7 -18h-52v-405l1 -1q4 -7 1 -10t-10 -3t-11 1q-12 2 -26 7.5t-23 15.5q-5 4 -6 9q-34 42 -83 65v-9q1 -11 -0.5 -21t-8.5 -16q-17 -13 -40.5 -5.5t-38.5 18.5q-31 19 -41 53v2q-5 15 -4.5 28.5t19.5 15.5q18 0 37 -5v145q-5 59 -50 99q-21 -43 -41 -87
q4 -2 7 -4q11 -7 22 -16t18 -21q4 -9 2.5 -16.5t-5.5 -15.5q-3 -6 -5 -12q-3 -13 -9 -18t-21 -4q-38 6 -66 33q-3 3 -8 7l-14 -20q0 -1 -1 -2q-7 -11 -14.5 -19t-20.5 -10q-10 -2 -20.5 1.5t-19.5 7.5q-4 1 -10 4.5t-11.5 7.5t-5.5 9q-4 50 -1 100q1 7 11.5 6t24 -6.5
t24.5 -11.5q11 30 4 61q-4 11 -11 21t-16 15l-8 4q3 -2 0 0h-1q-1 0 -2 0.5t-2 0.5q-12 3 -24 2q-29 0 -53 16q-2 2 -6 5.5t-5 7t-0.5 6.5t6.5 4q52 2 103 -20q48 -17 80 -56q9 19 17 38q8 17 16 33q3 5 10 6q11 2 24.5 -3t20.5 -9q32 -17 61 -41v87q0 5 11.5 4t26 -5
t26 -11.5t11.5 -16.5v-7h165q13 0 28 -6t25 -15zM458 43v335h-84v-291q23 -9 45 -21q20 -10 39 -23z" />
    <glyph glyph-name="bn_sh_ra" horiz-adv-x="403" 
d="M423 397q1 -1 3 -3.5t3.5 -5t0.5 -4.5q-1 -4 -5.5 -4.5t-7.5 -0.5h-42v-372q1 -3 0 -5t-2 -2q0 -1 -1 -1q-5 -5 -15 -3t-19.5 6t-15.5 7q-133 61 -278 31q-13 -2 -28 3.5t-26 12.5q-4 3 -8.5 7.5t-5.5 9t7 6.5q163 29 316 -31v216q-5 59 -50 99q-11 -22 -21 -45
q-10 -21 -19 -42l6 -4q12 -7 23 -16t17 -21q5 -9 3 -16.5t-5 -15.5q-3 -6 -5 -12q-4 -13 -10 -18t-20 -4q-39 6 -66 33q-4 3 -9 7q-6 -10 -13 -20l-2 -2q-6 -11 -14 -19t-20 -10q-10 -2 -20.5 1.5t-19.5 7.5h-1q-3 1 -9.5 4.5t-11.5 7.5t-6 9q-4 50 0 100q1 7 11 6t24 -6.5
t25 -11.5q11 30 3 61q-3 11 -10.5 21t-15.5 15l-9 4h-1q-1 0 -1.5 0.5t-2.5 0.5q-11 3 -23 2q-29 0 -54 16q-2 2 -3.5 5.5t-4.5 7t-2 6.5t7 3q51 3 101 -19q48 -17 80 -56q8 17 16 33l18 38q2 5 10 6q10 2 23.5 -3t21.5 -9q31 -17 60 -41v87q0 5 11.5 4t26.5 -5t26.5 -11.5
t11.5 -16.5v-7q12 -2 25 -7.5t23 -13.5z" />
    <glyph glyph-name="bn_sh_la" horiz-adv-x="404" 
d="M424 397q2 -1 4 -3.5t3 -5t1 -4.5q-2 -4 -6.5 -4.5t-7.5 -0.5h-42v-444q0 -3 -8 -4q-11 -1 -26.5 3t-27.5 11.5t-13 15.5q-3 48 -24 87q-7 -15 -16 -30q-8 -13 -15 -28q0 -8 -5 -15q-7 -7 -26 -3.5t-35 13t-15 20.5q2 6 5 12q-1 13 -12 25t-22 21q-4 3 -6 5q-4 4 -8 7v-7
q-4 -54 -28 -101q-4 -7 -17 -5.5t-27.5 7.5t-24 13.5t-7.5 13.5q15 29 23 61q3 15 5 31v21l-3 3q-16 16 7 17q71 -5 127 -53q9 -7 17 -15q18 27 11 59q-1 5 2.5 7t8.5 2t8 -1q22 -3 42 -15q19 -11 35 -24v161q-1 1 -1 2q0 2 1 5v7q-5 59 -51 99q-10 -21 -19 -42
q-11 -23 -21 -45l6 -4q12 -7 23 -16t18 -21q4 -9 2.5 -16.5t-5.5 -15.5q-3 -6 -5 -12q-3 -13 -9 -18t-21 -4q-38 6 -66 33q-4 3 -8 7l-14 -20q-1 -1 -1 -2q-7 -11 -14.5 -19t-20.5 -10q-10 -2 -20.5 1.5t-19.5 7.5q-4 1 -10 4.5t-11.5 7.5t-6.5 9q-4 50 0 100q1 7 11.5 6
t24 -6.5t24.5 -11.5q11 30 3 61q-3 11 -10.5 21t-15.5 15l-8 4q3 -2 -1 0q-1 0 -2 0.5t-2 0.5q-12 3 -24 2q-29 0 -53 16q-3 2 -6.5 5.5t-5 7t-1 6.5t7.5 3q52 3 102 -19q48 -17 81 -56l30 64q1 4 3 7q2 5 10 6q10 2 24 -3t21 -9q31 -17 61 -41v87q0 5 11.5 4t26 -5
t26 -11.5t11.5 -16.5v-7q13 -2 26 -7.5t22 -13.5z" />
    <glyph glyph-name="bn_ss_ka" horiz-adv-x="488" 
d="M515 397q15 -18 -7 -18h-139q8 -17 7 -41q3 -41 -26 -70q-23 -21 -53 -31q7 -4 11 -8q23 -6 45 -14q45 -15 84 -40q17 -12 26.5 -28t3.5 -37q-2 -8 -7 -16q5 -3 8.5 -7t4.5 -7t-4 -4q-8 -4 -14 -10q-5 -5 -11 -9q-18 -8 -39 -7q-4 0 -15 3.5t-23.5 9.5t-19 12t-0.5 12
q10 8 25 22.5t21.5 31t-7.5 30.5q-7 6 -16 9.5t-18 6.5l-6 2q-17 6 -33 7v-254q0 -1 -2 -2q-3 -3 -12 -3q-85 -1 -166 28q-33 11 -67.5 34.5t-41.5 60.5q-3 34 22.5 58t52.5 39q34 21 70 40q24 13 47 26h-26q-51 -2 -99 17q-19 6 -40.5 20t-26.5 35q-3 17 9.5 29t27.5 20
l8 4q20 14 36 31h-84q-13 0 -28 6t-25 15q-15 18 7 18h486q13 0 28.5 -6t25.5 -15zM159 262q20 2 41 5q-26 14 -45 35q-6 7 -11 15q-4 -2 -8 -5q-12 -7 -23 -15q-5 -4 -10 -10.5t-4 -13.5q0 -2 1 -3.5t2 -3.5l2 -2q27 -5 55 -2zM105 65q-11 -25 0.5 -45t35.5 -30
q46 -15 96 -15v186q-22 -12 -45 -25q-4 -2 -8 -5q-23 -12 -45 -28t-34 -38zM300 352q1 14 0 27h-86q-19 -32 -3 -67q10 -28 34 -32q17 8 31 20q23 21 24 52z" />
    <glyph glyph-name="bn_ss_k_ra" horiz-adv-x="601" 
d="M625 397q15 -18 -7 -18h-248q8 -17 7 -41q3 -41 -26 -70q-19 -17 -44 -27q25 -9 49 -20q32 -14 56 -39q13 -17 13 -36q42 20 91 8q27 -7 48 -24.5t21 -47.5q-1 -24 -9 -47q-2 -6 -3 -11q-2 -8 -4 -15q-6 -21 -12 -41q-2 -7 -13 -6t-25 6.5t-24.5 12.5t-12.5 13l-6 30
q-3 15 -6 29q-1 6 4 7.5t12.5 0.5t12.5 -2l6 24q5 16 4 34q-24 -8 -44 -25l-18 -12q-11 -7 -21 -15v-128q4 -10 -13 -11q-14 1 -28.5 7t-24.5 14q-58 48 -130 60t-144 -5q-13 -2 -28 3.5t-25 12.5q-5 3 -9.5 7.5t-5 9t7.5 6.5q169 34 324 -49v172q1 33 -30 44q-27 10 -55 15
q-1 -25 -5 -51q-4 -29 -5 -57q2 -13 3 -25q0 -7 -6.5 -8.5t-14 0t-11.5 3.5h-1q-15 4 -28 12q-2 2 -5.5 4t-6 5t-3.5 6q0 12 -3 25q-3 11 -10 19q0 1 -1 2q-4 6 -2.5 8.5t6 3.5t9.5 1q1 15 4 31q1 10 2 21q-49 -1 -95 17q-19 6 -40 20t-27 35q-3 17 9.5 29t27.5 20l8 4
q20 14 36 31h-85q-13 0 -28 6t-25 15q-15 18 7 18h596q13 0 28.5 -6t25.5 -15zM105 264q27 -5 55 -2q20 2 41 5q-26 14 -45 35q-6 7 -11 15q-4 -2 -8 -5q-12 -7 -22 -15q-6 -4 -10.5 -10.5t-4.5 -13.5q0 -2 1 -3.5t2 -3.5zM302 352q0 14 -1 27h-86q-19 -32 -3 -67
q10 -28 34 -32q17 8 32 20q22 21 24 52z" />
    <glyph glyph-name="bn_ss_tta" horiz-adv-x="479" 
d="M504 397q16 -18 -7 -18h-133q-2 -50 -31 -91q-14 -18 -31 -33q-8 -8 -16 -17l-24 -24q-5 -6 -11 -11q0 -3 -3 -4q-27 -26 -48 -56.5t-29 -68.5q-3 -17 -0.5 -36t12.5 -33h2q26 1 51 6q58 10 108 41q19 12 35 33.5t5 45.5q-10 16 -28 25q-1 -3 -2 -7v-4q-4 -14 -10 -27
q-12 -28 -33 -51q-7 -6 -20 -4t-27 8.5t-22.5 14t-6.5 11.5q24 28 25 64q0 3 4 3.5t11 0.5v1l4 12q1 6 3 11.5t7 8.5q7 4 15.5 3.5t15.5 -2.5h1q41 -11 77 -34q33 -17 56 -46q18 -31 2.5 -58.5t-42.5 -44.5q-68 -41 -148 -48q-53 -5 -106 16t-65 78q-6 73 43 128
q-58 9 -102 46q-17 19 -6 35t29 29q8 7 13 12q19 17 26 41q3 17 -9 26h-68q-13 0 -28 6t-25 15q-15 18 7 18h311q0 1 1 2q5 28 -13 51.5t-40 42.5q-6 5 -11 10q-49 46 -103 86q-10 7 -7 12t14 5q29 -2 53 -21q62 -46 117 -99l9 -8q19 -17 35.5 -37t21.5 -44h88q13 0 28 -6
t25 -15zM178 234v1h1l30 30q-1 1 -2 3q-5 13 -12 21.5t-19 15.5q-3 2 -7 4l-1 1q-13 -24 -33 -40q-4 -4 -9 -8q-13 -9 -21 -21q-4 -7 -4 -10t4 -4q17 -4 36.5 -1.5t36.5 8.5zM249 308q27 32 36 71h-139q24 -16 28 -41q28 -13 53 -29q8 -5 15 -10q4 4 7 9z" />
    <glyph glyph-name="bn_ss_ttha" horiz-adv-x="411" 
d="M444 397q16 -18 -7 -18h-115q50 -56 66 -130q10 -44 7.5 -92.5t-24.5 -88.5q-27 -42 -72.5 -51.5t-91.5 -0.5q-50 9 -95.5 35t-69.5 73q-1 2 0 4t3.5 3t4.5 1q61 12 109 54q-60 7 -107 36q-12 7 -21.5 18t-5.5 26q3 8 10.5 15.5t15.5 13.5l10 8q22 18 33 45q6 21 -7 31
h-66q-13 0 -28 6t-25 15q-15 18 7 18h241q-7 12 -16 22q-9 11 -20 21q-18 16 -32 36q-35 68 4 133q5 7 18 5.5t27 -8t23.5 -14t6.5 -12.5q-19 -29 -20 -64.5t20 -64.5q11 -15 25 -27t26 -27h113q13 0 28 -6t25 -15zM225 379h-81q23 -16 28 -41q30 -14 58 -32q2 -2 4 -3
q3 13 2 27q-2 20 -7 39zM120 225q39 -5 76 7l6 2v1q2 3 4 5q5 8 10 17l-3 5q-13 32 -47 48q-16 -29 -43 -49q-3 -3 -6 -5q-10 -9 -17 -20q0 -3 -1 -6h-2l1 -1q2 -1 6 -2zM313 144q15 66 -1 135q-6 -27 -20 -51q-58 -103 -172 -132q34 -54 100 -46q77 15 93 94z" />
    <glyph glyph-name="bn_ss_nna" horiz-adv-x="563" 
d="M285 349q16 -13 29 -29q6 -11 9 -23q0 1 1 1q1 1 2 1q64 29 129 4q29 -9 54.5 -30t19.5 -54q-10 -32 -39 -43q35 -18 51 -54q12 -37 -13 -58t-60 -24q-46 0 -88 19q-30 11 -55 31v-86q0 -1 -1 -2q-2 -2 -6 -3q-13 -3 -28 3l-5 2v345zM468 117q4 25 -13 45h-1q-1 0 -2 0.5
t-2 0.5h-1q-10 1 -21 2h-4q-28 2 -50 19q-3 2 -7 6.5t-4 8.5t7 4q22 0 43.5 5.5t33.5 25.5q11 17 5 36q-1 3 -3 6q-44 0 -76 -27.5t-48 -66.5v-3q4 -7 7 -15q13 -29 31 -56q5 -6 10.5 -11.5t10.5 -9.5q1 0 2 -1t2 -1q0 -1 0.5 -1h0.5l-1 1l2 -2h2q2 -1 6 -2l8 -2q19 -1 38 9
t24 29zM257 379h-236q-13 0 -28 6t-25 14q-16 19 7 19h282v-39zM325 3q3 -11 -13 -10q-93 13 -174 59q-38 21 -72 49q-14 10 -27 24.5t-15 32.5q-1 19 10 31.5t24 22.5h1q37 28 65 64q23 35 -12 61q-35 28 -74 50q-5 3 -9.5 7t-3.5 8.5t6 6.5q14 3 28.5 -3t25.5 -12
q38 -23 74 -49q29 -20 47 -50q5 -8 5 -15q19 -10 38 -22v156q0 5 11.5 4t26.5 -5.5t26.5 -11.5t11.5 -16v-382zM101 128q4 -13 16 -23t23 -18q2 -1 5 -3q46 -36 104 -49v137q-5 52 -46 78l-10 -14q-26 -28 -56 -53q-3 -2 -6 -5q-13 -9 -23 -21.5t-7 -28.5z" />
    </font>
</defs>
</svg>
